SplineFontDB: 3.2
FontName: SeriousShanns
FullName: Serious Shanns
FamilyName: Serious Shanns
Weight: Book
Copyright: https://github.com/kaBeech/serious-shanns/blob/main/LICENSE
Version: 6.0.0
ItalicAngle: 0
UnderlinePosition: 0
UnderlineWidth: 0
Ascent: 800
Descent: 200
InvalidEm: 0
sfntRevision: 0x00003333
LayerCount: 2
Layer: 0 0 "Back" 1
Layer: 1 0 "Fore" 0
XUID: [1021 45 630387186 12505762]
StyleMap: 0x0040
FSType: 4
OS2Version: 3
OS2_WeightWidthSlopeOnly: 0
OS2_UseTypoMetrics: 0
CreationTime: 1532631502
ModificationTime: 315532800
PfmFamily: 81
TTFWeight: 400
TTFWidth: 5
LineGap: 0
VLineGap: 0
Panose: 0 0 0 0 0 0 0 0 0 0
OS2TypoAscent: 613
OS2TypoAOffset: 0
OS2TypoDescent: -188
OS2TypoDOffset: 0
OS2TypoLinegap: 98
OS2WinAscent: 778
OS2WinAOffset: 0
OS2WinDescent: 308
OS2WinDOffset: 0
HheadAscent: 796
HheadAOffset: 0
HheadDescent: -317
HheadDOffset: 0
OS2SubXSize: 317
OS2SubYSize: 293
OS2SubXOff: 0
OS2SubYOff: 37
OS2SupXSize: 317
OS2SupYSize: 293
OS2SupXOff: 0
OS2SupYOff: 171
OS2StrikeYSize: 0
OS2StrikeYPos: 132
OS2CapHeight: 576
OS2XHeight: 485
OS2Vendor: 'NONE'
OS2CodePages: 00000001.00000000
OS2UnicodeRanges: 00000001.00000000.00000000.00000000
MarkAttachClasses: 1
DEI: 91125
LangName: 1033 "" "" "Normal" "FontForge 2.0 : Serious Shanns : 11-6-2024" "" "Version 0.2.0"
Encoding: UnicodeBmp
Compacted: 1
UnicodeInterp: none
NameList: AGL For New Fonts
DisplaySize: -48
AntiAlias: 1
FitToEm: 0
WinInfo: 0 16 11
BeginPrivate: 0
EndPrivate
BeginChars: 65537 97

StartChar: .notdef
Encoding: 65536 -1 0
Width: 700
GlyphClass: 1
Flags: W
HStem: -268 54<189 510> 695 54<189 510>
VStem: 136 53<-214 695> 510 54<-214 695>
LayerCount: 2
Fore
SplineSet
136 -268 m 1
 136 749 l 1
 564 749 l 1
 564 -268 l 1
 136 -268 l 1
189 -214 m 1
 510 -214 l 1
 510 695 l 1
 189 695 l 1
 189 -214 l 1
EndSplineSet
Validated: 1
EndChar

StartChar: exclam
Encoding: 33 33 1
Width: 700
GlyphClass: 2
Flags: HMW
HStem: -24.5727 153.613
VStem: 267.997 164.001 308.997 92.3857
LayerCount: 2
Fore
SplineSet
409 738 m 0xa0
 409 732 407.498046875 688.16796875 404.498046875 606.500976562 c 0
 402.420898438 549.961914062 401.3828125 500.692382812 401.3828125 458.692382812 c 0
 401.3828125 440.026367188 401.587890625 422.795898438 401.998046875 407.000976562 c 0
 402.6640625 382.000976562 402.997070312 362.04296875 402.997070312 347.125976562 c 0
 402.997070312 332.208984375 402.6640625 322.333984375 401.997070312 317.5 c 0
 401.108398438 311.056640625 400.6640625 302.022460938 400.6640625 290.397460938 c 0
 400.6640625 284.580078125 400.775390625 278.114257812 400.998046875 271 c 0
 399.665039062 256.333007812 393.998046875 244.833007812 383.998046875 236.5 c 0
 374.739257812 228.784179688 363.765625 224.926757812 351.078125 224.926757812 c 0
 350.0625 224.926757812 349.036132812 224.951171875 347.999023438 225.000976562 c 0
 334.666015625 225.000976562 323.666015625 229.333984375 314.999023438 238.000976562 c 0
 307.487304688 245.512695312 303.731445312 256.029296875 303.731445312 269.55078125 c 0
 303.731445312 271.629882812 303.8203125 273.780273438 303.998046875 276.001953125 c 0
 304.665039062 286.001953125 305.665039062 295.668945312 306.998046875 305.001953125 c 0
 308.331054688 314.334960938 309.1640625 322.16796875 309.497070312 328.500976562 c 0
 309.830078125 334.833984375 310.330078125 349.833984375 310.997070312 373.500976562 c 0
 311.1640625 379.41796875 311.247070312 385.762695312 311.247070312 392.534179688 c 0
 311.247070312 412.846679688 310.497070312 437.001953125 308.997070312 465.000976562 c 0
 308.330078125 491.000976562 307.830078125 518.500976562 307.497070312 547.500976562 c 0
 307.385742188 557.158203125 307.330078125 566.279296875 307.330078125 574.864257812 c 0
 307.330078125 592.059570312 307.552734375 607.10546875 307.998046875 620 c 0
 308.665039062 639.333007812 309.33203125 661.333007812 309.999023438 686 c 0
 310.666015625 710.666992188 310.999023438 727 310.999023438 735 c 0
 311.666015625 753 316.833007812 766.666992188 326.5 776 c 0
 336.166992188 785.333007812 348 790 362 790 c 0
 363 790.047851562 363.986328125 790.071289062 364.959960938 790.071289062 c 0
 377.60546875 790.071289062 387.952148438 786.047851562 396 778 c 0
 404.666992188 769.333007812 409 756 409 738 c 0xa0
351.998046875 -23.9990234375 m 0
 348.47265625 -24.3798828125 345.0390625 -24.5703125 341.697265625 -24.5703125 c 0
 321.658203125 -24.5703125 304.924804688 -17.7158203125 291.497070312 -4.0029296875 c 0
 275.830078125 11.9970703125 267.997070312 31.330078125 267.997070312 53.9970703125 c 0
 267.997070312 73.9970703125 276.830078125 91.330078125 294.497070312 105.997070312 c 0
 312.1640625 120.6640625 331.331054688 128.331054688 351.998046875 128.998046875 c 0
 353.03515625 129.02734375 354.064453125 129.041992188 355.0859375 129.041992188 c 0
 377.02734375 129.041992188 395.165039062 122.194335938 409.498046875 108.499023438 c 0
 424.498046875 94.166015625 431.998046875 76.3330078125 431.998046875 55 c 0xc0
 431.998046875 33.6669921875 424.665039062 15.833984375 409.998046875 1.5009765625 c 0
 395.331054688 -12.83203125 375.998046875 -21.33203125 351.998046875 -23.9990234375 c 0
EndSplineSet
Validated: 1
EndChar

StartChar: quotedbl
Encoding: 34 34 2
Width: 700
GlyphClass: 2
Flags: HMW
VStem: 220.571 101.426 378.523 103.475
LayerCount: 2
Fore
SplineSet
323 738 m 0
 323.221679688 728.908203125 323.33203125 717.880859375 323.33203125 704.916015625 c 0
 323.33203125 678.904296875 322.885742188 645.09765625 321.99609375 603.498046875 c 0
 320.663085938 541.165039062 318.330078125 498.33203125 314.997070312 474.999023438 c 0
 312.997070312 461.666015625 307.330078125 451.666015625 297.997070312 444.999023438 c 0
 289.512695312 438.938476562 280.202148438 435.908203125 270.065429688 435.908203125 c 0
 269.051757812 435.908203125 268.029296875 435.938476562 266.999023438 435.999023438 c 0
 253.666015625 436.666015625 241.833007812 440.833007812 231.5 448.5 c 0
 222.34765625 455.291015625 217.771484375 464.565429688 217.771484375 476.32421875 c 0
 217.771484375 480.546875 220.571289062 511.731445312 220.571289062 589.744140625 c 0
 220.571289062 596.965820312 220.547851562 604.383789062 220.5 611.999023438 c 0
 220.166992188 665.33203125 219 709.33203125 217 743.999023438 c 0
 216.333007812 751.999023438 217.833007812 758.83203125 221.5 764.499023438 c 0
 225.166992188 770.166015625 230 774.333007812 236 777 c 0
 242 779.666992188 248.166992188 781.5 254.5 782.5 c 0
 260.833007812 783.5 267 783.666992188 273 783 c 0
 279 783 284.666992188 782.333007812 290 781 c 0
 295.333007812 779.666992188 300.5 777.5 305.5 774.5 c 0
 310.5 771.5 314.666992188 766.833007812 318 760.5 c 0
 321.333007812 754.166992188 323 746.666992188 323 738 c 0
482.99609375 737.997070312 m 0
 483.21875 728.875976562 483.329101562 717.805664062 483.329101562 704.786132812 c 0
 483.329101562 678.791015625 482.885742188 645.026367188 481.998046875 603.495117188 c 0
 480.665039062 541.162109375 478.665039062 498.329101562 475.998046875 474.99609375 c 0
 473.998046875 461.663085938 468.165039062 451.663085938 458.498046875 444.99609375 c 0
 449.709960938 438.935546875 440.508789062 435.905273438 430.89453125 435.905273438 c 0
 429.932617188 435.905273438 428.966796875 435.935546875 427.997070312 435.99609375 c 0
 414.6640625 436.663085938 402.6640625 440.830078125 391.997070312 448.497070312 c 0
 383.014648438 454.953125 378.5234375 463.654296875 378.5234375 474.6015625 c 0
 378.5234375 476.654296875 378.681640625 478.786132812 378.997070312 480.997070312 c 0
 380.497070312 506.49609375 381.247070312 537.432617188 381.247070312 573.805664062 c 0
 381.247070312 585.931640625 381.1640625 598.662109375 380.997070312 611.99609375 c 0
 380.330078125 665.329101562 378.997070312 709.329101562 376.997070312 743.99609375 c 0
 376.997070312 751.99609375 378.830078125 758.829101562 382.497070312 764.49609375 c 0
 386.1640625 770.163085938 390.997070312 774.330078125 396.997070312 776.997070312 c 0
 402.997070312 779.6640625 408.997070312 781.497070312 414.997070312 782.497070312 c 0
 420.997070312 783.497070312 426.997070312 783.6640625 432.997070312 782.997070312 c 0
 438.997070312 782.997070312 444.6640625 782.330078125 449.997070312 780.997070312 c 0
 455.330078125 779.6640625 460.663085938 777.497070312 465.99609375 774.497070312 c 0
 471.329101562 771.497070312 475.49609375 766.830078125 478.49609375 760.497070312 c 0
 481.49609375 754.1640625 482.99609375 746.6640625 482.99609375 737.997070312 c 0
EndSplineSet
Validated: 1
EndChar

StartChar: numbersign
Encoding: 35 35 3
Width: 700
GlyphClass: 2
Flags: HMW
HStem: 192 82 445 84 697.667 20G
LayerCount: 2
Fore
SplineSet
236 42 m 0
 231.333007812 28 221.665039062 16.4990234375 206.998046875 7.4990234375 c 0
 196.84375 1.2685546875 187.168945312 -1.8466796875 177.973632812 -1.8466796875 c 0
 173.88671875 -1.8466796875 169.89453125 -1.2314453125 165.997070312 -0.0009765625 c 0
 153.330078125 2.666015625 143.997070312 11.166015625 137.997070312 25.4990234375 c 0
 134.8203125 33.0869140625 133.232421875 41.095703125 133.232421875 49.5244140625 c 0
 133.232421875 57.0166015625 134.487304688 64.8408203125 136.997070312 72.998046875 c 0
 142.330078125 90.998046875 151.663085938 129.665039062 164.99609375 188.998046875 c 1
 134.99609375 188.998046875 l 2
 118.329101562 188.998046875 105.662109375 192.331054688 96.9951171875 198.998046875 c 0
 84.25 208.801757812 83.91796875 221.170898438 83.91796875 228.732421875 c 0
 83.91796875 239.524414062 87.6103515625 248.61328125 94.9951171875 255.998046875 c 0
 102.995117188 263.998046875 115.662109375 268.665039062 132.995117188 269.998046875 c 0
 138.328125 269.998046875 146.495117188 270.165039062 157.495117188 270.498046875 c 0
 168.495117188 270.831054688 176.662109375 270.998046875 181.995117188 270.998046875 c 1
 215.995117188 443.998046875 l 1
 210.662109375 443.998046875 203.329101562 443.831054688 193.99609375 443.498046875 c 0
 184.663085938 443.165039062 178.330078125 442.998046875 174.997070312 442.998046875 c 0
 173.663085938 442.944335938 172.353515625 442.91796875 171.068359375 442.91796875 c 0
 156.299804688 442.91796875 144.776367188 446.444335938 136.497070312 453.498046875 c 0
 123.240234375 464.791015625 122.924804688 477.244140625 122.924804688 484.541992188 c 0
 122.924804688 495.44140625 126.948242188 504.759765625 134.99609375 512.497070312 c 0
 143.663085938 520.830078125 156.663085938 525.330078125 173.99609375 525.997070312 c 0
 186.663085938 526.6640625 205.99609375 526.997070312 231.99609375 526.997070312 c 1
 250.663085938 627.6640625 260.330078125 679.6640625 260.997070312 682.997070312 c 0
 266.330078125 699.6640625 274.663085938 711.331054688 285.99609375 717.998046875 c 0
 293.551757812 722.443359375 301.255859375 724.666015625 309.108398438 724.666015625 c 0
 313.034179688 724.666015625 316.997070312 724.110351562 320.997070312 722.999023438 c 0
 334.997070312 720.33203125 345.830078125 713.665039062 353.497070312 702.998046875 c 0
 358.840820312 695.563476562 361.512695312 686.509765625 361.512695312 675.836914062 c 0
 361.512695312 671.197265625 361.0078125 666.250976562 359.998046875 660.999023438 c 2
 332.998046875 528.999023438 l 1
 445.998046875 528.999023438 l 1
 472.998046875 674.999023438 l 2
 478.331054688 692.33203125 486.498046875 704.33203125 497.498046875 710.999023438 c 0
 504.83203125 715.444335938 512.684570312 717.666992188 521.055664062 717.666992188 c 0
 525.240234375 717.666992188 529.5546875 717.111328125 533.999023438 716 c 0
 548.666015625 713.333007812 559.666015625 706.666015625 566.999023438 695.999023438 c 0
 571.744140625 689.096679688 574.1171875 680.798828125 574.1171875 671.10546875 c 0
 574.1171875 665.818359375 573.411132812 660.116210938 571.999023438 653.999023438 c 0
 564.666015625 625.999023438 556.333007812 584.999023438 547 530.999023438 c 1
 558 530.999023438 l 2
 574 530.999023438 587.5 526.499023438 598.5 517.499023438 c 0
 609.5 508.499023438 615.333007812 498.999023438 616 488.999023438 c 0
 616 476.999023438 612 466.83203125 604 458.499023438 c 0
 596 450.166015625 583.666992188 445.666015625 567 444.999023438 c 2
 531 444.999023438 l 1
 502 273.999023438 l 1
 543 273.999023438 l 2
 558.333007812 273.999023438 569 270.499023438 575 263.499023438 c 0
 581 256.499023438 584.333007812 247.33203125 585 235.999023438 c 0
 585 206.666015625 571 191.999023438 543 191.999023438 c 2
 487 191.999023438 l 1
 473.666992188 115.999023438 464 64.666015625 458 37.9990234375 c 0
 452.666992188 23.9990234375 443.166992188 13.166015625 429.5 5.4990234375 c 0
 420.518554688 0.4609375 411.609375 -2.0576171875 402.772460938 -2.0576171875 c 0
 398.162109375 -2.0576171875 393.571289062 -1.3720703125 389 -0.0009765625 c 0
 376.333007812 2.666015625 367 10.4990234375 361 23.4990234375 c 0
 357.823242188 30.380859375 356.235351562 37.77734375 356.235351562 45.6875 c 0
 356.235351562 52.71875 357.490234375 60.15625 360 68 c 0
 366.666992188 94.6669921875 375.333984375 135.666992188 386.000976562 191 c 1
 372.000976562 191 351.66796875 190.833007812 325.000976562 190.5 c 0
 298.333984375 190.166992188 278.666992188 190 266 190 c 1
 252 118 242 68.6669921875 236 42 c 0
316.999023438 444.999023438 m 1
 282 273.998046875 l 1
 309.333007812 274.665039062 348.666015625 274.998046875 399.999023438 274.998046875 c 1
 410.666015625 329.665039062 420.999023438 386.33203125 430.999023438 444.999023438 c 1
 316.999023438 444.999023438 l 1
EndSplineSet
Validated: 1
EndChar

StartChar: dollar
Encoding: 36 36 4
Width: 700
GlyphClass: 2
Flags: HMW
HStem: -28.9932 84.9932 642.998 79.002
VStem: 123.999 92.001 311.999 87.001 502.001 92.999
LayerCount: 2
Fore
SplineSet
392 -99 m 0
 390.666992188 -113.666992188 385 -124.993164062 375 -132.993164062 c 0
 365 -140.993164062 353.333007812 -144.993164062 340 -144.993164062 c 0
 327.333007812 -144.993164062 317.833007812 -140.493164062 311.5 -131.493164062 c 0
 306.268554688 -124.05859375 303.65234375 -114.0078125 303.65234375 -101.340820312 c 0
 303.65234375 -98.6748046875 303.768554688 -95.892578125 304 -92.994140625 c 0
 304.888671875 -82.330078125 305.333007812 -69.296875 305.333007812 -53.89453125 c 0
 305.333007812 -46.1875 305.221679688 -37.8876953125 304.999023438 -28.994140625 c 1
 301.999023438 -28.994140625 l 2
 277.999023438 -28.994140625 255.499023438 -25.994140625 234.499023438 -19.994140625 c 0
 213.499023438 -13.994140625 195.499023438 -5.994140625 180.499023438 4.005859375 c 0
 165.499023438 14.005859375 152.499023438 24.6728515625 141.499023438 36.005859375 c 0
 130.499023438 47.3388671875 121.666015625 59.671875 114.999023438 73.0048828125 c 0
 108.999023438 86.5048828125 105.999023438 98.1298828125 105.999023438 107.879882812 c 0
 105.999023438 111.129882812 106.33203125 114.171875 106.999023438 117.004882812 c 0
 109.666015625 128.337890625 116.666015625 136.670898438 127.999023438 142.00390625 c 0
 135.999023438 145.336914062 142.33203125 147.669921875 146.999023438 149.002929688 c 0
 151.666015625 150.3359375 156.833007812 150.668945312 162.5 150.001953125 c 0
 168.166992188 149.334960938 173.666992188 146.66796875 179 142.000976562 c 0
 184.333007812 137.333984375 190 130.666992188 196 122 c 0
 209.333007812 101.333007812 224.666015625 85.166015625 241.999023438 73.4990234375 c 0
 259.33203125 61.83203125 280.33203125 55.9990234375 304.999023438 55.9990234375 c 2
 308.999023438 55.9990234375 l 1
 310.33203125 167.33203125 310.999023438 266.665039062 310.999023438 353.998046875 c 1
 307.666015625 353.998046875 301.833007812 354.665039062 293.5 355.998046875 c 0
 285.166992188 357.331054688 279 357.998046875 275 357.998046875 c 0
 251 360.665039062 229 366.998046875 209 376.998046875 c 0
 189 386.998046875 173.166992188 399.165039062 161.5 413.498046875 c 0
 149.833007812 427.831054688 140.666015625 442.831054688 133.999023438 458.498046875 c 0
 127.33203125 474.165039062 123.999023438 489.998046875 123.999023438 505.998046875 c 0
 123.999023438 529.998046875 127.666015625 552.998046875 134.999023438 574.998046875 c 0
 142.33203125 596.998046875 153.499023438 617.498046875 168.499023438 636.498046875 c 0
 183.499023438 655.498046875 202.999023438 671.831054688 226.999023438 685.498046875 c 0
 250.999023438 699.165039062 279.33203125 708.665039062 311.999023438 713.998046875 c 1
 312.666015625 729.998046875 312.999023438 749.331054688 312.999023438 771.998046875 c 0
 313.666015625 808.665039062 327.333007812 826.998046875 354 826.998046875 c 0
 354.555664062 827.010742188 355.106445312 827.016601562 355.65234375 827.016601562 c 0
 384.55078125 827.016601562 399 809.677734375 399 774.999023438 c 2
 399 721.999023438 l 1
 413.666992188 721.33203125 434.166992188 717.999023438 460.5 711.999023438 c 0
 486.833007812 705.999023438 506.333007812 700.33203125 519 694.999023438 c 0
 531.666992188 690.33203125 540.666992188 682.999023438 546 672.999023438 c 0
 550.266601562 664.999023438 552.399414062 656.572265625 552.399414062 647.71875 c 0
 552.399414062 645.505859375 552.266601562 643.266601562 552 641 c 0
 551.333007812 633 548.833007812 626.833007812 544.5 622.5 c 0
 540.166992188 618.166992188 534.833984375 615.5 528.500976562 614.5 c 0
 522.16796875 613.5 516.16796875 613.333007812 510.500976562 614 c 0
 504.833984375 614.666992188 498.666992188 615.666992188 492 617 c 0
 486 618.333007812 478.5 621.166015625 469.5 625.499023438 c 0
 460.5 629.83203125 450.333007812 633.665039062 439 636.998046875 c 0
 427.666992188 640.331054688 414 642.331054688 398 642.998046875 c 1
 397.333007812 589.665039062 396 518.998046875 394 430.998046875 c 1
 424.666992188 426.998046875 452 419.831054688 476 409.498046875 c 0
 500 399.165039062 519.166992188 387.33203125 533.5 373.999023438 c 0
 547.833007812 360.666015625 560 345.333007812 570 328 c 0
 580 310.666992188 586.666992188 293.666992188 590 277 c 0
 593.333007812 260.333007812 595 243 595 225 c 0
 595 194.333007812 589.833007812 165.333007812 579.5 138 c 0
 569.166992188 110.666992188 554.666992188 87 536 67 c 0
 517.333007812 47 495.666015625 29.6669921875 470.999023438 15 c 0
 446.33203125 0.3330078125 419.33203125 -10.6669921875 389.999023438 -18 c 1
 390.666015625 -58 391.333007812 -85 392 -99 c 0
216 531.006835938 m 0
 216 509.673828125 224.500976562 491.006835938 241.500976562 475.006835938 c 0
 258.500976562 459.006835938 281.66796875 447.673828125 311.000976562 441.006835938 c 1
 311.66796875 487.006835938 312.000976562 551.006835938 312.000976562 633.006835938 c 1
 283.333984375 624.33984375 260.166992188 611.33984375 242.5 594.006835938 c 0
 224.833007812 576.673828125 216 555.673828125 216 531.006835938 c 0
502.000976562 208.006835938 m 0
 502.000976562 220.673828125 500.33203125 232.340820312 496.999023438 243.0078125 c 0
 493.666015625 253.674804688 488.333007812 264.841796875 481 276.508789062 c 0
 473.666992188 288.17578125 462.666992188 299.008789062 448 309.008789062 c 0
 433.333007812 319.008789062 415 327.67578125 393 335.008789062 c 1
 393 305.67578125 392.833007812 261.508789062 392.5 202.508789062 c 0
 392.166992188 143.508789062 391.333984375 100.67578125 390.000976562 74.0087890625 c 1
 422.000976562 87.341796875 448.66796875 105.674804688 470.000976562 129.0078125 c 0
 491.333984375 152.340820312 502.000976562 178.673828125 502.000976562 208.006835938 c 0
EndSplineSet
Validated: 1
EndChar

StartChar: percent
Encoding: 37 37 5
Width: 700
GlyphClass: 2
Flags: HMW
HStem: -28.0313 75.9731 170.999 74 432 75<218.001 226.334 218.001 229> 632 73
VStem: 91.001 71.919 271.063 70.301 358.931 71.992 477.999 88.8789 537.018 71.7321
LayerCount: 2
Fore
SplineSet
207 432 m 0xfe
 183.666992188 432 162.833984375 438.5 144.500976562 451.5 c 0
 126.16796875 464.5 112.66796875 480.833007812 104.000976562 500.5 c 0
 95.333984375 520.166992188 91.0009765625 541.333984375 91.0009765625 564.000976562 c 0
 91.0009765625 605.333984375 102.500976562 639.166992188 125.500976562 665.5 c 0
 148.500976562 691.833007812 181.000976562 705 223.000976562 705 c 0
 239.66796875 705 255.16796875 702.166992188 269.500976562 696.5 c 0
 283.833984375 690.833007812 296.666992188 682.333007812 308 671 c 0
 319.333007812 659.666992188 328 644.166992188 334 624.5 c 0
 338.909179688 608.408203125 341.36328125 590.197265625 341.36328125 569.866210938 c 0
 341.36328125 565.348632812 341.2421875 560.7265625 341 556 c 0
 339 515.333007812 327.166992188 484.5 305.5 463.5 c 0
 283.833007812 442.5 251 432 207 432 c 0xfe
116 19 m 0
 130 47.6669921875 163.16796875 107.833984375 215.500976562 199.500976562 c 0
 267.833984375 291.16796875 320.166992188 383.66796875 372.5 477.000976562 c 0
 424.833007812 570.333984375 460 637.000976562 478 677.000976562 c 0
 486 689.000976562 496.5 696.500976562 509.5 699.500976562 c 0
 513.534179688 700.431640625 517.48828125 700.897460938 521.362304688 700.897460938 c 0
 529.970703125 700.897460938 538.18359375 698.598632812 545.999023438 694.000976562 c 0
 552.669921875 691.036132812 566.877929688 683.4609375 566.877929688 665.655273438 c 0xff
 566.877929688 656.331054688 562.918945312 645.446289062 555 633.001953125 c 0
 530.333007812 592.334960938 471.5 488.66796875 378.5 322.000976562 c 0
 285.5 155.333984375 224 42.6669921875 194 -16 c 0
 181.200195312 -39.630859375 166.764648438 -51.4462890625 150.693359375 -51.4462890625 c 0
 145.000976562 -51.4462890625 139.103515625 -49.9638671875 133.000976562 -47 c 0
 116.069335938 -38.95703125 107.603515625 -27.15234375 107.603515625 -11.5849609375 c 0
 107.603515625 -2.6337890625 110.40234375 7.5615234375 116 19 c 0
218.000976562 507 m 0
 234.66796875 507 247.166992188 512.333007812 255.5 523 c 0
 267.970703125 538.962890625 271.063476562 561.026367188 271.063476562 570.180664062 c 0
 271.063476562 590.727539062 266.375976562 606.000976562 257.000976562 616.000976562 c 0
 247.000976562 626.66796875 233.000976562 632.000976562 215.000976562 632.000976562 c 0
 199.000976562 632.000976562 186.66796875 626.16796875 178.000976562 614.500976562 c 0
 175.083007812 610.572265625 162.920898438 592.4140625 162.920898438 562.6015625 c 0
 162.920898438 546.06640625 166.447265625 533.19921875 173.500976562 524 c 0
 181.16796875 514 196.000976562 508.333007812 218.000976562 507 c 0
474 -28 m 0
 450.666992188 -28 430 -21.5 412 -8.5 c 0
 394 4.5 380.5 20.8330078125 371.5 40.5 c 0
 363.12109375 58.810546875 358.930664062 78.4208984375 358.930664062 99.3310546875 c 0
 358.930664062 122.313476562 360.106445312 167.287109375 393 205.5 c 0
 415.666992188 231.833007812 448 245 490 245 c 0
 506.666992188 245 522.166992188 242.333007812 536.5 237 c 0
 550.833007812 231.666992188 563.833007812 223.166992188 575.5 211.5 c 0
 587.166992188 199.833007812 596 184.166015625 602 164.499023438 c 0
 606.5 149.749023438 608.75 133.217773438 608.75 114.905273438 c 0xfe80
 608.75 108.80078125 608.5 102.499023438 608 95.9990234375 c 0
 606 55.33203125 594.166992188 24.33203125 572.5 2.9990234375 c 0
 551.490234375 -17.6875 519.98046875 -28.0302734375 477.970703125 -28.0302734375 c 0
 476.657226562 -28.0302734375 475.333984375 -28.0205078125 474 -28 c 0
485 48 m 0
 485.915039062 47.9619140625 486.81640625 47.9443359375 487.70703125 47.9443359375 c 0
 502.397460938 47.9443359375 513.828125 53.1298828125 522 63.5009765625 c 0
 523.374023438 65.2451171875 537.017578125 83.193359375 537.017578125 108.302734375 c 0
 537.017578125 150.1015625 519.01171875 171.000976562 483 171.000976562 c 0
 467.666992188 171.000976562 455.5 165.16796875 446.5 153.500976562 c 0
 443.3515625 149.418945312 430.922851562 131.494140625 430.922851562 102.913085938 c 0
 430.922851562 86.8427734375 434.615234375 74.0380859375 442 64.5 c 0
 450 54.1669921875 464.333007812 48.6669921875 485 48 c 0
EndSplineSet
Validated: 1
EndChar

StartChar: ampersand
Encoding: 38 38 6
Width: 700
GlyphClass: 2
Flags: HMW
HStem: -41.998 93.998 -40.3768 21G 645.001 79
VStem: 91.0029 100.997 178.002 95.998 412 83.002
LayerCount: 2
Fore
SplineSet
575 -35 m 0xac
 569.133789062 -38.5849609375 562.91015625 -40.3779296875 556.327148438 -40.3779296875 c 0x6c
 549.443359375 -40.3779296875 542.16796875 -38.41796875 534.5 -34.4990234375 c 0
 519.5 -26.83203125 506.333007812 -13.6650390625 495 5.001953125 c 0
 493.666992188 8.3349609375 489.833984375 18.3349609375 483.500976562 35.001953125 c 0
 477.16796875 51.6689453125 472.334960938 63.6689453125 469.001953125 71.001953125 c 1
 467.001953125 68.3349609375 462.668945312 62.66796875 456.001953125 54.0009765625 c 0
 449.334960938 45.333984375 444.334960938 39.0009765625 441.001953125 35.0009765625 c 0
 437.668945312 31.0009765625 432.3359375 25.0009765625 425.002929688 17.0009765625 c 0
 417.669921875 9.0009765625 411.169921875 2.833984375 405.502929688 -1.4990234375 c 0
 399.8359375 -5.83203125 392.502929688 -10.9990234375 383.502929688 -16.9990234375 c 0
 374.502929688 -22.9990234375 365.8359375 -27.4990234375 357.502929688 -30.4990234375 c 0
 349.169921875 -33.4990234375 339.169921875 -36.166015625 327.502929688 -38.4990234375 c 0
 315.8359375 -40.83203125 304.002929688 -41.9990234375 292.002929688 -41.9990234375 c 0
 254.669921875 -41.9990234375 220.502929688 -32.33203125 189.502929688 -12.9990234375 c 0
 158.502929688 6.333984375 134.3359375 31.6669921875 117.002929688 63 c 0
 99.669921875 94.3330078125 91.0029296875 128.333007812 91.0029296875 165 c 0xb4
 91.0029296875 291 143.002929688 376.666992188 247.002929688 422 c 1
 241.002929688 432 233.8359375 444 225.502929688 458 c 0
 217.169921875 472 211.002929688 481.833007812 207.002929688 487.5 c 0
 203.002929688 493.166992188 198.669921875 500.5 194.002929688 509.5 c 0
 189.3359375 518.5 186.168945312 526.333007812 184.501953125 533 c 0
 182.834960938 539.666992188 181.334960938 547.833984375 180.001953125 557.500976562 c 0
 178.668945312 567.16796875 178.001953125 577.66796875 178.001953125 589.000976562 c 0
 178.001953125 601.000976562 179.501953125 612.833984375 182.501953125 624.500976562 c 0
 185.501953125 636.16796875 191.168945312 648.16796875 199.501953125 660.500976562 c 0
 207.834960938 672.833984375 217.501953125 683.666992188 228.501953125 693 c 0
 239.501953125 702.333007812 254.501953125 709.833007812 273.501953125 715.5 c 0
 292.501953125 721.166992188 314.001953125 724 338.001953125 724 c 0
 357.334960938 724 376.334960938 721 395.001953125 715 c 0
 413.668945312 709 430.501953125 700.166992188 445.501953125 688.5 c 0
 460.501953125 676.833007812 472.501953125 661.5 481.501953125 642.5 c 0
 490.501953125 623.5 495.001953125 602.333007812 495.001953125 579 c 0
 495.001953125 557.666992188 492.334960938 537.833984375 487.001953125 519.500976562 c 0
 481.668945312 501.16796875 474.8359375 485.834960938 466.502929688 473.501953125 c 0
 458.169921875 461.168945312 447.669921875 449.3359375 435.002929688 438.002929688 c 0
 422.3359375 426.669921875 410.668945312 417.669921875 400.001953125 411.002929688 c 0
 389.334960938 404.3359375 377.001953125 397.668945312 363.001953125 391.001953125 c 1
 375.001953125 370.334960938 395.334960938 339.66796875 424.001953125 299.000976562 c 0
 452.668945312 258.333984375 471.001953125 231.333984375 479.001953125 218.000976562 c 1
 483.668945312 227.333984375 489.001953125 238.166992188 495.001953125 250.5 c 0
 501.001953125 262.833007812 505.501953125 272.833007812 508.501953125 280.5 c 0
 511.501953125 288.166992188 514.334960938 293.666992188 517.001953125 297 c 0
 529.001953125 314.333007812 540.501953125 325.166015625 551.501953125 329.499023438 c 0
 555.834960938 331.206054688 560.296875 332.059570312 564.888671875 332.059570312 c 0
 571.953125 332.059570312 579.32421875 330.0390625 587.001953125 325.998046875 c 0
 598.334960938 320.665039062 605.16796875 310.83203125 607.500976562 296.499023438 c 0
 607.99609375 293.458984375 608.243164062 290.336914062 608.243164062 287.131835938 c 0
 608.243164062 275.225585938 604.829101562 262.181640625 598 247.999023438 c 0
 594.666992188 241.999023438 584.666992188 228.666015625 568 207.999023438 c 0
 551.333007812 187.33203125 538 168.33203125 528 150.999023438 c 1
 535.333007812 138.33203125 545.5 120.165039062 558.5 96.498046875 c 0
 571.5 72.8310546875 579.333007812 58.998046875 582 54.998046875 c 0
 590.108398438 42.025390625 594.162109375 27.9560546875 594.162109375 12.7919921875 c 0
 594.162109375 9.25390625 593.94140625 5.65625 593.5 1.9990234375 c 0
 591.166992188 -17.333984375 585 -29.6669921875 575 -35 c 0xac
274.000976562 572 m 0
 274.000976562 555.333007812 278.333984375 537 287.000976562 517 c 0
 295.66796875 497 306.334960938 479.333007812 319.001953125 464 c 1
 333.668945312 468.666992188 346.168945312 473.5 356.501953125 478.5 c 0
 366.834960938 483.5 376.66796875 490 386.000976562 498 c 0
 395.333984375 506 402.000976562 515.833007812 406.000976562 527.5 c 0
 410.000976562 539.166992188 412.000976562 553 412.000976562 569 c 0
 412.000976562 593.666992188 404.500976562 612.5 389.500976562 625.5 c 0
 374.500976562 638.5 356.333984375 645 335.000976562 645 c 0
 294.333984375 645 274.000976562 620.666992188 274.000976562 572 c 0
192.000976562 174 m 0xb4
 192.000976562 139.333007812 201.33203125 110.33203125 219.999023438 86.9990234375 c 0
 238.666015625 63.666015625 262.999023438 51.9990234375 292.999023438 51.9990234375 c 0
 302.33203125 51.9990234375 311.499023438 52.9990234375 320.499023438 54.9990234375 c 0
 329.499023438 56.9990234375 337.166015625 58.9990234375 343.499023438 60.9990234375 c 0
 349.83203125 62.9990234375 356.499023438 66.33203125 363.499023438 70.9990234375 c 0
 370.499023438 75.666015625 375.999023438 79.4990234375 379.999023438 82.4990234375 c 0
 383.999023438 85.4990234375 388.83203125 90.166015625 394.499023438 96.4990234375 c 0
 400.166015625 102.83203125 403.833007812 107.33203125 405.5 109.999023438 c 0
 407.166992188 112.666015625 410.666992188 117.499023438 416 124.499023438 c 0
 421.333007812 131.499023438 424.333007812 135.666015625 425 136.999023438 c 0
 413 162.999023438 403 183.33203125 395 197.999023438 c 0
 387 213.33203125 370.833007812 238.33203125 346.5 272.999023438 c 0
 322.166992188 307.666015625 305 333.333007812 295 350 c 1
 275 341.333007812 257.833007812 330.5 243.5 317.5 c 0
 229.166992188 304.5 218.333984375 290.166992188 211.000976562 274.5 c 0
 203.66796875 258.833007812 198.66796875 243 196.000976562 227 c 0
 193.333984375 211 192.000976562 193.333007812 192.000976562 174 c 0xb4
EndSplineSet
Validated: 1
EndChar

StartChar: quotesingle
Encoding: 39 39 7
Width: 700
GlyphClass: 2
Flags: HMW
HStem: 445.91 325.59
VStem: 297.002 106.332
LayerCount: 2
Fore
SplineSet
403 728 m 0
 403.22265625 719.106445312 403.333984375 708.600585938 403.333984375 696.482421875 c 0
 403.333984375 672.263671875 402.889648438 641.603515625 402.000976562 604.500976562 c 0
 400.66796875 548.833984375 398.334960938 509.333984375 395.001953125 486.000976562 c 0
 393.001953125 472.000976562 387.168945312 461.66796875 377.501953125 455.000976562 c 0
 368.713867188 448.940429688 359.512695312 445.91015625 349.8984375 445.91015625 c 0
 348.936523438 445.91015625 347.970703125 445.940429688 347.000976562 446.000976562 c 0
 333.66796875 446.66796875 321.834960938 451.000976562 311.501953125 459.000976562 c 0
 302.349609375 466.086914062 297.7734375 475.526367188 297.7734375 487.319335938 c 0
 297.7734375 490.916015625 300.251953125 520.942382812 300.251953125 578.998046875 c 0
 300.251953125 589.666015625 300.168945312 600.666992188 300.001953125 612.000976562 c 0
 299.334960938 657.333984375 298.334960938 697.666992188 297.001953125 733 c 0
 297.001953125 741 298.501953125 748 301.501953125 754 c 0
 304.501953125 760 309.168945312 764.166992188 315.501953125 766.5 c 0
 321.834960938 768.833007812 328.001953125 770.5 334.001953125 771.5 c 0
 340.001953125 772.5 346.001953125 772.666992188 352.001953125 772 c 0
 358.001953125 772 363.668945312 771.333007812 369.001953125 770 c 0
 374.334960938 768.666992188 379.66796875 766.5 385.000976562 763.5 c 0
 390.333984375 760.5 394.666992188 756 398 750 c 0
 401.333007812 744 403 736.666992188 403 728 c 0
EndSplineSet
Validated: 1
EndChar

StartChar: parenleft
Encoding: 40 40 8
Width: 700
GlyphClass: 2
Flags: HMW
HStem: -130.998 83.998 733.002 81
VStem: 200.118 97.3819
LayerCount: 2
Fore
SplineSet
498 -93 m 0
 498 -103.666992188 493.66796875 -112.6640625 485.000976562 -119.997070312 c 0
 476.333984375 -127.330078125 467.333984375 -130.997070312 458.000976562 -130.997070312 c 0
 413.333984375 -130.997070312 372.833984375 -114.997070312 336.500976562 -82.9970703125 c 0
 300.16796875 -50.9970703125 270.500976562 -6.6640625 247.500976562 50.0029296875 c 0
 224.500976562 106.669921875 209.66796875 172.002929688 203.000976562 246.002929688 c 0
 201.079101562 266.04296875 200.118164062 288.569335938 200.118164062 313.58203125 c 0
 200.118164062 349.314453125 202.079101562 390.12109375 206.000976562 436.002929688 c 0
 212.66796875 514.002929688 225.66796875 578.3359375 245.000976562 629.002929688 c 0
 253.66796875 651.002929688 265.16796875 672.8359375 279.500976562 694.502929688 c 0
 293.833984375 716.169921875 310.166992188 736.002929688 328.5 754.002929688 c 0
 346.833007812 772.002929688 367.5 786.502929688 390.5 797.502929688 c 0
 413.5 808.502929688 436.333007812 814.002929688 459 814.002929688 c 0
 485.681640625 814.002929688 499.022460938 800.979492188 499.022460938 774.93359375 c 0
 499.022460938 767.493164062 498.876953125 751.90625 486.999023438 742.502929688 c 0
 478.999023438 736.169921875 468.999023438 733.002929688 456.999023438 733.002929688 c 0
 439.666015625 733.002929688 423.499023438 728.002929688 408.499023438 718.002929688 c 0
 393.499023438 708.002929688 380.33203125 694.3359375 368.999023438 677.002929688 c 0
 357.666015625 659.669921875 347.833007812 640.669921875 339.5 620.002929688 c 0
 331.166992188 599.3359375 324 577.002929688 318 553.002929688 c 0
 309.333007812 518.3359375 303.333007812 470.668945312 300 410.001953125 c 0
 298.333984375 379.66796875 297.500976562 352.16796875 297.500976562 327.500976562 c 0
 297.500976562 302.833984375 298.333984375 281.000976562 300 262.000976562 c 0
 303.333007812 221.333984375 310.5 181.833984375 321.5 143.500976562 c 0
 332.5 105.16796875 345.333007812 72.16796875 360 44.5009765625 c 0
 374.666992188 16.833984375 390.666992188 -5.3330078125 408 -22 c 0
 425.333007812 -38.6669921875 442 -47 458 -47 c 0
 471.333007812 -47 481.333007812 -50.3330078125 488 -57 c 0
 494.666992188 -63.6669921875 498 -75.6669921875 498 -93 c 0
EndSplineSet
Validated: 1
EndChar

StartChar: parenright
Encoding: 41 41 9
Width: 700
GlyphClass: 2
Flags: HMW
HStem: -131.005 84 732.998 81.002
VStem: 400.634 99.2482
LayerCount: 2
Fore
SplineSet
497 246 m 0
 489.666992188 172 474.50390625 106.662109375 451.50390625 49.9951171875 c 0
 428.50390625 -6.671875 399.00390625 -51.0048828125 363.00390625 -83.0048828125 c 0
 327.00390625 -115.004882812 286.670898438 -131.004882812 242.00390625 -131.004882812 c 0
 232.670898438 -131.004882812 223.670898438 -127.337890625 215.00390625 -120.004882812 c 0
 206.336914062 -112.671875 202.00390625 -103.671875 202.00390625 -93.0048828125 c 0
 202.00390625 -75.671875 205.50390625 -63.671875 212.50390625 -57.0048828125 c 0
 219.50390625 -50.337890625 229.336914062 -47.0048828125 242.00390625 -47.0048828125 c 0
 257.336914062 -47.0048828125 273.50390625 -38.671875 290.50390625 -22.0048828125 c 0
 307.50390625 -5.337890625 323.336914062 16.8291015625 338.00390625 44.49609375 c 0
 352.670898438 72.1630859375 365.670898438 105.330078125 377.00390625 143.997070312 c 0
 388.336914062 182.6640625 395.336914062 221.997070312 398.00390625 261.997070312 c 0
 399.7578125 281.998046875 400.634765625 305.137695312 400.634765625 331.416992188 c 0
 400.634765625 355.067382812 399.923828125 381.260742188 398.502929688 409.997070312 c 0
 395.502929688 470.6640625 389.3359375 518.331054688 380.002929688 552.998046875 c 0
 374.669921875 576.998046875 368.002929688 599.331054688 360.002929688 619.998046875 c 0
 352.002929688 640.665039062 342.169921875 659.665039062 330.502929688 676.998046875 c 0
 318.8359375 694.331054688 305.668945312 707.998046875 291.001953125 717.998046875 c 0
 276.334960938 727.998046875 260.66796875 732.998046875 244.000976562 732.998046875 c 0
 231.333984375 732.998046875 221.000976562 736.165039062 213.000976562 742.498046875 c 0
 205.000976562 748.831054688 201.000976562 758.998046875 201.000976562 772.998046875 c 0
 201.000976562 781.665039062 202.000976562 788.83203125 204.000976562 794.499023438 c 0
 206.000976562 800.166015625 209.500976562 804.333007812 214.500976562 807 c 0
 219.500976562 809.666992188 223.833984375 811.5 227.500976562 812.5 c 0
 231.16796875 813.5 235.66796875 814 241.000976562 814 c 0
 263.66796875 814 286.500976562 808.5 309.500976562 797.5 c 0
 332.500976562 786.5 353.000976562 772 371.000976562 754 c 0
 389.000976562 736 405.16796875 716.166992188 419.500976562 694.5 c 0
 433.833984375 672.833007812 445.666992188 651 455 629 c 0
 474.333007812 578.333007812 487.333007812 514 494 436 c 0
 497.921875 390.118164062 499.8828125 349.311523438 499.8828125 313.579101562 c 0
 499.8828125 288.56640625 498.921875 266.040039062 497 246 c 0
EndSplineSet
Validated: 1
EndChar

StartChar: asterisk
Encoding: 42 42 10
Width: 700
GlyphClass: 2
Flags: HMW
HStem: 292.998 103.999 306.499 76.5001
LayerCount: 2
Fore
SplineSet
297 139 m 0x40
 294.333007812 131 289.830078125 124.999023438 283.497070312 120.999023438 c 0
 277.1640625 116.999023438 270.1640625 114.666015625 262.497070312 113.999023438 c 0
 254.830078125 113.33203125 247.497070312 113.83203125 240.497070312 115.499023438 c 0
 233.497070312 117.166015625 227.330078125 119.333007812 221.997070312 122 c 0
 215.997070312 125.333007812 210.997070312 130.166015625 206.997070312 136.499023438 c 0
 202.997070312 142.83203125 200.330078125 150.665039062 198.997070312 159.998046875 c 0
 197.6640625 169.331054688 199.6640625 178.998046875 204.997070312 188.998046875 c 2
 271.997070312 297.998046875 l 1
 217.330078125 294.665039062 176.997070312 292.998046875 150.997070312 292.998046875 c 0
 134.997070312 292.998046875 122.330078125 298.331054688 112.997070312 308.998046875 c 0
 103.6640625 319.665039062 98.9970703125 330.998046875 98.9970703125 342.998046875 c 0
 98.9970703125 348.998046875 99.830078125 355.165039062 101.497070312 361.498046875 c 0
 103.1640625 367.831054688 105.6640625 373.831054688 108.997070312 379.498046875 c 0
 112.330078125 385.165039062 117.497070312 389.665039062 124.497070312 392.998046875 c 0
 131.497070312 396.331054688 139.330078125 397.6640625 147.997070312 396.997070312 c 0x80
 178.6640625 394.330078125 223.997070312 390.997070312 283.997070312 386.997070312 c 1
 255.330078125 435.6640625 231.663085938 472.997070312 212.99609375 498.997070312 c 0
 205.077148438 512.006835938 201.118164062 524.776367188 201.118164062 537.306640625 c 0
 201.118164062 539.544921875 201.244140625 541.775390625 201.497070312 543.998046875 c 0
 203.1640625 558.665039062 209.331054688 568.33203125 219.998046875 572.999023438 c 0
 225.998046875 576.999023438 233.498046875 579.166015625 242.498046875 579.499023438 c 0
 251.498046875 579.83203125 260.665039062 577.33203125 269.998046875 571.999023438 c 0
 279.331054688 566.666015625 286.6640625 558.666015625 291.997070312 547.999023438 c 0
 299.330078125 531.999023438 318.997070312 493.666015625 350.997070312 432.999023438 c 1
 377.6640625 478.33203125 397.6640625 516.33203125 410.997070312 546.999023438 c 0
 415.6640625 557.666015625 422.497070312 565.666015625 431.497070312 570.999023438 c 0
 440.497070312 576.33203125 449.1640625 578.83203125 457.497070312 578.499023438 c 0
 465.830078125 578.166015625 472.997070312 575.666015625 478.997070312 570.999023438 c 0
 485.6640625 567.666015625 491.1640625 562.333007812 495.497070312 555 c 0
 499.830078125 547.666992188 501.997070312 539 501.997070312 529 c 0
 501.997070312 519 498.6640625 509.333007812 491.997070312 500 c 0
 470.6640625 468.666992188 447.331054688 429.666992188 421.998046875 383 c 1
 479.998046875 383 521.331054688 386.666992188 545.998046875 394 c 0
 550.665039062 395.485351562 555.12890625 396.227539062 559.390625 396.227539062 c 0
 568.5234375 396.227539062 576.7265625 392.818359375 583.999023438 386 c 0
 594.666015625 376 600.333007812 365.333007812 601 354 c 0
 601 348 600.333007812 342 599 336 c 0
 597.666992188 330 595.333984375 324 592.000976562 318 c 0
 588.66796875 312 584.000976562 307.333007812 578.000976562 304 c 0
 572.000976562 300.666992188 564.66796875 300 556.000976562 302 c 0
 539 305 509.811523438 306.5 468.435546875 306.5 c 0
 454.64453125 306.5 439.499023438 306.333007812 423 306 c 1
 490 190 l 2
 495.974609375 177.506835938 498.961914062 166.23046875 498.961914062 156.170898438 c 0
 498.961914062 153.883789062 498.807617188 151.66015625 498.499023438 149.499023438 c 0
 496.83203125 137.83203125 491.999023438 129.33203125 483.999023438 123.999023438 c 0
 477.33203125 119.999023438 468.83203125 117.666015625 458.499023438 116.999023438 c 0
 457.20703125 116.916015625 455.915039062 116.874023438 454.623046875 116.874023438 c 2
 427.5 122.999023438 l 2
 417.166992188 127.666015625 410.666992188 135.333007812 408 146 c 0
 399.333007812 172.666992188 381.666015625 211 354.999023438 261 c 1
 323.666015625 199.666992188 304.333007812 159 297 139 c 0x40
EndSplineSet
Validated: 1
EndChar

StartChar: plus
Encoding: 43 43 11
Width: 700
GlyphClass: 2
Flags: HMW
HStem: 359.8 79.1992
VStem: 308.003 80.9971
LayerCount: 2
Fore
SplineSet
389 250 m 0
 389 234.666992188 385.670898438 223.833007812 379.00390625 217.5 c 0
 372.336914062 211.166992188 363.00390625 208 351.00390625 208 c 0
 322.336914062 208 308.00390625 222 308.00390625 250 c 2
 308.00390625 357 l 1
 294.670898438 357 276.670898438 356.833007812 254.00390625 356.5 c 0
 231.336914062 356.166992188 215.669921875 356 207.002929688 356 c 0
 190.3359375 356 178.002929688 360.166992188 170.002929688 368.5 c 0
 158.362304688 380.625 157.92578125 393.616210938 157.92578125 401.888671875 c 0
 157.92578125 413.296875 161.618164062 423.000976562 169.002929688 431.000976562 c 0
 176.431640625 439.048828125 187.595703125 443.072265625 202.49609375 443.072265625 c 0
 203.642578125 443.072265625 204.811523438 443.048828125 206.002929688 443.000976562 c 0
 252.669921875 441.66796875 286.669921875 441.000976562 308.002929688 441.000976562 c 1
 308.002929688 499.8203125 305.91796875 548.575195312 305.91796875 552.581054688 c 0
 305.91796875 578.860351562 320.279296875 592 349.002929688 592 c 0
 350.336914062 592.06640625 351.645507812 592.099609375 352.928710938 592.099609375 c 0
 364.477539062 592.099609375 374.001953125 589.399414062 381.500976562 584 c 0
 388.684570312 578.827148438 392.276367188 569.69140625 392.276367188 556.590820312 c 0
 392.276367188 554.495117188 392.184570312 552.297851562 392.000976562 549.999023438 c 0
 390.000976562 511.33203125 389.000976562 474.33203125 389.000976562 438.999023438 c 1
 499.000976562 438.999023438 l 2
 514.333984375 438.999023438 525.166992188 435.666015625 531.5 428.999023438 c 0
 537.833007812 422.33203125 541.333007812 413.33203125 542 401.999023438 c 0
 542 395.999023438 541.333007812 390.499023438 540 385.499023438 c 0
 538.666992188 380.499023438 536.666992188 375.666015625 534 370.999023438 c 0
 531.333007812 366.33203125 527 362.83203125 521 360.499023438 c 0
 515 358.166015625 507.666992188 357.333007812 499 358 c 0
 488.600585938 359.200195312 471.12109375 359.799804688 446.561523438 359.799804688 c 0
 430.1875 359.799804688 410.666992188 359.533203125 388 359 c 1
 388 341 388.166992188 319.666992188 388.5 295 c 0
 388.833007812 270.333007812 389 255.333007812 389 250 c 0
EndSplineSet
Validated: 1
EndChar

StartChar: comma
Encoding: 44 44 12
Width: 700
GlyphClass: 2
Flags: HMW
VStem: 247.499 204.501
LayerCount: 2
Fore
SplineSet
452 96 m 0
 445.333007812 63.3330078125 431 12.9990234375 409 -55.0009765625 c 0
 387 -123.000976562 370 -165.000976562 358 -181.000976562 c 0
 347.333007812 -195.000976562 333.833007812 -205.000976562 317.5 -211.000976562 c 0
 307.700195312 -214.600585938 298.80078125 -216.400390625 290.80078125 -216.400390625 c 0
 285.467773438 -216.400390625 280.534179688 -215.600585938 276.000976562 -214.000976562 c 0
 269.333984375 -212.000976562 263.166992188 -208.000976562 257.5 -202.000976562 c 0
 251.833007812 -196.000976562 248.5 -188.66796875 247.5 -180.000976562 c 0
 246.5 -171.333984375 249 -162.333984375 255 -153.000976562 c 0
 269 -133.000976562 288.333007812 -89.0009765625 313 -21.0009765625 c 0
 337.666992188 46.9990234375 352.666992188 94.33203125 358 120.999023438 c 0
 360 130.33203125 364.666992188 137.665039062 372 142.998046875 c 0
 379.333007812 148.331054688 387 150.998046875 395 150.998046875 c 0
 403 150.998046875 411 150.331054688 419 148.998046875 c 0
 429.666992188 145.665039062 438.333984375 139.33203125 445.000976562 129.999023438 c 0
 450.12890625 122.8203125 452.692382812 114.458007812 452.692382812 104.912109375 c 0
 452.692382812 102.047851562 452.461914062 99.0771484375 452 96 c 0
EndSplineSet
Validated: 1
EndChar

StartChar: hyphen
Encoding: 45 45 13
Width: 700
GlyphClass: 2
Flags: HMW
HStem: 243 87<224.667 250.333> 251 82<458.001 468.667 458.001 475.333>
VStem: 195.809 308.191
LayerCount: 2
Fore
SplineSet
237 330 m 0xa0
 275 330 320.333984375 330.5 373.000976562 331.5 c 0
 425.66796875 332.5 455.000976562 333 461.000976562 333 c 0
 476.333984375 333 487.166992188 329.5 493.5 322.5 c 0
 499.833007812 315.5 503.333007812 306.333007812 504 295 c 0
 504 265.666992188 489.666992188 251 461 251 c 0x60
 452.333007812 251 418.833007812 249.666992188 360.5 247 c 0
 302.166992188 244.333007812 261.666992188 243 239 243 c 0
 210.333007812 243 196 257.333007812 196 286 c 0
 195.872070312 287.872070312 195.80859375 289.684570312 195.80859375 291.4375 c 0
 195.80859375 317.145507812 209.5390625 330 237 330 c 0xa0
EndSplineSet
Validated: 1
EndChar

StartChar: period
Encoding: 46 46 14
Width: 700
GlyphClass: 2
Flags: HMW
HStem: -14.5617 154.604
VStem: 267.999 164.001
LayerCount: 2
Fore
SplineSet
352 -14 m 0
 348.536132812 -14.3740234375 345.161132812 -14.5615234375 341.875 -14.5615234375 c 0
 321.7578125 -14.5615234375 304.965820312 -7.5439453125 291.499023438 6.49609375 c 0
 275.83203125 22.8291015625 267.999023438 41.99609375 267.999023438 63.99609375 c 0
 267.999023438 84.6630859375 276.83203125 102.330078125 294.499023438 116.997070312 c 0
 312.166015625 131.6640625 331.333007812 139.331054688 352 139.998046875 c 0
 353.037109375 140.02734375 354.06640625 140.041992188 355.087890625 140.041992188 c 0
 377.029296875 140.041992188 395.166992188 133.194335938 409.5 119.499023438 c 0
 424.5 105.166015625 432 86.9990234375 432 64.9990234375 c 0
 432 43.666015625 424.666992188 25.8330078125 410 11.5 c 0
 395.333007812 -2.8330078125 376 -11.3330078125 352 -14 c 0
EndSplineSet
Validated: 1
EndChar

StartChar: slash
Encoding: 47 47 15
Width: 700
GlyphClass: 2
Flags: W
LayerCount: 2
Fore
SplineSet
591 676 m 0
 573.666992188 642 525 558.49609375 445 425.49609375 c 0
 365 292.49609375 316.333007812 209.99609375 299 177.99609375 c 0
 288.333007812 157.329101562 271 122.329101562 247 72.99609375 c 0
 223 23.6630859375 208 -6.3369140625 202 -17.00390625 c 0
 191.333007812 -35.6708984375 177.833007812 -48.6708984375 161.5 -56.00390625 c 0
 153.333007812 -59.669921875 145.708007812 -61.5029296875 138.625 -61.5029296875 c 0
 131.541992188 -61.5029296875 125 -59.669921875 119 -56.0029296875 c 0
 109 -50.669921875 103 -38.3369140625 101 -19.00390625 c 0
 100.647460938 -15.5927734375 100.470703125 -12.2333984375 100.470703125 -8.92578125 c 0
 100.470703125 6.51171875 104.314453125 20.8193359375 112.000976562 33.99609375 c 0
 209.333984375 193.99609375 292.666992188 336.329101562 362 460.99609375 c 0
 405.333007812 537.663085938 451.333007812 624.330078125 500 720.997070312 c 0
 505.333007812 731.6640625 512.666015625 739.831054688 521.999023438 745.498046875 c 0
 531.33203125 751.165039062 540.33203125 753.83203125 548.999023438 753.499023438 c 0
 557.666015625 753.166015625 566.333007812 751.333007812 575 748 c 0
 587 742 594.666992188 732.666992188 598 720 c 0
 598.98046875 716.274414062 599.470703125 712.375976562 599.470703125 708.3046875 c 0
 599.470703125 698.533203125 596.647460938 687.764648438 591 676 c 0
EndSplineSet
Validated: 1
EndChar

StartChar: zero
Encoding: 48 48 16
Width: 700
GlyphClass: 2
Flags: HMW
HStem: -24 83.999 636.999 81.001
VStem: 114.002 95.502 489.006 96.8403
LayerCount: 2
Fore
SplineSet
328 -24 m 0
 296.666992188 -24 267.8359375 -18.33203125 241.502929688 -6.9990234375 c 0
 215.169921875 4.333984375 192.669921875 20.0009765625 174.002929688 40.0009765625 c 0
 155.3359375 60.0009765625 140.668945312 85.0009765625 130.001953125 115.000976562 c 0
 119.962890625 143.235351562 114.943359375 174.126953125 114.943359375 207.67578125 c 0
 114.943359375 209.7734375 114.962890625 211.881835938 115.001953125 214 c 0
 115.001953125 220.666992188 114.834960938 237.166992188 114.501953125 263.5 c 0
 114.168945312 289.833007812 114.001953125 310.833007812 114.001953125 326.5 c 0
 114.001953125 342.166992188 114.501953125 363.833984375 115.501953125 391.500976562 c 0
 116.501953125 419.16796875 118.334960938 443.000976562 121.001953125 463.000976562 c 0
 123.668945312 483.000976562 127.168945312 504.500976562 131.501953125 527.500976562 c 0
 135.834960938 550.500976562 141.66796875 570.66796875 149.000976562 588.000976562 c 0
 165.000976562 630.000976562 192.000976562 662.16796875 230.000976562 684.500976562 c 0
 268.000976562 706.833984375 314.333984375 718.000976562 369.000976562 718.000976562 c 0
 396.333984375 718.000976562 422.000976562 713.333984375 446.000976562 704.000976562 c 0
 470.000976562 694.66796875 491.333984375 681.000976562 510.000976562 663.000976562 c 0
 528.66796875 645.000976562 544.16796875 621.66796875 556.500976562 593.000976562 c 0
 568.833984375 564.333984375 576.666992188 531.333984375 580 494.000976562 c 0
 582.666992188 460.66796875 584.5 422.834960938 585.5 380.501953125 c 0
 585.73046875 370.733398438 585.845703125 360.947265625 585.845703125 351.143554688 c 0
 585.845703125 318.459960938 584.563476562 285.579101562 582 252.500976562 c 0
 578.666992188 209.500976562 574 176.66796875 568 154.000976562 c 0
 562 131.333984375 555.333007812 111.333984375 548 94.0009765625 c 0
 540.666992188 76.66796875 532.833984375 61.66796875 524.500976562 49.0009765625 c 0
 516.16796875 36.333984375 506.834960938 25.6669921875 496.501953125 17 c 0
 486.168945312 8.3330078125 475.168945312 1.3330078125 463.501953125 -4 c 0
 451.834960938 -9.3330078125 438.66796875 -13.5 424.000976562 -16.5 c 0
 409.333984375 -19.5 394.666992188 -21.5 380 -22.5 c 0
 365.333007812 -23.5 348 -24 328 -24 c 0
213.001953125 230.000976562 m 0
 213.001953125 227.333984375 213.172851562 223.333984375 213.505859375 218.000976562 c 0
 213.838867188 212.66796875 214.005859375 209.000976562 214.005859375 207.000976562 c 1
 303.338867188 329.000976562 383.671875 454.333984375 455.004882812 583.000976562 c 1
 443.004882812 600.333984375 428.337890625 613.666992188 411.004882812 623 c 0
 393.671875 632.333007812 375.004882812 637 355.004882812 637 c 0
 317.671875 637 288.504882812 626.666992188 267.504882812 606 c 0
 246.504882812 585.333007812 230.671875 552 220.004882812 506 c 0
 216.004882812 489.333007812 213.171875 469.833007812 211.504882812 447.5 c 0
 210.115234375 428.885742188 209.420898438 407.029296875 209.420898438 381.930664062 c 0
 209.420898438 376.916992188 209.448242188 371.7734375 209.50390625 366.500976562 c 0
 209.836914062 334.833984375 210.169921875 312.500976562 210.502929688 299.500976562 c 0
 210.8359375 286.500976562 211.668945312 263.333984375 213.001953125 230.000976562 c 0
474.005859375 168.000976562 m 0
 476.672851562 176.000976562 479.505859375 198 482.505859375 234 c 0
 485.505859375 270 487.672851562 311.166992188 489.005859375 357.5 c 0
 489.38671875 370.736328125 489.577148438 383.823242188 489.577148438 396.760742188 c 0
 489.577148438 429.109375 488.38671875 460.522460938 486.005859375 491 c 1
 414.672851562 344.333007812 330.672851562 221.333007812 234.005859375 122 c 1
 252.005859375 80.6669921875 283.338867188 60 328.005859375 60 c 0
 346.005859375 60 362.172851562 61.5 376.505859375 64.5 c 0
 390.838867188 67.5 404.505859375 72.8330078125 417.505859375 80.5 c 0
 430.505859375 88.1669921875 441.505859375 99.333984375 450.505859375 114.000976562 c 0
 459.505859375 128.66796875 467.338867188 146.66796875 474.005859375 168.000976562 c 0
EndSplineSet
Validated: 1
EndChar

StartChar: one
Encoding: 49 49 17
Width: 700
GlyphClass: 2
Flags: HMW
HStem: -9 85.5 -5 89<143.002 166.002 143.002 166.002> 511.539 21G
VStem: 302.335 96.6644 312.001 91.498
LayerCount: 2
Fore
SplineSet
593.080078125 34.8388671875 m 0xb0
 593.080078125 22.892578125 589.5546875 12.779296875 582.501953125 4.5 c 0
 574.834960938 -4.5 561.334960938 -9 542.001953125 -9 c 0xb0
 533.334960938 -9 473.834960938 -8.3330078125 363.501953125 -7 c 0
 253.168945312 -5.6669921875 182.001953125 -5 150.001953125 -5 c 0
 135.334960938 -5 124.501953125 -1 117.501953125 7 c 0
 110.501953125 15 107.001953125 25.3330078125 107.001953125 38 c 0
 106.944335938 39.16015625 106.915039062 40.302734375 106.915039062 41.4267578125 c 0
 106.915039062 53.2294921875 110.111328125 63.0869140625 116.501953125 71 c 0
 123.501953125 79.6669921875 135.001953125 84 151.001953125 84 c 0
 181.001953125 84 232.001953125 83.6669921875 304.001953125 83 c 1
 304.001953125 109.666992188 303.668945312 131 303.001953125 147 c 0
 302.556640625 150.556640625 302.333984375 159.600585938 302.333984375 174.131835938 c 0x70
 302.333984375 181.38671875 302.389648438 190.009765625 302.500976562 200 c 0
 302.833984375 230 303.000976562 251.666992188 303.000976562 265 c 0
 303.000976562 278.333007812 303.66796875 303 305.000976562 339 c 0
 306.333984375 375 307.333984375 401.833007812 308.000976562 419.5 c 0
 308.66796875 437.166992188 310.000976562 465.166992188 312.000976562 503.5 c 0
 314.000976562 541.833007812 315.333984375 570 316.000976562 588 c 1
 266.66796875 546.666992188 230.66796875 522 208.000976562 514 c 0
 203.8984375 512.359375 199.780273438 511.5390625 195.646484375 511.5390625 c 0
 186.344726562 511.5390625 176.962890625 515.692382812 167.500976562 524 c 0
 154.469726562 535.44140625 147.954101562 546.8828125 147.954101562 558.32421875 c 0
 147.954101562 558.8828125 147.969726562 559.44140625 148.000976562 560 c 0
 148.000976562 570.666992188 150.333984375 580.166992188 155.000976562 588.5 c 0
 159.66796875 596.833007812 168.000976562 605.333007812 180.000976562 614 c 0
 199.333984375 628.666992188 219.666992188 644.833984375 241 662.500976562 c 0
 262.333007812 680.16796875 277.666015625 693.000976562 286.999023438 701.000976562 c 0
 296.33203125 709.000976562 305.999023438 715.833984375 315.999023438 721.500976562 c 0
 325.999023438 727.16796875 334.666015625 730.000976562 341.999023438 730.000976562 c 0
 355.999023438 730.000976562 370.666015625 724.000976562 385.999023438 712.000976562 c 0
 401.33203125 700.000976562 408.999023438 690.000976562 408.999023438 682.000976562 c 0
 408.999023438 666.66796875 407.166015625 612.16796875 403.499023438 518.500976562 c 0x68
 399.83203125 424.833984375 397.999023438 370.000976562 397.999023438 354.000976562 c 0
 397.999023438 287.333984375 398.33203125 231.666992188 398.999023438 187 c 0
 398.999023438 162.333007812 399.666015625 126.333007812 400.999023438 79 c 1
 420.33203125 79 440.665039062 78.6669921875 461.998046875 78 c 0
 483.331054688 77.3330078125 500.831054688 76.8330078125 514.498046875 76.5 c 0
 528.165039062 76.1669921875 537.998046875 76 543.998046875 76 c 0
 562.665039062 76 575.33203125 72.5 581.999023438 65.5 c 0
 587.423828125 59.8046875 593.080078125 50.1865234375 593.080078125 34.8388671875 c 0xb0
EndSplineSet
Validated: 1
EndChar

StartChar: two
Encoding: 50 50 18
Width: 700
GlyphClass: 2
Flags: HMW
HStem: -18.0049 84.0049 -14.0059 91.0059 637.997 83.999
VStem: 117.002 99.9971 470.001 98.9971
LayerCount: 2
Fore
SplineSet
550 -12 m 0x78
 522 -12 487.169921875 -12.6728515625 445.502929688 -14.005859375 c 0x78
 403.8359375 -15.3388671875 367.002929688 -16.671875 335.002929688 -18.0048828125 c 0
 303.002929688 -19.337890625 270.169921875 -20.0048828125 236.502929688 -20.0048828125 c 0
 202.8359375 -20.0048828125 176.668945312 -18.671875 158.001953125 -16.0048828125 c 0
 143.334960938 -14.671875 132.834960938 -5.671875 126.501953125 10.9951171875 c 0
 120.168945312 27.662109375 117.001953125 51.662109375 117.001953125 82.9951171875 c 0
 117.001953125 111.662109375 123.168945312 141.829101562 135.501953125 173.49609375 c 0
 147.834960938 205.163085938 166.001953125 235.49609375 190.001953125 264.49609375 c 0
 214.001953125 293.49609375 242.001953125 316.99609375 274.001953125 334.99609375 c 0
 345.334960938 374.99609375 391.334960938 402.99609375 412.001953125 418.99609375 c 0
 439.334960938 440.329101562 456.66796875 462.99609375 464.000976562 486.99609375 c 0
 468.000976562 500.99609375 470.000976562 518.329101562 470.000976562 538.99609375 c 0
 470.000976562 573.663085938 459.833984375 598.830078125 439.500976562 614.497070312 c 0
 419.16796875 630.1640625 390.334960938 637.997070312 353.001953125 637.997070312 c 0
 327.001953125 637.997070312 302.168945312 629.997070312 278.501953125 613.997070312 c 0
 254.834960938 597.997070312 236.66796875 580.330078125 224.000976562 560.997070312 c 0
 218.000976562 552.330078125 212.333984375 545.497070312 207.000976562 540.497070312 c 0
 201.66796875 535.497070312 196.000976562 532.6640625 190.000976562 531.997070312 c 0
 184.000976562 531.330078125 178.66796875 531.663085938 174.000976562 532.99609375 c 0
 169.333984375 534.329101562 163.000976562 536.662109375 155.000976562 539.995117188 c 0
 143.66796875 545.995117188 136.66796875 554.662109375 134.000976562 565.995117188 c 0
 133.333984375 568.828125 133.000976562 571.870117188 133.000976562 575.120117188 c 0
 133.000976562 584.870117188 136.000976562 596.495117188 142.000976562 609.995117188 c 0
 148.66796875 622.662109375 158.66796875 635.329101562 172.000976562 647.99609375 c 0
 185.333984375 660.663085938 200.666992188 672.663085938 218 683.99609375 c 0
 235.333007812 695.329101562 255.666015625 704.49609375 278.999023438 711.49609375 c 0
 302.33203125 718.49609375 325.665039062 721.99609375 348.998046875 721.99609375 c 0
 420.998046875 721.99609375 475.665039062 705.329101562 512.998046875 671.99609375 c 0
 550.331054688 638.663085938 568.998046875 588.663085938 568.998046875 521.99609375 c 0
 568.998046875 466.663085938 554.998046875 422.330078125 526.998046875 388.997070312 c 0
 506.331054688 364.330078125 468.998046875 336.997070312 414.998046875 306.997070312 c 0
 401.665039062 298.997070312 378.665039062 286.6640625 345.998046875 269.997070312 c 0
 317.331054688 254.6640625 293.331054688 235.831054688 273.998046875 213.498046875 c 0
 254.665039062 191.165039062 240.83203125 168.33203125 232.499023438 144.999023438 c 0
 224.166015625 121.666015625 218.999023438 96.3330078125 216.999023438 69 c 1
 254.33203125 67 290.33203125 66 324.999023438 66 c 0xb8
 359.666015625 66 386.666015625 66.5 405.999023438 67.5 c 0
 425.33203125 68.5 447.665039062 70 472.998046875 72 c 0
 498.331054688 74 514.998046875 75.3330078125 522.998046875 76 c 0
 523.665039062 76 526.83203125 76.1669921875 532.499023438 76.5 c 0
 538.166015625 76.8330078125 541.999023438 77 543.999023438 77 c 2
 553.999023438 77 l 2
 558.666015625 77 562.166015625 76.3330078125 564.499023438 75 c 0
 566.83203125 73.6669921875 569.499023438 72 572.499023438 70 c 0
 575.499023438 68 577.83203125 65.3330078125 579.499023438 62 c 0
 581.166015625 58.6669921875 582.333007812 54.6669921875 583 50 c 0
 583.666992188 42 583.333984375 33.5 582.000976562 24.5 c 0
 580.66796875 15.5 577.16796875 7.1669921875 571.500976562 -0.5 c 0
 565.833984375 -8.1669921875 558.666992188 -12 550 -12 c 0x78
EndSplineSet
Validated: 1
EndChar

StartChar: three
Encoding: 51 51 19
Width: 700
GlyphClass: 2
Flags: HMW
HStem: -23.9941 84 318.006 100 638.006 83.998
VStem: 457.02 99.0491 479.002 99.998
LayerCount: 2
Fore
SplineSet
579 199 m 0xe8
 579 130.333007812 557.830078125 76.0078125 515.497070312 36.0078125 c 0
 473.1640625 -3.9921875 413.6640625 -23.9921875 336.997070312 -23.9921875 c 0
 313.6640625 -23.9921875 290.331054688 -20.4921875 266.998046875 -13.4921875 c 0
 243.665039062 -6.4921875 223.498046875 2.5078125 206.498046875 13.5078125 c 0
 189.498046875 24.5078125 174.331054688 36.5078125 160.998046875 49.5078125 c 0
 147.665039062 62.5078125 137.33203125 75.3408203125 129.999023438 88.0078125 c 0
 123.999023438 99.5078125 120.999023438 110.2578125 120.999023438 120.2578125 c 0
 120.999023438 123.590820312 121.33203125 126.840820312 121.999023438 130.0078125 c 0
 124.666015625 142.674804688 131.999023438 151.674804688 143.999023438 157.0078125 c 0
 153.194335938 161.60546875 161.755859375 163.904296875 169.682617188 163.904296875 c 0
 173.25 163.904296875 176.689453125 163.438476562 180 162.5078125 c 0
 190.666992188 159.5078125 201.333984375 151.0078125 212.000976562 137.0078125 c 0
 226.66796875 117.0078125 245.334960938 99.1748046875 268.001953125 83.5078125 c 0
 290.668945312 67.8408203125 315.001953125 60.0078125 341.001953125 60.0078125 c 0
 381.001953125 60.0078125 414.001953125 71.3408203125 440.001953125 94.0078125 c 0
 466.001953125 116.674804688 479.001953125 146.0078125 479.001953125 182.0078125 c 0xe8
 479.001953125 204.0078125 475.668945312 223.0078125 469.001953125 239.0078125 c 0
 462.334960938 255.0078125 451.66796875 269.0078125 437.000976562 281.0078125 c 0
 422.333984375 293.0078125 402.166992188 302.174804688 376.5 308.5078125 c 0
 350.833007812 314.840820312 321 318.0078125 287 318.0078125 c 0
 273 318.0078125 260.833007812 323.5078125 250.5 334.5078125 c 0
 240.166992188 345.5078125 235 357.674804688 235 371.0078125 c 0
 235 385.0078125 238.666992188 396.340820312 246 405.0078125 c 0
 253.333007812 413.674804688 264 418.0078125 278 418.0078125 c 0
 334 418.0078125 378 429.174804688 410 451.5078125 c 0
 441.346679688 473.384765625 457.020507812 505.017578125 457.020507812 546.407226562 c 0
 457.020507812 547.26953125 457.013671875 548.13671875 457 549.0078125 c 0
 457.01953125 549.903320312 457.029296875 550.791992188 457.029296875 551.673828125 c 0
 457.029296875 580.333984375 446.51953125 601.778320312 425.5 616.006835938 c 0
 403.833007812 630.673828125 372.666015625 638.006835938 331.999023438 638.006835938 c 0
 323.999023438 638.006835938 316.166015625 637.173828125 308.499023438 635.506835938 c 0
 300.83203125 633.83984375 294.665039062 632.172851562 289.998046875 630.505859375 c 0
 285.331054688 628.838867188 280.331054688 626.005859375 274.998046875 622.005859375 c 0
 269.665039062 618.005859375 265.165039062 614.672851562 261.498046875 612.005859375 c 0
 257.831054688 609.338867188 253.831054688 605.005859375 249.498046875 599.005859375 c 0
 245.165039062 593.005859375 241.83203125 588.838867188 239.499023438 586.505859375 c 0
 237.166015625 584.172851562 233.999023438 579.33984375 229.999023438 572.006835938 c 0
 219.33203125 557.33984375 208.499023438 548.672851562 197.499023438 546.005859375 c 0
 194.356445312 545.244140625 191.118164062 544.86328125 187.784179688 544.86328125 c 0
 179.451171875 544.86328125 170.522460938 547.244140625 160.999023438 552.005859375 c 0
 149.666015625 557.338867188 142.833007812 566.171875 140.5 578.504882812 c 0
 139.895507812 581.702148438 139.592773438 585.044921875 139.592773438 588.533203125 c 0
 139.592773438 598.500976562 142.0625 609.658203125 147.000976562 622.004882812 c 0
 153.66796875 635.337890625 162.334960938 647.504882812 173.001953125 658.504882812 c 0
 183.668945312 669.504882812 196.001953125 680.004882812 210.001953125 690.004882812 c 0
 224.001953125 700.004882812 241.168945312 707.837890625 261.501953125 713.504882812 c 0
 281.834960938 719.171875 303.66796875 722.004882812 327.000976562 722.004882812 c 0
 403.66796875 722.004882812 461.334960938 706.004882812 500.001953125 674.004882812 c 0
 537.379882812 643.071289062 556.069335938 597.809570312 556.069335938 538.21875 c 0xf0
 556.069335938 536.1640625 556.046875 534.092773438 556.002929688 532.00390625 c 0
 556.002929688 512.670898438 553.502929688 495.170898438 548.502929688 479.50390625 c 0
 543.502929688 463.836914062 536.669921875 450.50390625 528.002929688 439.50390625 c 0
 519.3359375 428.50390625 508.668945312 418.836914062 496.001953125 410.50390625 c 0
 483.334960938 402.170898438 470.501953125 395.670898438 457.501953125 391.00390625 c 0
 444.501953125 386.336914062 430.668945312 382.669921875 416.001953125 380.002929688 c 1
 443.334960938 374.002929688 466.66796875 366.669921875 486.000976562 358.002929688 c 0
 505.333984375 349.3359375 522.166992188 338.168945312 536.5 324.501953125 c 0
 550.833007812 310.834960938 561.5 293.66796875 568.5 273.000976562 c 0
 575.5 252.333984375 579 227.666992188 579 199 c 0xe8
EndSplineSet
Validated: 1
EndChar

StartChar: four
Encoding: 52 52 20
Width: 700
GlyphClass: 2
Flags: HMW
HStem: -23.001 21G 224.234 80.335
VStem: 417.003 87.4971 424.002 88.998 424.002 97.0561
LayerCount: 2
Fore
SplineSet
519 55 m 0xd0
 520.372070312 47.68359375 521.057617188 40.71875 521.057617188 34.107421875 c 0
 521.057617188 21.4423828125 518.540039062 10.072265625 513.502929688 -0.001953125 c 0
 505.8359375 -15.3349609375 494.668945312 -23.001953125 480.001953125 -23.001953125 c 0
 467.334960938 -23.001953125 455.001953125 -18.1689453125 443.001953125 -8.501953125 c 0
 431.001953125 1.1650390625 424.668945312 10.998046875 424.001953125 20.998046875 c 2
 424.001953125 59.998046875 l 1
 424.001953125 137.498046875 l 1xc8
 424.001953125 223.998046875 l 1xd0
 409.729492188 224.155273438 395.973632812 224.233398438 382.734375 224.233398438 c 0
 283.423828125 224.233398438 213.1796875 219.822265625 172.001953125 210.999023438 c 0
 161.334960938 208.999023438 151.66796875 209.33203125 143.000976562 211.999023438 c 0
 134.333984375 214.666015625 127.500976562 219.333007812 122.500976562 226 c 0
 117.500976562 232.666992188 113.66796875 240.333984375 111.000976562 249.000976562 c 0
 108.333984375 257.66796875 107.000976562 266.66796875 107.000976562 276.000976562 c 0
 107.000976562 285.333984375 108.66796875 294.333984375 112.000976562 303.000976562 c 0
 118.66796875 321.66796875 136.500976562 352.16796875 165.500976562 394.500976562 c 0
 194.500976562 436.833984375 232.16796875 489.166992188 278.500976562 551.5 c 0
 324.833984375 613.833007812 357.666992188 659 377 687 c 0
 385.666992188 699.666992188 395.5 709.166992188 406.5 715.5 c 0
 417.5 721.833007812 428 725 438 725 c 0
 440.423828125 725.2421875 442.809570312 725.36328125 445.15625 725.36328125 c 0
 455.71875 725.36328125 465.5 722.909179688 474.5 718 c 0
 485.5 712 492.333007812 701.666992188 495 687 c 0
 499 663.666992188 502.166992188 627.666992188 504.5 579 c 0xe0
 506.833007812 530.333007812 508.333007812 489.166015625 509 455.499023438 c 0
 509.666992188 421.83203125 510.666992188 370.999023438 512 302.999023438 c 1
 523.333007812 302.33203125 536 301.999023438 550 301.999023438 c 0
 565.333007812 301.999023438 576.166015625 298.499023438 582.499023438 291.499023438 c 0
 588.83203125 284.499023438 592.33203125 275.33203125 592.999023438 263.999023438 c 0
 592.999023438 234.666015625 578.666015625 219.999023438 549.999023438 219.999023438 c 0
 536.666015625 219.999023438 524.333007812 220.33203125 513 220.999023438 c 1
 514.333007812 123.666015625 516.333007812 68.3330078125 519 55 c 0xd0
417.001953125 601.997070312 m 1xe0
 318.334960938 472.6640625 251.334960938 372.330078125 216.001953125 300.997070312 c 1
 253.146484375 303.377929688 299.134765625 304.568359375 353.967773438 304.568359375 c 0
 375.897460938 304.568359375 399.2421875 304.377929688 424.001953125 303.997070312 c 1
 424.001953125 428.6640625 421.668945312 527.997070312 417.001953125 601.997070312 c 1xe0
EndSplineSet
Validated: 1
EndChar

StartChar: five
Encoding: 53 53 21
Width: 700
GlyphClass: 2
Flags: HMW
HStem: -18.001 83.998 419.997 89.0029 619 88.998 630 79.998
VStem: 122.596 93.405 129.996 88.0029 487.994 100.006
LayerCount: 2
Fore
SplineSet
588 296 m 0xda
 588 246.666992188 581.825195312 202.166015625 569.4921875 162.499023438 c 0
 557.159179688 122.83203125 539.826171875 89.83203125 517.493164062 63.4990234375 c 0
 495.16015625 37.166015625 468.327148438 16.9990234375 436.994140625 2.9990234375 c 0
 405.661132812 -11.0009765625 371.328125 -18.0009765625 333.995117188 -18.0009765625 c 0
 304.662109375 -18.0009765625 277.662109375 -15.0009765625 252.995117188 -9.0009765625 c 0
 228.328125 -3.0009765625 207.661132812 5.33203125 190.994140625 15.9990234375 c 0
 174.327148438 26.666015625 160.327148438 37.8330078125 148.994140625 49.5 c 0
 137.661132812 61.1669921875 128.328125 73.333984375 120.995117188 86.0009765625 c 0
 114.995117188 99.5009765625 111.995117188 111.125976562 111.995117188 120.875976562 c 0
 111.995117188 124.125976562 112.328125 127.16796875 112.995117188 130.000976562 c 0
 115.662109375 141.333984375 122.662109375 150.000976562 133.995117188 156.000976562 c 0
 141.328125 159.333984375 147.495117188 161.666992188 152.495117188 163 c 0
 157.495117188 164.333007812 162.995117188 164.666015625 168.995117188 163.999023438 c 0
 174.995117188 163.33203125 180.662109375 160.665039062 185.995117188 155.998046875 c 0
 191.328125 151.331054688 196.995117188 144.6640625 202.995117188 135.997070312 c 0
 232.995117188 89.9970703125 273.662109375 66.6640625 324.995117188 65.9970703125 c 0
 374.995117188 65.9970703125 414.662109375 85.830078125 443.995117188 125.497070312 c 0
 473.328125 165.1640625 487.995117188 218.331054688 487.995117188 284.998046875 c 0
 487.995117188 326.331054688 478.828125 359.1640625 460.495117188 383.497070312 c 0
 442.162109375 407.830078125 413.995117188 419.997070312 375.995117188 419.997070312 c 0
 365.995117188 419.997070312 356.328125 419.497070312 346.995117188 418.497070312 c 0
 337.662109375 417.497070312 329.662109375 416.1640625 322.995117188 414.497070312 c 0
 316.328125 412.830078125 309.328125 410.330078125 301.995117188 406.997070312 c 0
 294.662109375 403.6640625 288.829101562 400.997070312 284.49609375 398.997070312 c 0
 280.163085938 396.997070312 274.830078125 393.330078125 268.497070312 387.997070312 c 0
 262.1640625 382.6640625 257.997070312 378.997070312 255.997070312 376.997070312 c 0
 253.997070312 374.997070312 249.6640625 370.830078125 242.997070312 364.497070312 c 0
 236.330078125 358.1640625 232.330078125 354.331054688 230.997070312 352.998046875 c 0
 225.6640625 348.331054688 219.1640625 344.331054688 211.497070312 340.998046875 c 0
 203.830078125 337.665039062 195.330078125 335.498046875 185.997070312 334.498046875 c 0
 176.6640625 333.498046875 167.331054688 334.998046875 157.998046875 338.998046875 c 0
 146.665039062 343.665039062 138.165039062 353.998046875 132.498046875 369.998046875 c 0
 126.831054688 385.998046875 123.6640625 405.665039062 122.997070312 428.998046875 c 0
 122.73046875 438.331054688 122.596679688 447.530273438 122.596679688 456.596679688 c 0xda
 122.596679688 470.197265625 122.896484375 483.498046875 123.49609375 496.499023438 c 0
 124.49609375 518.166015625 125.829101562 541.499023438 127.49609375 566.499023438 c 0
 129.163085938 591.499023438 129.99609375 608.666015625 129.99609375 617.999023438 c 1
 124.663085938 626.666015625 121.330078125 636.499023438 119.997070312 647.499023438 c 0
 118.6640625 658.499023438 119.1640625 668.666015625 121.497070312 677.999023438 c 0
 123.830078125 687.33203125 128.497070312 695.33203125 135.497070312 701.999023438 c 0
 142.497070312 708.666015625 150.6640625 711.999023438 159.997070312 711.999023438 c 0
 184.6640625 711.999023438 242.831054688 711.33203125 334.498046875 709.999023438 c 0xd6
 426.165039062 708.666015625 495.998046875 707.999023438 543.998046875 707.999023438 c 0
 552.665039062 707.999023438 559.83203125 704.33203125 565.499023438 696.999023438 c 0
 571.166015625 689.666015625 574.833007812 681.333007812 576.5 672 c 0
 578.166992188 662.666992188 578.333984375 654 577.000976562 646 c 0
 576.333984375 641.333007812 575.166992188 637.333007812 573.5 634 c 0
 571.833007812 630.666992188 569.5 628.166992188 566.5 626.5 c 0
 563.5 624.833007812 560.833007812 623.333007812 558.5 622 c 0
 556.166992188 620.666992188 552.666992188 619.833984375 548 619.500976562 c 0
 543.333007812 619.16796875 540 619.000976562 538 619.000976562 c 0xe6
 536 619.000976562 532.166992188 619.333984375 526.5 620.000976562 c 0
 520.833007812 620.66796875 517.666015625 621.000976562 516.999023438 621.000976562 c 0
 507.666015625 621.000976562 490.999023438 622.000976562 466.999023438 624.000976562 c 0
 442.999023438 626.000976562 421.666015625 627.500976562 402.999023438 628.500976562 c 0
 384.33203125 629.500976562 358.33203125 630.000976562 324.999023438 630.000976562 c 0
 291.666015625 630.000976562 256.666015625 629.000976562 219.999023438 627.000976562 c 1
 219.999023438 620.333984375 219.33203125 601.000976562 217.999023438 569.000976562 c 0xd6
 216.666015625 537.000976562 215.833007812 513.833984375 215.5 499.500976562 c 0
 215.388671875 494.727539062 215.333007812 489.270507812 215.333007812 483.129882812 c 0
 215.333007812 470.830078125 215.555664062 455.787109375 216.000976562 438 c 1
 234.66796875 458.666992188 260.000976562 475.666992188 292.000976562 489 c 0
 324.000976562 502.333007812 360.66796875 509 402.000976562 509 c 0
 431.333984375 509 457.833984375 503.5 481.500976562 492.5 c 0
 505.16796875 481.5 524.66796875 466.333007812 540.000976562 447 c 0
 555.333984375 427.666992188 567.166992188 405.166992188 575.5 379.5 c 0
 583.833007812 353.833007812 588 326 588 296 c 0xda
EndSplineSet
Validated: 1
EndChar

StartChar: six
Encoding: 54 54 22
Width: 700
GlyphClass: 2
Flags: HMW
HStem: -21.9971 84.0049 393.004 87.9961
VStem: 109.934 91.0658 492 98<227.333 249.672>
LayerCount: 2
Fore
SplineSet
590 246 m 0
 590 208.666992188 583.833007812 173.502929688 571.5 140.502929688 c 0
 559.166992188 107.502929688 542.333984375 79.169921875 521.000976562 55.5029296875 c 0
 499.66796875 31.8359375 474.16796875 13.0029296875 444.500976562 -0.9970703125 c 0
 414.833984375 -14.9970703125 383.333984375 -21.9970703125 350.000976562 -21.9970703125 c 0
 308.66796875 -21.9970703125 272.66796875 -14.1640625 242.000976562 1.5029296875 c 0
 211.333984375 17.169921875 186.166992188 39.8369140625 166.5 69.50390625 c 0
 146.833007812 99.1708984375 132.333007812 134.670898438 123 176.00390625 c 0
 114.2890625 214.580078125 109.93359375 257.51171875 109.93359375 304.798828125 c 0
 109.93359375 308.177734375 109.956054688 311.579101562 110.000976562 315.002929688 c 0
 110.66796875 372.3359375 116.334960938 424.002929688 127.001953125 470.002929688 c 0
 137.668945312 516.002929688 152.501953125 554.669921875 171.501953125 586.002929688 c 0
 190.501953125 617.3359375 214.001953125 643.8359375 242.001953125 665.502929688 c 0
 270.001953125 687.169921875 300.168945312 703.669921875 332.501953125 715.002929688 c 0
 364.834960938 726.3359375 400.66796875 733.668945312 440.000976562 737.001953125 c 0
 442.920898438 737.255859375 445.774414062 737.3828125 448.561523438 737.3828125 c 0
 460.409179688 737.3828125 471.055664062 735.088867188 480.500976562 730.500976562 c 0
 492.16796875 724.833984375 498.66796875 715.666992188 500.000976562 703 c 0
 500.66796875 695 496.66796875 686.166992188 488.000976562 676.5 c 0
 479.333984375 666.833007812 469.666992188 660.333007812 459 657 c 0
 451.666992188 655 440.5 652.333007812 425.5 649 c 0
 410.5 645.666992188 397.666992188 642.5 387 639.5 c 0
 376.333007812 636.5 363.666015625 632 348.999023438 626 c 0
 334.33203125 620 319.83203125 611.333007812 305.499023438 600 c 0
 291.166015625 588.666992188 276.999023438 575 262.999023438 559 c 0
 248.33203125 541.666992188 234.83203125 518 222.499023438 488 c 0
 210.166015625 458 202.333007812 431.333007812 199 408 c 1
 219.666992188 432.666992188 246.666992188 451 280 463 c 0
 313.333007812 475 350.333007812 481 391 481 c 0
 421.666992188 481 449 476.666992188 473 468 c 0
 497 459.333007812 517.833007812 445.666015625 535.5 426.999023438 c 0
 553.166992188 408.33203125 566.666992188 383.83203125 576 353.499023438 c 0
 585.333007812 323.166015625 590 287.333007812 590 246 c 0
201 230.002929688 m 0
 202.333007812 215.3359375 205.333984375 200.506835938 210.000976562 185.506835938 c 0
 214.66796875 170.506835938 221.16796875 155.33984375 229.500976562 140.006835938 c 0
 237.833984375 124.673828125 247.666992188 111.340820312 259 100.0078125 c 0
 270.333007812 88.6748046875 284 79.5078125 300 72.5078125 c 0
 316 65.5078125 333 62.0078125 351 62.0078125 c 0
 375.666992188 62.0078125 399 70.6748046875 421 88.0078125 c 0
 443 105.340820312 460.333007812 127.173828125 473 153.506835938 c 0
 485.666992188 179.83984375 492 206.672851562 492 234.005859375 c 0
 492 265.338867188 489.333007812 291.671875 484 313.004882812 c 0
 478.666992188 334.337890625 470.166992188 350.670898438 458.5 362.00390625 c 0
 446.833007812 373.336914062 433.666015625 381.336914062 418.999023438 386.00390625 c 0
 404.33203125 390.670898438 386.33203125 393.00390625 364.999023438 393.00390625 c 0
 331.666015625 393.00390625 300.333007812 384.336914062 271 367.00390625 c 0
 241.666992188 349.670898438 217.666992188 327.670898438 199 301.00390625 c 1
 199 272.336914062 199.666992188 248.669921875 201 230.002929688 c 0
EndSplineSet
Validated: 1
EndChar

StartChar: seven
Encoding: 55 55 23
Width: 700
GlyphClass: 2
Flags: HMW
HStem: -22.9443 21G 622.497 90.5
LayerCount: 2
Fore
SplineSet
250 26 m 0
 242 8.6669921875 231.495117188 -4.3349609375 218.495117188 -13.001953125 c 0
 208.553710938 -19.6298828125 198.709960938 -22.943359375 188.963867188 -22.943359375 c 0
 185.96484375 -22.943359375 182.974609375 -22.6298828125 179.994140625 -22.001953125 c 0
 165.994140625 -18.6689453125 156.161132812 -10.6689453125 150.494140625 1.998046875 c 0
 147.890625 7.818359375 146.588867188 13.919921875 146.588867188 20.302734375 c 0
 146.588867188 27.8115234375 148.390625 35.7099609375 151.994140625 43.998046875 c 0
 185.994140625 112.665039062 222.494140625 180.998046875 261.494140625 248.998046875 c 0
 300.494140625 316.998046875 332.827148438 371.165039062 358.494140625 411.498046875 c 0
 384.161132812 451.831054688 407.828125 490.998046875 429.495117188 528.998046875 c 0
 451.162109375 566.998046875 465.662109375 597.998046875 472.995117188 621.998046875 c 1
 441.357421875 623.088867188 408.62890625 623.634765625 374.809570312 623.634765625 c 0
 346.62890625 623.634765625 317.690429688 623.255859375 287.995117188 622.498046875 c 0
 222.662109375 620.831054688 179.995117188 617.331054688 159.995117188 611.998046875 c 0
 151.995117188 609.998046875 144.828125 610.331054688 138.495117188 612.998046875 c 0
 132.162109375 615.665039062 126.995117188 619.665039062 122.995117188 624.998046875 c 0
 118.995117188 630.331054688 115.995117188 635.998046875 113.995117188 641.998046875 c 0
 111.995117188 647.998046875 110.995117188 653.998046875 110.995117188 659.998046875 c 0
 110.995117188 671.998046875 113.995117188 681.498046875 119.995117188 688.498046875 c 0
 125.995117188 695.498046875 136.995117188 700.665039062 152.995117188 703.998046875 c 0
 177.662109375 708.665039062 211.829101562 711.665039062 255.49609375 712.998046875 c 0
 277.330078125 713.6640625 298.2890625 713.997070312 318.373046875 713.997070312 c 0
 338.45703125 713.997070312 357.666015625 713.6640625 375.999023438 712.998046875 c 0
 412.666015625 711.665039062 448.666015625 710.33203125 483.999023438 708.999023438 c 0
 519.33203125 707.666015625 538.33203125 706.999023438 540.999023438 706.999023438 c 0
 547.666015625 706.999023438 554.499023438 705.499023438 561.499023438 702.499023438 c 0
 568.499023438 699.499023438 574.83203125 694.666015625 580.499023438 687.999023438 c 0
 584.833984375 682.8984375 589.522460938 674.20703125 589.522460938 660.463867188 c 0
 589.522460938 650.153320312 586.34765625 638.331054688 579.998046875 624.997070312 c 0
 570.665039062 604.997070312 553.83203125 574.830078125 529.499023438 534.497070312 c 0
 505.166015625 494.1640625 479.833007812 452.831054688 453.5 410.498046875 c 0
 427.166992188 368.165039062 395.166992188 311.83203125 357.5 241.499023438 c 0
 319.833007812 171.166015625 284 99.3330078125 250 26 c 0
EndSplineSet
Validated: 1
EndChar

StartChar: eight
Encoding: 56 56 24
Width: 700
GlyphClass: 2
Flags: W
HStem: -27.9922 85.9971<256.677 431.525> 646.004 72.001<272.913 406.63>
VStem: 103.996 85.998<120.066 256.492> 130.997 93.998<487.944 598.703> 461.995 90.002<483.938 592.01> 502.994 93.0059<121.363 264.134>
LayerCount: 2
Fore
SplineSet
596 204 m 0xc4
 596 182.666992188 593.162109375 161.338867188 587.495117188 140.005859375 c 0
 581.828125 118.672851562 572.328125 97.83984375 558.995117188 77.5068359375 c 0
 545.662109375 57.173828125 529.329101562 39.3408203125 509.99609375 24.0078125 c 0
 490.663085938 8.6748046875 465.99609375 -3.8251953125 435.99609375 -13.4921875 c 0
 405.99609375 -23.1591796875 372.663085938 -27.9921875 335.99609375 -27.9921875 c 0
 302.663085938 -27.9921875 272.330078125 -23.3251953125 244.997070312 -13.9921875 c 0
 217.6640625 -4.6591796875 195.497070312 7.173828125 178.497070312 21.5068359375 c 0
 161.497070312 35.83984375 147.1640625 53.0068359375 135.497070312 73.0068359375 c 0
 123.830078125 93.0068359375 115.663085938 113.173828125 110.99609375 133.506835938 c 0
 106.329101562 153.83984375 103.99609375 174.672851562 103.99609375 196.005859375 c 0xe4
 103.99609375 218.672851562 109.663085938 243.005859375 120.99609375 269.005859375 c 0
 132.329101562 295.005859375 148.829101562 319.005859375 170.49609375 341.005859375 c 0
 192.163085938 363.005859375 216.330078125 378.338867188 242.997070312 387.005859375 c 1
 207.6640625 403.672851562 180.1640625 425.505859375 160.497070312 452.505859375 c 0
 140.830078125 479.505859375 130.997070312 507.005859375 130.997070312 535.005859375 c 0
 130.997070312 543.005859375 131.6640625 551.505859375 132.997070312 560.505859375 c 0
 134.330078125 569.505859375 136.830078125 580.172851562 140.497070312 592.505859375 c 0
 144.1640625 604.838867188 149.1640625 616.671875 155.497070312 628.004882812 c 0
 161.830078125 639.337890625 170.497070312 650.504882812 181.497070312 661.504882812 c 0
 192.497070312 672.504882812 204.997070312 682.171875 218.997070312 690.504882812 c 0
 232.997070312 698.837890625 250.497070312 705.504882812 271.497070312 710.504882812 c 0
 292.497070312 715.504882812 315.330078125 718.004882812 339.997070312 718.004882812 c 0
 365.997070312 718.004882812 389.497070312 715.504882812 410.497070312 710.504882812 c 0
 431.497070312 705.504882812 449.1640625 698.837890625 463.497070312 690.504882812 c 0
 477.830078125 682.171875 490.497070312 672.504882812 501.497070312 661.504882812 c 0
 512.497070312 650.504882812 520.997070312 639.337890625 526.997070312 628.004882812 c 0
 532.997070312 616.671875 537.997070312 604.671875 541.997070312 592.004882812 c 0
 545.997070312 579.337890625 548.6640625 568.170898438 549.997070312 558.50390625 c 0
 551.330078125 548.836914062 551.997070312 539.669921875 551.997070312 531.002929688 c 0xd8
 551.997070312 523.002929688 550.997070312 515.002929688 548.997070312 507.002929688 c 0
 546.997070312 499.002929688 544.330078125 492.002929688 540.997070312 486.002929688 c 0
 537.6640625 480.002929688 533.331054688 473.669921875 527.998046875 467.002929688 c 0
 522.665039062 460.3359375 517.665039062 454.668945312 512.998046875 450.001953125 c 0
 508.331054688 445.334960938 502.331054688 440.001953125 494.998046875 434.001953125 c 0
 487.665039062 428.001953125 481.83203125 423.501953125 477.499023438 420.501953125 c 0
 473.166015625 417.501953125 466.999023438 413.334960938 458.999023438 408.001953125 c 0
 450.999023438 402.668945312 445.666015625 399.001953125 442.999023438 397.001953125 c 1
 467.666015625 386.334960938 489.333007812 374.334960938 508 361.001953125 c 0
 526.666992188 347.668945312 541.5 334.501953125 552.5 321.501953125 c 0
 563.5 308.501953125 572.333007812 294.668945312 579 280.001953125 c 0
 585.666992188 265.334960938 590.166992188 252.16796875 592.5 240.500976562 c 0
 594.833007812 228.833984375 596 216.666992188 596 204 c 0xc4
224.995117188 538.004882812 m 0xd8
 224.995117188 516.004882812 235.162109375 496.504882812 255.495117188 479.504882812 c 0
 275.828125 462.504882812 309.328125 445.337890625 355.995117188 428.004882812 c 1
 383.995117188 439.337890625 408.662109375 454.670898438 429.995117188 474.00390625 c 0
 451.328125 493.336914062 461.995117188 511.336914062 461.995117188 528.00390625 c 0
 461.995117188 546.670898438 456.662109375 565.00390625 445.995117188 583.00390625 c 0
 435.328125 601.00390625 420.495117188 616.00390625 401.495117188 628.00390625 c 0
 382.495117188 640.00390625 361.995117188 646.00390625 339.995117188 646.00390625 c 0
 308.662109375 646.00390625 281.662109375 634.836914062 258.995117188 612.50390625 c 0
 236.328125 590.170898438 224.995117188 565.337890625 224.995117188 538.004882812 c 0xd8
339.995117188 58.0048828125 m 0
 359.328125 58.0048828125 378.66015625 60.8330078125 397.993164062 66.5 c 0
 417.326171875 72.1669921875 434.826171875 80.333984375 450.493164062 91.0009765625 c 0
 466.16015625 101.66796875 478.827148438 115.66796875 488.494140625 133.000976562 c 0
 498.161132812 150.333984375 502.994140625 168.666992188 502.994140625 188 c 0
 502.994140625 198.666992188 501.994140625 208.833984375 499.994140625 218.500976562 c 0
 497.994140625 228.16796875 493.994140625 239.334960938 487.994140625 252.001953125 c 0
 481.994140625 264.668945312 473.661132812 276.3359375 462.994140625 287.002929688 c 0
 452.327148438 297.669921875 437.494140625 308.836914062 418.494140625 320.50390625 c 0
 399.494140625 332.170898438 377.327148438 342.670898438 351.994140625 352.00390625 c 1
 303.994140625 339.336914062 264.994140625 317.336914062 234.994140625 286.00390625 c 0
 204.994140625 254.670898438 189.994140625 221.337890625 189.994140625 186.004882812 c 0xe4
 189.994140625 161.337890625 197.494140625 139.004882812 212.494140625 119.004882812 c 0
 227.494140625 99.0048828125 246.327148438 83.837890625 268.994140625 73.5048828125 c 0
 291.661132812 63.171875 315.328125 58.0048828125 339.995117188 58.0048828125 c 0
EndSplineSet
Validated: 1
EndChar

StartChar: nine
Encoding: 57 57 25
Width: 700
GlyphClass: 2
Flags: HMW
HStem: -22.3812 21G 234.998 89 654.995 84.0049
VStem: 109.002 98.0049 502.172 87.8928
LayerCount: 2
Fore
SplineSet
236 -22 m 0
 233.077148438 -22.25390625 230.219726562 -22.3828125 227.430664062 -22.3828125 c 0
 215.587890625 -22.3828125 204.94921875 -20.091796875 195.506835938 -15.5048828125 c 0
 183.83984375 -9.837890625 177.33984375 -0.6708984375 176.006835938 11.99609375 c 0
 175.33984375 20.6630859375 179.172851562 29.6630859375 187.505859375 38.99609375 c 0
 195.838867188 48.3291015625 205.671875 54.662109375 217.004882812 57.9951171875 c 0
 224.337890625 59.9951171875 236.170898438 62.662109375 252.50390625 65.9951171875 c 0
 268.836914062 69.328125 283.50390625 72.828125 296.50390625 76.4951171875 c 0
 309.50390625 80.162109375 324.170898438 84.9951171875 340.50390625 90.9951171875 c 0
 356.836914062 96.9951171875 372.669921875 105.328125 388.002929688 115.995117188 c 0
 403.3359375 126.662109375 417.3359375 139.329101562 430.002929688 153.99609375 c 0
 446.669921875 173.329101562 461.502929688 195.829101562 474.502929688 221.49609375 c 0
 487.502929688 247.163085938 496.669921875 270.330078125 502.002929688 290.997070312 c 1
 483.3359375 269.6640625 459.3359375 254.997070312 430.002929688 246.997070312 c 0
 400.669921875 238.997070312 364.669921875 234.997070312 322.002929688 234.997070312 c 0
 292.669921875 234.997070312 264.669921875 241.830078125 238.002929688 255.497070312 c 0
 211.3359375 269.1640625 188.668945312 287.331054688 170.001953125 309.998046875 c 0
 151.334960938 332.665039062 136.501953125 358.83203125 125.501953125 388.499023438 c 0
 114.501953125 418.166015625 109.001953125 448.333007812 109.001953125 479 c 0
 109.001953125 516.333007812 115.334960938 551.166015625 128.001953125 583.499023438 c 0
 140.668945312 615.83203125 157.668945312 643.33203125 179.001953125 665.999023438 c 0
 200.334960938 688.666015625 225.66796875 706.499023438 255.000976562 719.499023438 c 0
 284.333984375 732.499023438 315.666992188 738.999023438 349 738.999023438 c 0
 431 738.999023438 492 707.999023438 532 645.999023438 c 0
 570.709960938 585.999023438 590.064453125 500.711914062 590.064453125 390.138671875 c 0
 590.064453125 386.454101562 590.04296875 382.741210938 590 379 c 0
 589.333007812 325.666992188 582.666015625 277.5 569.999023438 234.5 c 0
 557.33203125 191.5 540.33203125 155 518.999023438 125 c 0
 497.666015625 95 472.166015625 69.3330078125 442.499023438 48 c 0
 412.83203125 26.6669921875 380.83203125 10.5 346.499023438 -0.5 c 0
 312.166015625 -11.5 275.333007812 -18.6669921875 236 -22 c 0
207.005859375 490.993164062 m 0
 207.005859375 436.326171875 218.8359375 394.829101562 242.502929688 366.49609375 c 0
 266.169921875 338.163085938 301.336914062 323.99609375 348.00390625 323.99609375 c 0
 377.336914062 323.99609375 406.00390625 330.663085938 434.00390625 343.99609375 c 0
 462.00390625 357.329101562 484.670898438 375.662109375 502.00390625 398.995117188 c 0
 502.115234375 402.21875 502.170898438 405.720703125 502.170898438 409.500976562 c 0
 502.170898438 428.388671875 500.782226562 454.219726562 498.004882812 486.994140625 c 0
 496.671875 501.661132812 493.838867188 516.494140625 489.505859375 531.494140625 c 0
 485.172851562 546.494140625 478.672851562 561.661132812 470.005859375 576.994140625 c 0
 461.338867188 592.327148438 451.338867188 605.66015625 440.005859375 616.993164062 c 0
 428.672851562 628.326171875 415.005859375 637.493164062 399.005859375 644.493164062 c 0
 383.005859375 651.493164062 366.005859375 654.993164062 348.005859375 654.993164062 c 0
 323.338867188 654.993164062 300.005859375 646.993164062 278.005859375 630.993164062 c 0
 256.005859375 614.993164062 238.672851562 594.493164062 226.005859375 569.493164062 c 0
 213.338867188 544.493164062 207.005859375 518.326171875 207.005859375 490.993164062 c 0
EndSplineSet
Validated: 1
EndChar

StartChar: colon
Encoding: 58 58 26
Width: 700
GlyphClass: 2
Flags: HMW
HStem: 39.8998 155.096 306.91 155.09
VStem: 284.668 127.695
LayerCount: 2
Fore
SplineSet
412 417 m 0
 412.2421875 413 412.36328125 408.956054688 412.36328125 404.868164062 c 0
 412.36328125 386.470703125 409.909179688 367.1796875 405 346.997070312 c 0
 401.666992188 333.6640625 394.333984375 323.497070312 383.000976562 316.497070312 c 0
 372.653320312 310.106445312 362.583984375 306.91015625 352.791992188 306.91015625 c 0
 351.859375 306.91015625 350.928710938 306.939453125 350.000976562 306.997070312 c 0
 310.000976562 308.997070312 288.66796875 324.330078125 286.000976562 352.997070312 c 0
 285.112304688 364.994140625 284.66796875 379.211914062 284.66796875 395.651367188 c 0
 284.66796875 403.876953125 284.779296875 412.659179688 285.001953125 421.997070312 c 0
 285.001953125 430.6640625 287.501953125 437.831054688 292.501953125 443.498046875 c 0
 297.501953125 449.165039062 303.668945312 453.33203125 311.001953125 455.999023438 c 0
 318.334960938 458.666015625 325.334960938 460.333007812 332.001953125 461 c 0
 338.668945312 461.666992188 345.001953125 462 351.001953125 462 c 0
 357.001953125 462 363.168945312 461.333007812 369.501953125 460 c 0
 375.834960938 458.666992188 382.16796875 456.5 388.500976562 453.5 c 0
 394.833984375 450.5 400.166992188 445.833007812 404.5 439.5 c 0
 408.833007812 433.166992188 411.333007812 425.666992188 412 417 c 0
413 149.997070312 m 0
 414.5 141.249023438 415.249023438 132.40625 415.249023438 123.469726562 c 0
 415.249023438 108.571289062 413.165039062 93.412109375 408.998046875 77.9931640625 c 0
 405.665039062 64.66015625 397.33203125 54.8271484375 383.999023438 48.494140625 c 0
 371.936523438 42.7646484375 360.692382812 39.8994140625 350.266601562 39.8994140625 c 0
 349.168945312 39.8994140625 348.080078125 39.931640625 347 39.9951171875 c 0
 333.666992188 40.662109375 320.666992188 44.8291015625 308 52.49609375 c 0
 295.333007812 60.1630859375 288.333007812 70.99609375 287 84.99609375 c 0
 286.333007812 98.99609375 285.833007812 107.829101562 285.5 111.49609375 c 0
 285.166992188 115.163085938 285.5 121.99609375 286.5 131.99609375 c 0
 287.5 141.99609375 288 149.663085938 288 154.99609375 c 0
 288 162.99609375 290.333007812 169.99609375 295 175.99609375 c 0
 299.666992188 181.99609375 305.5 186.163085938 312.5 188.49609375 c 0
 319.5 190.829101562 326.333007812 192.49609375 333 193.49609375 c 0
 339.666992188 194.49609375 346 194.99609375 352 194.99609375 c 0
 360 194.99609375 368 193.829101562 376 191.49609375 c 0
 384 189.163085938 391.666992188 184.330078125 399 176.997070312 c 0
 406.333007812 169.6640625 411 160.6640625 413 149.997070312 c 0
EndSplineSet
Validated: 1
EndChar

StartChar: semicolon
Encoding: 59 59 27
Width: 700
GlyphClass: 2
Flags: HMW
HStem: 264.912 155.087
VStem: 314.665 127.698
LayerCount: 2
Fore
SplineSet
442 375 m 0
 442.2421875 371.000976562 442.36328125 366.958984375 442.36328125 362.872070312 c 0
 442.36328125 344.473632812 439.908203125 325.182617188 434.999023438 304.999023438 c 0
 431.666015625 291.666015625 424.499023438 281.499023438 413.499023438 274.499023438 c 0
 403.456054688 268.108398438 393.2734375 264.912109375 382.952148438 264.912109375 c 0
 381.96875 264.912109375 380.984375 264.94140625 379.999023438 264.999023438 c 0
 371.33203125 265.666015625 362.499023438 267.499023438 353.499023438 270.499023438 c 0
 344.499023438 273.499023438 336.166015625 278.666015625 328.499023438 285.999023438 c 0
 320.83203125 293.33203125 316.665039062 301.999023438 315.998046875 311.999023438 c 0
 315.109375 323.99609375 314.665039062 338.213867188 314.665039062 354.653320312 c 0
 314.665039062 362.87890625 314.776367188 371.661132812 314.999023438 380.999023438 c 0
 314.999023438 388.999023438 317.33203125 395.999023438 321.999023438 401.999023438 c 0
 326.666015625 407.999023438 332.833007812 412.166015625 340.5 414.499023438 c 0
 348.166992188 416.83203125 355.5 418.499023438 362.5 419.499023438 c 0
 369.5 420.499023438 375.666992188 420.666015625 381 419.999023438 c 0
 387 419.999023438 393 419.499023438 399 418.499023438 c 0
 405 417.499023438 411.333007812 415.33203125 418 411.999023438 c 0
 424.666992188 408.666015625 430.166992188 403.833007812 434.5 397.5 c 0
 438.833007812 391.166992188 441.333007812 383.666992188 442 375 c 0
422.999023438 74 m 0
 421.666015625 52.6669921875 399.999023438 -34.333984375 357.999023438 -187.000976562 c 0
 354.666015625 -201.000976562 347.833007812 -211.16796875 337.5 -217.500976562 c 0
 328.151367188 -223.23046875 318.666015625 -226.095703125 309.043945312 -226.095703125 c 0
 308.030273438 -226.095703125 307.015625 -226.063476562 305.999023438 -226 c 0
 292.666015625 -225.333007812 280.833007812 -221 270.5 -213 c 0
 261.34765625 -205.9140625 256.771484375 -196.474609375 256.771484375 -184.681640625 c 0
 256.771484375 -172.114257812 264.672851562 -128.228515625 277.999023438 -63 c 0
 290.666015625 -1 300.666015625 46.3330078125 307.999023438 79 c 0
 309.999023438 89 312.999023438 97 316.999023438 103 c 0
 320.999023438 109 325.499023438 113 330.499023438 115 c 0
 335.499023438 117 340.83203125 118.333007812 346.499023438 119 c 0
 352.166015625 119.666992188 356.999023438 119.666992188 360.999023438 119 c 0
 366.999023438 119 373.499023438 118.166992188 380.499023438 116.5 c 0
 387.499023438 114.833007812 394.499023438 112.5 401.499023438 109.5 c 0
 408.499023438 106.5 413.999023438 102 417.999023438 96 c 0
 421.999023438 90 423.666015625 82.6669921875 422.999023438 74 c 0
EndSplineSet
Validated: 1
EndChar

StartChar: less
Encoding: 60 60 28
Width: 700
GlyphClass: 2
Flags: HMW
HStem: -12.3989 21G
LayerCount: 2
Fore
SplineSet
595 14 m 0
 591.666992188 7.3330078125 586.666992188 1.6689453125 580 -2.998046875 c 0
 573.333007812 -7.6650390625 564.5 -10.6650390625 553.5 -11.998046875 c 0
 551.30078125 -12.2646484375 549.000976562 -12.3974609375 546.6015625 -12.3974609375 c 0
 537.000976562 -12.3974609375 525.80078125 -10.2646484375 513 -5.998046875 c 0
 496.333007812 -0.6650390625 475.833007812 11.001953125 451.5 29.001953125 c 0
 427.166992188 47.001953125 400.833984375 68.501953125 372.500976562 93.501953125 c 0
 344.16796875 118.501953125 316.000976562 144.001953125 288.000976562 170.001953125 c 0
 260.000976562 196.001953125 230.500976562 222.834960938 199.500976562 250.501953125 c 0
 168.500976562 278.168945312 142.333984375 299.668945312 121.000976562 315.001953125 c 0
 112.333984375 321.001953125 106.666992188 330.001953125 104 342.001953125 c 0
 102.745117188 347.6484375 102.1171875 353.184570312 102.1171875 358.610351562 c 0
 102.1171875 364.713867188 102.911132812 370.677734375 104.499023438 376.500976562 c 0
 107.499023438 387.500976562 113.33203125 395.333984375 121.999023438 400.000976562 c 0
 159.999023438 428.000976562 204.499023438 463.16796875 255.499023438 505.500976562 c 0
 306.499023438 547.833984375 353.166015625 586.166992188 395.499023438 620.5 c 0
 437.83203125 654.833007812 475.33203125 682 507.999023438 702 c 0
 518.666015625 708.666992188 528.499023438 712.166992188 537.499023438 712.5 c 0
 546.499023438 712.833007812 554.33203125 711.166015625 560.999023438 707.499023438 c 0
 567.666015625 703.83203125 573.499023438 699.33203125 578.499023438 693.999023438 c 0
 583.499023438 688.666015625 587.33203125 682.999023438 589.999023438 676.999023438 c 0
 592.6328125 672.0234375 593.950195312 667.015625 593.950195312 661.975585938 c 0
 593.950195312 655.536132812 591.799804688 649.043945312 587.499023438 642.499023438 c 0
 579.83203125 630.83203125 564.999023438 616.999023438 542.999023438 600.999023438 c 0
 505.666015625 574.999023438 448.833007812 532.33203125 372.5 472.999023438 c 0
 296.166992188 413.666015625 248 375.999023438 228 359.999023438 c 1
 254 339.999023438 282.666992188 315.83203125 314 287.499023438 c 0
 345.333007812 259.166015625 373.333007812 233.499023438 398 210.499023438 c 0
 422.666992188 187.499023438 449 163.999023438 477 139.999023438 c 0
 505 115.999023438 529 96.9990234375 549 82.9990234375 c 0
 570.333007812 68.9990234375 584.5 56.83203125 591.5 46.4990234375 c 0
 595.700195312 40.298828125 597.80078125 33.9189453125 597.80078125 27.359375 c 0
 597.80078125 22.986328125 596.8671875 18.533203125 595 14 c 0
EndSplineSet
Validated: 1
EndChar

StartChar: equal
Encoding: 61 61 29
Width: 700
GlyphClass: 2
Flags: HMW
HStem: 246.996 83 442.999 85.0725
LayerCount: 2
Fore
SplineSet
206 528 m 0
 244 526.666992188 283.168945312 525.99609375 323.501953125 525.99609375 c 0
 363.834960938 525.99609375 401.501953125 526.329101562 436.501953125 526.99609375 c 0
 471.501953125 527.663085938 492.334960938 527.99609375 499.001953125 527.99609375 c 0
 514.334960938 527.99609375 525.16796875 524.663085938 531.500976562 517.99609375 c 0
 537.833984375 511.329101562 541.333984375 502.329101562 542.000976562 490.99609375 c 0
 542.000976562 484.99609375 541.333984375 479.49609375 540.000976562 474.49609375 c 0
 538.66796875 469.49609375 536.66796875 464.663085938 534.000976562 459.99609375 c 0
 531.333984375 455.329101562 527.000976562 451.829101562 521.000976562 449.49609375 c 0
 515.000976562 447.163085938 507.66796875 446.330078125 499.000976562 446.997070312 c 0
 482.993164062 447.442382812 466.465820312 447.665039062 449.419921875 447.665039062 c 0
 440.909179688 447.665039062 432.26953125 447.609375 423.5 447.498046875 c 0
 397.166992188 447.165039062 360.666992188 446.33203125 314 444.999023438 c 0
 267.333007812 443.666015625 233 442.999023438 211 442.999023438 c 0
 194.333007812 442.999023438 181.333007812 446.999023438 172 454.999023438 c 0
 158.057617188 466.950195312 157.922851562 479.587890625 157.922851562 486.887695312 c 0
 157.922851562 498.295898438 161.615234375 508 169 516 c 0
 176.428710938 524.047851562 187.592773438 528.071289062 202.493164062 528.071289062 c 0
 203.639648438 528.071289062 204.80859375 528.047851562 206 528 c 0
209.001953125 329.99609375 m 0
 226.588867188 329.7734375 245.142578125 329.662109375 264.662109375 329.662109375 c 0
 303.59765625 329.662109375 346.377929688 330.10546875 393.002929688 330.993164062 c 0
 463.002929688 332.326171875 498.3359375 332.993164062 499.002929688 332.993164062 c 0
 514.3359375 332.993164062 525.168945312 329.493164062 531.501953125 322.493164062 c 0
 537.834960938 315.493164062 541.334960938 306.326171875 542.001953125 294.993164062 c 0
 542.001953125 288.993164062 541.334960938 283.493164062 540.001953125 278.493164062 c 0
 538.668945312 273.493164062 536.668945312 268.66015625 534.001953125 263.993164062 c 0
 531.334960938 259.326171875 527.001953125 255.826171875 521.001953125 253.493164062 c 0
 515.001953125 251.16015625 507.668945312 250.327148438 499.001953125 250.994140625 c 0
 482.994140625 251.439453125 466.319335938 251.662109375 448.9765625 251.662109375 c 0
 440.318359375 251.662109375 431.493164062 251.606445312 422.501953125 251.495117188 c 0
 395.501953125 251.162109375 358.334960938 250.329101562 311.001953125 248.99609375 c 0
 263.668945312 247.663085938 229.001953125 246.99609375 207.001953125 246.99609375 c 0
 190.334960938 246.99609375 178.001953125 251.163085938 170.001953125 259.49609375 c 0
 158.625 271.346679688 157.930664062 284.059570312 157.930664062 292.397460938 c 0
 157.930664062 302.677734375 161.954101562 311.376953125 170.001953125 318.49609375 c 0
 178.668945312 326.163085938 191.668945312 329.99609375 209.001953125 329.99609375 c 0
EndSplineSet
Validated: 1
EndChar

StartChar: greater
Encoding: 62 62 30
Width: 700
GlyphClass: 2
Flags: W
LayerCount: 2
Fore
SplineSet
192 5 m 0
 182 -1 172.331054688 -4.33203125 162.998046875 -4.9990234375 c 0
 153.665039062 -5.666015625 145.665039062 -4.166015625 138.998046875 -0.4990234375 c 0
 132.331054688 3.16796875 126.6640625 7.66796875 121.997070312 13.0009765625 c 0
 117.330078125 18.333984375 113.663085938 24.0009765625 110.99609375 30.0009765625 c 0
 108.295898438 35.1005859375 106.946289062 40.234375 106.946289062 45.4013671875 c 0
 106.946289062 51.716796875 108.962890625 58.0830078125 112.99609375 64.5 c 0
 120.329101562 76.1669921875 135.329101562 90 157.99609375 106 c 0
 195.329101562 132 251.99609375 174.666992188 327.99609375 234 c 0
 403.99609375 293.333007812 452.663085938 331 473.99609375 347 c 1
 447.99609375 367 418.829101562 391.166992188 386.49609375 419.5 c 0
 354.163085938 447.833007812 325.99609375 473.5 301.99609375 496.5 c 0
 277.99609375 519.5 251.99609375 543 223.99609375 567 c 0
 195.99609375 591 171.329101562 610 149.99609375 624 c 0
 128.663085938 638 114.49609375 650.166992188 107.49609375 660.5 c 0
 103.5234375 666.364257812 101.537109375 672.389648438 101.537109375 678.576171875 c 0
 101.537109375 683.290039062 102.690429688 688.09765625 104.997070312 692.998046875 c 0
 108.330078125 699.665039062 113.163085938 705.33203125 119.49609375 709.999023438 c 0
 125.829101562 714.666015625 134.829101562 717.666015625 146.49609375 718.999023438 c 0
 148.829101562 719.265625 151.235351562 719.3984375 153.71484375 719.3984375 c 0
 163.635742188 719.3984375 174.729492188 717.265625 186.99609375 712.999023438 c 0
 203.663085938 707.666015625 224.330078125 696.166015625 248.997070312 678.499023438 c 0
 273.6640625 660.83203125 300.1640625 639.33203125 328.497070312 613.999023438 c 0
 356.830078125 588.666015625 384.997070312 562.999023438 412.997070312 536.999023438 c 0
 440.997070312 510.999023438 470.330078125 484.33203125 500.997070312 456.999023438 c 0
 531.6640625 429.666015625 558.331054688 407.999023438 580.998046875 391.999023438 c 0
 588.998046875 385.999023438 594.331054688 376.999023438 596.998046875 364.999023438 c 0
 598.18359375 359.665039062 598.776367188 354.4296875 598.776367188 349.29296875 c 0
 598.776367188 342.874023438 597.850585938 336.609375 595.999023438 330.499023438 c 0
 592.666015625 319.499023438 586.999023438 311.666015625 578.999023438 306.999023438 c 0
 540.999023438 278.999023438 496.499023438 243.83203125 445.499023438 201.499023438 c 0
 394.499023438 159.166015625 347.83203125 120.833007812 305.499023438 86.5 c 0
 263.166015625 52.1669921875 225.333007812 25 192 5 c 0
EndSplineSet
Validated: 1
EndChar

StartChar: question
Encoding: 63 63 31
Width: 700
GlyphClass: 2
Flags: HMW
HStem: -14.5656 154.604 637.999 84.001
VStem: 245.997 163 457.999 99
LayerCount: 2
Fore
SplineSet
381 262 m 0
 378.333007812 244.666992188 372.162109375 231.330078125 362.495117188 221.997070312 c 0
 356.05078125 215.775390625 347.754882812 212.6640625 337.607421875 212.6640625 c 0
 332.533203125 212.6640625 326.99609375 213.442382812 320.99609375 214.998046875 c 0
 302.329101562 219.665039062 289.99609375 228.33203125 283.99609375 240.999023438 c 0
 280.819335938 247.705078125 279.231445312 255.625 279.231445312 264.759765625 c 0
 279.231445312 272.879882812 280.486328125 281.959960938 282.99609375 291.999023438 c 0
 287.663085938 309.999023438 294.49609375 326.999023438 303.49609375 342.999023438 c 0
 312.49609375 358.999023438 322.329101562 372.666015625 332.99609375 383.999023438 c 0
 343.663085938 395.33203125 354.830078125 406.165039062 366.497070312 416.498046875 c 0
 378.1640625 426.831054688 389.331054688 436.498046875 399.998046875 445.498046875 c 0
 410.665039062 454.498046875 420.33203125 463.665039062 428.999023438 472.998046875 c 0
 437.666015625 482.331054688 444.666015625 492.498046875 449.999023438 503.498046875 c 0
 455.33203125 514.498046875 457.999023438 526.331054688 457.999023438 538.998046875 c 0
 457.999023438 573.665039062 447.83203125 598.83203125 427.499023438 614.499023438 c 0
 407.166015625 630.166015625 378.333007812 637.999023438 341 637.999023438 c 0
 331.666992188 637.999023438 322.333984375 635.83203125 313.000976562 631.499023438 c 0
 303.66796875 627.166015625 295.500976562 622.333007812 288.500976562 617 c 0
 281.500976562 611.666992188 274.16796875 604.5 266.500976562 595.5 c 0
 258.833984375 586.5 252.833984375 578.833007812 248.500976562 572.5 c 0
 244.16796875 566.166992188 239.000976562 558.666992188 233.000976562 550 c 0
 227.000976562 541.333007812 221.333984375 534.5 216.000976562 529.5 c 0
 210.66796875 524.5 205.000976562 521.833007812 199.000976562 521.5 c 0
 193.000976562 521.166992188 187.66796875 521.5 183.000976562 522.5 c 0
 178.333984375 523.5 172.333984375 525.666992188 165.000976562 529 c 0
 153.66796875 535 146.500976562 543.666992188 143.500976562 555 c 0
 142.729492188 557.9140625 142.34375 561.048828125 142.34375 564.404296875 c 0
 142.34375 574.096679688 145.5625 585.62890625 152.000976562 599 c 0
 159.333984375 613 168.166992188 626.5 178.5 639.5 c 0
 188.833007812 652.5 201.666015625 665.5 216.999023438 678.5 c 0
 232.33203125 691.5 250.499023438 702 271.499023438 710 c 0
 292.499023438 718 314.33203125 722 336.999023438 722 c 0
 408.999023438 722 463.666015625 705.333007812 500.999023438 672 c 0
 538.33203125 638.666992188 556.999023438 588.666992188 556.999023438 522 c 0
 556.999023438 504 554.166015625 487.666992188 548.499023438 473 c 0
 542.83203125 458.333007812 535.33203125 445.666015625 525.999023438 434.999023438 c 0
 516.666015625 424.33203125 506.166015625 414.33203125 494.499023438 404.999023438 c 0
 482.83203125 395.666015625 470.83203125 386.333007812 458.499023438 377 c 0
 446.166015625 367.666992188 434.833007812 358 424.5 348 c 0
 414.166992188 338 405 325.5 397 310.5 c 0
 389 295.5 383.666992188 279.333007812 381 262 c 0
329.99609375 -14.00390625 m 0
 326.533203125 -14.3779296875 323.158203125 -14.5654296875 319.872070312 -14.5654296875 c 0
 299.754882812 -14.5654296875 282.962890625 -7.5478515625 269.49609375 6.4921875 c 0
 253.829101562 22.8251953125 245.99609375 41.9921875 245.99609375 63.9921875 c 0
 245.99609375 84.6591796875 254.49609375 102.326171875 271.49609375 116.993164062 c 0
 288.49609375 131.66015625 307.99609375 139.327148438 329.99609375 139.994140625 c 0
 331.033203125 140.0234375 332.0625 140.038085938 333.083007812 140.038085938 c 0
 355.010742188 140.038085938 372.981445312 133.190429688 386.99609375 119.495117188 c 0
 401.663085938 105.162109375 408.99609375 86.9951171875 408.99609375 64.9951171875 c 0
 408.99609375 43.662109375 401.829101562 25.8291015625 387.49609375 11.49609375 c 0
 373.163085938 -2.8369140625 353.99609375 -11.3369140625 329.99609375 -14.00390625 c 0
EndSplineSet
Validated: 1
EndChar

StartChar: at
Encoding: 64 64 32
Width: 700
GlyphClass: 2
Flags: HMW
HStem: -129.182 85.178 102.002 77.9951 118.002 79.9941 381 77.1335 612.994 90.0078
VStem: 91.9941 87.0029 214.995 76.999 396.993 80.002 534.997 72.998
LayerCount: 2
Fore
SplineSet
557 5 m 0xdf80
 553.666992188 -4.3330078125 550.16015625 -12.5009765625 546.493164062 -19.5009765625 c 0
 542.826171875 -26.5009765625 537.826171875 -35.16796875 531.493164062 -45.5009765625 c 0
 525.16015625 -55.833984375 518.493164062 -64.6669921875 511.493164062 -72 c 0
 504.493164062 -79.3330078125 495.326171875 -86.8330078125 483.993164062 -94.5 c 0
 472.66015625 -102.166992188 460.493164062 -108.5 447.493164062 -113.5 c 0
 434.493164062 -118.5 418.993164062 -122.5 400.993164062 -125.5 c 0
 386.266601562 -127.954101562 370.647460938 -129.181640625 354.135742188 -129.181640625 c 0
 350.465820312 -129.181640625 346.751953125 -129.12109375 342.993164062 -129 c 0
 307.66015625 -129 274.66015625 -120.333007812 243.993164062 -103 c 0
 213.326171875 -85.6669921875 186.826171875 -61.5 164.493164062 -30.5 c 0
 142.16015625 0.5 124.493164062 38.1669921875 111.493164062 82.5 c 0
 98.4931640625 126.833007812 91.9931640625 175.333007812 91.9931640625 228 c 0
 91.9931640625 286.666992188 96.4931640625 341.333984375 105.493164062 392.000976562 c 0
 114.493164062 442.66796875 127.326171875 486.834960938 143.993164062 524.501953125 c 0
 160.66015625 562.168945312 180.327148438 594.501953125 202.994140625 621.501953125 c 0
 225.661132812 648.501953125 250.661132812 668.834960938 277.994140625 682.501953125 c 0
 305.327148438 696.168945312 333.994140625 703.001953125 363.994140625 703.001953125 c 0
 386.661132812 703.001953125 406.994140625 701.168945312 424.994140625 697.501953125 c 0
 442.994140625 693.834960938 460.494140625 687.834960938 477.494140625 679.501953125 c 0
 494.494140625 671.168945312 509.494140625 660.001953125 522.494140625 646.001953125 c 0
 535.494140625 632.001953125 547.494140625 614.501953125 558.494140625 593.501953125 c 0
 569.494140625 572.501953125 578.494140625 548.001953125 585.494140625 520.001953125 c 0
 592.494140625 492.001953125 597.994140625 459.001953125 601.994140625 421.001953125 c 0
 605.994140625 383.001953125 607.994140625 340.334960938 607.994140625 293.001953125 c 0
 607.994140625 269.001953125 606.161132812 246.168945312 602.494140625 224.501953125 c 0
 598.827148438 202.834960938 593.494140625 182.501953125 586.494140625 163.501953125 c 0
 579.494140625 144.501953125 569.161132812 129.501953125 555.494140625 118.501953125 c 0
 541.827148438 107.501953125 525.994140625 102.001953125 507.994140625 102.001953125 c 0xdf80
 459.994140625 102.001953125 432.994140625 130.001953125 426.994140625 186.001953125 c 1
 411.661132812 140.668945312 382.661132812 118.001953125 339.994140625 118.001953125 c 0
 300.661132812 118.001953125 269.994140625 130.334960938 247.994140625 155.001953125 c 0
 225.994140625 179.668945312 214.994140625 217.3359375 214.994140625 268.002929688 c 0
 214.994140625 293.3359375 217.827148438 316.668945312 223.494140625 338.001953125 c 0
 229.161132812 359.334960938 236.828125 377.501953125 246.495117188 392.501953125 c 0
 256.162109375 407.501953125 267.495117188 420.168945312 280.495117188 430.501953125 c 0
 293.495117188 440.834960938 307.662109375 448.16796875 322.995117188 452.500976562 c 0
 336.283203125 456.255859375 349.821289062 458.133789062 363.610351562 458.133789062 c 0
 365.732421875 458.133789062 367.861328125 458.088867188 369.99609375 458 c 0
 385.99609375 457.333007812 401.99609375 453.666015625 417.99609375 446.999023438 c 0
 433.329101562 440.999023438 445.662109375 432.999023438 454.995117188 422.999023438 c 0
 464.328125 412.999023438 466.661132812 403.999023438 461.994140625 395.999023438 c 0
 459.327148438 390.666015625 456.327148438 386.333007812 452.994140625 383 c 0
 449.661132812 379.666992188 445.661132812 377.333984375 440.994140625 376.000976562 c 0
 436.327148438 374.66796875 431.994140625 373.66796875 427.994140625 373.000976562 c 0
 423.994140625 372.333984375 418.994140625 372.500976562 412.994140625 373.500976562 c 0
 406.994140625 374.500976562 402.327148438 375.333984375 398.994140625 376.000976562 c 0
 395.661132812 376.66796875 390.661132812 378.000976562 383.994140625 380.000976562 c 0
 375.327148438 381.333984375 366.827148438 381.666992188 358.494140625 381 c 0
 350.161132812 380.333007812 341.994140625 377.5 333.994140625 372.5 c 0
 325.994140625 367.5 318.994140625 361.166992188 312.994140625 353.5 c 0
 306.994140625 345.833007812 301.994140625 335.666015625 297.994140625 322.999023438 c 0
 293.994140625 310.33203125 291.994140625 295.999023438 291.994140625 279.999023438 c 0
 291.994140625 271.33203125 292.494140625 263.165039062 293.494140625 255.498046875 c 0
 294.494140625 247.831054688 296.494140625 239.1640625 299.494140625 229.497070312 c 0
 302.494140625 219.830078125 307.161132812 212.163085938 313.494140625 206.49609375 c 0
 319.827148438 200.829101562 327.66015625 197.99609375 336.993164062 197.99609375 c 0xbf80
 358.326171875 197.99609375 373.326171875 206.163085938 381.993164062 222.49609375 c 0
 390.66015625 238.829101562 395.66015625 265.99609375 396.993164062 303.99609375 c 0
 396.993164062 314.663085938 405.66015625 323.330078125 422.993164062 329.997070312 c 0
 433.80078125 334.2421875 443.602539062 336.365234375 452.3984375 336.365234375 c 0
 458.795898438 336.365234375 464.661132812 335.2421875 469.994140625 332.997070312 c 0
 478.661132812 329.6640625 482.328125 322.997070312 480.995117188 312.997070312 c 0
 478.328125 289.44140625 476.995117188 269.3671875 476.995117188 252.774414062 c 0
 476.995117188 244.478515625 477.328125 237.052734375 477.995117188 230.497070312 c 0
 479.995117188 210.830078125 483.328125 197.497070312 487.995117188 190.497070312 c 0
 492.662109375 183.497070312 499.329101562 179.997070312 507.99609375 179.997070312 c 0
 513.329101562 179.997070312 517.99609375 184.330078125 521.99609375 192.997070312 c 0
 525.99609375 201.6640625 528.829101562 212.997070312 530.49609375 226.997070312 c 0
 532.163085938 240.997070312 533.330078125 253.330078125 533.997070312 263.997070312 c 0
 534.6640625 274.6640625 534.997070312 284.997070312 534.997070312 294.997070312 c 0
 534.997070312 328.997070312 533.497070312 360.330078125 530.497070312 388.997070312 c 0
 527.497070312 417.6640625 523.830078125 442.1640625 519.497070312 462.497070312 c 0
 515.1640625 482.830078125 509.331054688 501.163085938 501.998046875 517.49609375 c 0
 494.665039062 533.829101562 487.665039062 547.162109375 480.998046875 557.495117188 c 0
 474.331054688 567.828125 466.331054688 576.661132812 456.998046875 583.994140625 c 0
 447.665039062 591.327148438 439.498046875 596.827148438 432.498046875 600.494140625 c 0
 425.498046875 604.161132812 417.498046875 606.994140625 408.498046875 608.994140625 c 0
 399.498046875 610.994140625 392.665039062 612.161132812 387.998046875 612.494140625 c 0
 383.331054688 612.827148438 377.6640625 612.994140625 370.997070312 612.994140625 c 0
 344.330078125 612.994140625 319.497070312 604.661132812 296.497070312 587.994140625 c 0
 273.497070312 571.327148438 253.1640625 548.16015625 235.497070312 518.493164062 c 0
 217.830078125 488.826171875 203.997070312 451.993164062 193.997070312 407.993164062 c 0
 183.997070312 363.993164062 178.997070312 315.993164062 178.997070312 263.993164062 c 0
 178.997070312 218.66015625 182.330078125 177.827148438 188.997070312 141.494140625 c 0
 195.6640625 105.161132812 204.6640625 75.828125 215.997070312 53.4951171875 c 0
 227.330078125 31.162109375 240.497070312 12.3291015625 255.497070312 -3.00390625 c 0
 270.497070312 -18.3369140625 285.497070312 -29.00390625 300.497070312 -35.00390625 c 0
 315.497070312 -41.00390625 330.997070312 -44.00390625 346.997070312 -44.00390625 c 0
 364.330078125 -44.00390625 380.330078125 -42.3369140625 394.997070312 -39.00390625 c 0
 409.6640625 -35.6708984375 421.831054688 -31.6708984375 431.498046875 -27.00390625 c 0
 441.165039062 -22.3369140625 450.33203125 -16.00390625 458.999023438 -8.00390625 c 0
 467.666015625 -0.00390625 474.333007812 7.3291015625 479 13.99609375 c 0
 483.666992188 20.6630859375 489 29.330078125 495 39.9970703125 c 0
 497.666992188 44.6640625 500 48.3310546875 502 50.998046875 c 0
 504 53.6650390625 506.333007812 56.83203125 509 60.4990234375 c 0
 511.666992188 64.166015625 514 66.8330078125 516 68.5 c 0
 518 70.1669921875 520.5 71.6669921875 523.5 73 c 0
 526.5 74.3330078125 529.5 75 532.5 75 c 0
 535.5 75 538.666992188 74.3330078125 542 73 c 0
 547.333007812 71 551.833007812 68.5 555.5 65.5 c 0
 559.166992188 62.5 562 58.5 564 53.5 c 0
 566 48.5 566.333007812 41.8330078125 565 33.5 c 0
 563.666992188 25.1669921875 561 15.6669921875 557 5 c 0xdf80
EndSplineSet
Validated: 1
EndChar

StartChar: A
Encoding: 65 65 33
Width: 700
GlyphClass: 2
Flags: HMW
HStem: -5.55122 21G 251 81.0059
VStem: 83.4769 90.5231
LayerCount: 2
Fore
SplineSet
174 41 m 2
 167.333007812 20.3330078125 158 6.6708984375 146 0.00390625 c 0
 139.333007812 -3.7001953125 132.563476562 -5.5517578125 125.690429688 -5.5517578125 c 0
 120.192382812 -5.5517578125 114.62890625 -4.3671875 108.999023438 -1.9970703125 c 0
 91.9853515625 5.78125 83.478515625 21.3564453125 83.478515625 44.7294921875 c 0
 83.478515625 53.4111328125 84.65234375 63.1689453125 87 74.0029296875 c 0
 91 95.3359375 110.333007812 147.3359375 145 230.002929688 c 1
 133 238.002929688 127 247.669921875 127 259.002929688 c 0
 126.333007812 268.3359375 130.5 277.168945312 139.5 285.501953125 c 0
 148.5 293.834960938 160.333007812 300.334960938 175 305.001953125 c 1
 257 495.668945312 320 623.001953125 364 687.001953125 c 0
 374 700.334960938 382.833007812 710.001953125 390.5 716.001953125 c 0
 398.166992188 722.001953125 406.666992188 725.001953125 416 725.001953125 c 0
 418.302734375 725.244140625 420.567382812 725.365234375 422.79296875 725.365234375 c 0
 432.809570312 725.365234375 442.044921875 722.911132812 450.499023438 718.001953125 c 0
 460.83203125 712.001953125 466.999023438 701.668945312 468.999023438 687.001953125 c 0
 482.999023438 604.334960938 506.499023438 487.16796875 539.499023438 335.500976562 c 0
 572.499023438 183.833984375 595.33203125 96.6669921875 607.999023438 74 c 0
 613.5546875 63.443359375 616.333007812 53.697265625 616.333007812 44.76171875 c 0
 616.333007812 42.9755859375 616.221679688 41.2216796875 616 39.5 c 0
 614.666992188 29.1669921875 611.333984375 20.5 606.000976562 13.5 c 0
 600.66796875 6.5 594.334960938 1.3330078125 587.001953125 -2 c 0
 581.2109375 -4.4375 575.419921875 -5.65625 569.62890625 -5.65625 c 2
 549 -0.4990234375 l 2
 536.333007812 5.833984375 526 19.6669921875 518 41 c 0
 509.333007812 61.6669921875 492.666015625 131.666992188 467.999023438 251 c 1
 382.666015625 247.666992188 306.333007812 240.666992188 239 230 c 1
 174 41 l 2
396 602.004882812 m 1
 366.666992188 557.337890625 325 462.671875 271 318.004882812 c 1
 339 326.004882812 399.333007812 330.671875 452 332.004882812 c 1
 396 602.004882812 l 1
EndSplineSet
Validated: 1
EndChar

StartChar: B
Encoding: 66 66 34
Width: 700
GlyphClass: 2
Flags: HMW
HStem: -22.9961 21G 297.004 72 630.004 78.999
VStem: 108 96.4978 461.997 90.0384 495.998 98.001
LayerCount: 2
Fore
SplineSet
299 -14 m 0xf4
 287.666992188 -14.6669921875 274.998046875 -15.6640625 260.998046875 -16.9970703125 c 0
 246.998046875 -18.330078125 235.665039062 -19.330078125 226.998046875 -19.9970703125 c 2
 200.998046875 -21.9970703125 l 2
 192.331054688 -22.6640625 184.498046875 -22.9970703125 177.498046875 -22.9970703125 c 0
 170.498046875 -22.9970703125 163.998046875 -22.330078125 157.998046875 -20.9970703125 c 2
 153.998046875 -20.9970703125 l 2
 140.665039062 -20.9970703125 129.83203125 -16.4970703125 121.499023438 -7.4970703125 c 0
 113.783203125 0.8359375 109.92578125 12.1689453125 109.92578125 26.5029296875 c 0
 109.92578125 33.943359375 112.25 48.533203125 112.25 135.748046875 c 0
 112.25 152.249023438 112.166992188 170.333984375 112 190.002929688 c 0
 111.333007812 268.669921875 110 349.669921875 108 433.002929688 c 0
 106.666992188 477.669921875 106 507.669921875 106 523.002929688 c 0
 106 538.3359375 106.5 559.002929688 107.5 585.002929688 c 0
 108.5 611.002929688 109 629.002929688 109 639.002929688 c 0
 109.666992188 657.002929688 114.5 670.502929688 123.5 679.502929688 c 0
 132.5 688.502929688 144 693.002929688 158 693.002929688 c 2
 163 693.002929688 l 2
 173.666992188 696.3359375 184.666992188 699.168945312 196 701.501953125 c 0
 207.333007812 703.834960938 217.833007812 705.501953125 227.5 706.501953125 c 0
 237.166992188 707.501953125 247.666992188 708.168945312 259 708.501953125 c 0
 270.333007812 708.834960938 279.166015625 709.001953125 285.499023438 709.001953125 c 2
 305.999023438 709.001953125 l 1
 316.999023438 709.001953125 l 2
 362.33203125 709.001953125 402.499023438 700.668945312 437.499023438 684.001953125 c 0
 472.499023438 667.334960938 500.166015625 643.16796875 520.499023438 611.500976562 c 0
 542.920898438 576.581054688 552.03515625 537.415039062 552.03515625 496.803710938 c 0xf8
 552.03515625 459.928710938 543.5234375 428.161132812 526.499023438 401.500976562 c 0
 508.83203125 373.833984375 484.33203125 353.666992188 452.999023438 341 c 1
 475.666015625 333.666992188 497.499023438 322.833984375 518.499023438 308.500976562 c 0
 539.499023438 294.16796875 557.33203125 278.16796875 571.999023438 260.500976562 c 0
 586.666015625 242.833984375 593.999023438 226.333984375 593.999023438 211.000976562 c 0
 593.999023438 185.66796875 587.666015625 160.500976562 574.999023438 135.500976562 c 0
 562.33203125 110.500976562 543.83203125 87.66796875 519.499023438 67.0009765625 c 0
 495.166015625 46.333984375 463.833007812 28.6669921875 425.5 14 c 0
 387.166992188 -0.6669921875 345 -10 299 -14 c 0xf4
314.998046875 630.002929688 m 0
 278.998046875 630.002929688 243.998046875 625.668945312 209.998046875 617.001953125 c 1
 209.998046875 604.334960938 209.331054688 584.001953125 207.998046875 556.001953125 c 0
 206.665039062 528.001953125 205.665039062 498.334960938 204.998046875 467.001953125 c 0
 204.6640625 451.3359375 204.497070312 435.502929688 204.497070312 419.502929688 c 0
 204.497070312 403.502929688 204.6640625 387.3359375 204.998046875 371.002929688 c 1
 236.331054688 369.669921875 265.998046875 369.002929688 293.998046875 369.002929688 c 0
 313.998046875 369.002929688 332.331054688 370.669921875 348.998046875 374.002929688 c 0
 365.665039062 377.3359375 379.498046875 381.668945312 390.498046875 387.001953125 c 0
 401.498046875 392.334960938 411.498046875 398.834960938 420.498046875 406.501953125 c 0
 429.498046875 414.168945312 436.331054688 422.001953125 440.998046875 430.001953125 c 0
 445.665039062 438.001953125 449.665039062 446.834960938 452.998046875 456.501953125 c 0
 456.331054688 466.168945312 458.6640625 474.8359375 459.997070312 482.502929688 c 0
 461.330078125 490.169921875 461.997070312 498.336914062 461.997070312 507.00390625 c 0
 461.997070312 524.336914062 458.497070312 540.336914062 451.497070312 555.00390625 c 0
 444.497070312 569.670898438 435.830078125 581.50390625 425.497070312 590.50390625 c 0
 415.1640625 599.50390625 403.331054688 607.170898438 389.998046875 613.50390625 c 0
 376.665039062 619.836914062 363.665039062 624.169921875 350.998046875 626.502929688 c 0
 338.331054688 628.8359375 326.331054688 630.002929688 314.998046875 630.002929688 c 0
300.998046875 297.001953125 m 1
 252.331054688 297.001953125 220.998046875 296.66796875 206.998046875 296.000976562 c 1
 209.665039062 188.66796875 211.665039062 112.334960938 212.998046875 67.001953125 c 1
 220.331054688 67.001953125 232.498046875 67.3349609375 249.498046875 68.001953125 c 0
 266.498046875 68.6689453125 279.331054688 69.001953125 287.998046875 69.001953125 c 0
 318.665039062 70.3349609375 347.498046875 75.66796875 374.498046875 85.0009765625 c 0
 401.498046875 94.333984375 423.331054688 105.500976562 439.998046875 118.500976562 c 0
 456.665039062 131.500976562 470.165039062 145.16796875 480.498046875 159.500976562 c 0
 490.831054688 173.833984375 495.998046875 187.000976562 495.998046875 199.000976562 c 0xf4
 495.998046875 207.66796875 492.331054688 216.334960938 484.998046875 225.001953125 c 0
 477.665039062 233.668945312 466.498046875 242.668945312 451.498046875 252.001953125 c 0
 436.498046875 261.334960938 415.998046875 270.001953125 389.998046875 278.001953125 c 0
 363.998046875 286.001953125 334.331054688 292.334960938 300.998046875 297.001953125 c 1
EndSplineSet
Validated: 1
EndChar

StartChar: C
Encoding: 67 67 35
Width: 700
GlyphClass: 2
Flags: HMW
HStem: -31.0911 90.092 518.417 222.246 632.001 80.9961
VStem: 92.0039 100.998 505.005 103.001
LayerCount: 2
Fore
SplineSet
580 64 m 0xb8
 525.015625 0.607421875 440.850585938 -31.091796875 327.495117188 -31.091796875 c 0
 324.025390625 -31.091796875 320.528320312 -31.0625 317.00390625 -31.0029296875 c 0
 289.670898438 -31.0029296875 263.670898438 -26.3359375 239.00390625 -17.0029296875 c 0
 214.336914062 -7.669921875 193.50390625 4.6630859375 176.50390625 19.99609375 c 0
 159.50390625 35.3291015625 144.336914062 53.162109375 131.00390625 73.4951171875 c 0
 117.670898438 93.828125 107.837890625 115.495117188 101.504882812 138.495117188 c 0
 95.171875 161.495117188 92.0048828125 184.662109375 92.0048828125 207.995117188 c 0
 92.0048828125 256.662109375 97.0048828125 303.662109375 107.004882812 348.995117188 c 0
 117.004882812 394.328125 130.504882812 435.328125 147.504882812 471.995117188 c 0
 164.504882812 508.662109375 184.337890625 542.329101562 207.004882812 572.99609375 c 0
 229.671875 603.663085938 253.838867188 629.163085938 279.505859375 649.49609375 c 0
 305.172851562 669.829101562 331.505859375 685.49609375 358.505859375 696.49609375 c 0
 385.505859375 707.49609375 411.338867188 712.99609375 436.005859375 712.99609375 c 0xb8
 460.672851562 712.99609375 483.33984375 710.329101562 504.006835938 704.99609375 c 1
 506.673828125 714.99609375 511.673828125 723.163085938 519.006835938 729.49609375 c 0
 526.33984375 735.829101562 535.006835938 739.329101562 545.006835938 739.99609375 c 0
 547.376953125 740.440429688 549.755859375 740.663085938 552.142578125 740.663085938 c 0
 560.49609375 740.663085938 568.950195312 737.940429688 577.505859375 732.49609375 c 0
 588.505859375 725.49609375 595.338867188 715.329101562 598.005859375 701.99609375 c 0
 600.005859375 691.99609375 602.005859375 682.163085938 604.005859375 672.49609375 c 0
 606.005859375 662.829101562 607.172851562 653.329101562 607.505859375 643.99609375 c 0
 607.838867188 634.663085938 608.005859375 626.99609375 608.005859375 620.99609375 c 2
 608.005859375 599.99609375 l 1
 608.005859375 584.99609375 l 2
 608.005859375 570.99609375 602.672851562 556.829101562 592.005859375 542.49609375 c 0
 581.338867188 528.163085938 570.671875 520.330078125 560.004882812 518.997070312 c 0
 557.682617188 518.610351562 555.353515625 518.416992188 553.018554688 518.416992188 c 0xd8
 543.2890625 518.416992188 533.451171875 521.77734375 523.504882812 528.498046875 c 0
 511.171875 536.831054688 505.004882812 547.998046875 505.004882812 561.998046875 c 0
 505.004882812 567.331054688 505.337890625 581.331054688 506.004882812 603.998046875 c 0
 505.337890625 604.665039062 502.170898438 606.83203125 496.50390625 610.499023438 c 0
 490.836914062 614.166015625 486.836914062 616.833007812 484.50390625 618.5 c 0
 482.170898438 620.166992188 478.337890625 622.333984375 473.004882812 625.000976562 c 0
 467.671875 627.66796875 462.504882812 629.500976562 457.504882812 630.500976562 c 0
 452.504882812 631.500976562 447.671875 632.000976562 443.004882812 632.000976562 c 0
 422.337890625 632.000976562 400.170898438 625.333984375 376.50390625 612.000976562 c 0
 352.836914062 598.66796875 330.169921875 579.66796875 308.502929688 555.000976562 c 0
 286.8359375 530.333984375 267.168945312 502.000976562 249.501953125 470.000976562 c 0
 231.834960938 438.000976562 218.001953125 401.833984375 208.001953125 361.500976562 c 0
 198.001953125 321.16796875 193.001953125 280.66796875 193.001953125 240.000976562 c 0
 193.001953125 210.66796875 198.668945312 182.000976562 210.001953125 154.000976562 c 0
 221.334960938 126.000976562 237.501953125 103.16796875 258.501953125 85.5009765625 c 0
 279.501953125 67.833984375 302.334960938 59.0009765625 327.001953125 59.0009765625 c 0
 348.334960938 59.0009765625 369.501953125 61.16796875 390.501953125 65.5009765625 c 0
 411.501953125 69.833984375 430.001953125 75.5009765625 446.001953125 82.5009765625 c 0
 462.001953125 89.5009765625 475.834960938 96.5009765625 487.501953125 103.500976562 c 0
 499.168945312 110.500976562 510.001953125 118.000976562 520.001953125 126.000976562 c 0
 528.668945312 132.000976562 536.168945312 136.66796875 542.501953125 140.000976562 c 0
 548.834960938 143.333984375 555.66796875 145.000976562 563.000976562 145.000976562 c 0
 570.333984375 145.000976562 577.666992188 142.66796875 585 138.000976562 c 0
 596.220703125 129.2734375 601.831054688 119.234375 601.831054688 107.883789062 c 0
 601.831054688 94.95703125 594.553710938 80.3291015625 580 64 c 0xb8
EndSplineSet
Validated: 1
EndChar

StartChar: D
Encoding: 68 68 36
Width: 700
GlyphClass: 2
Flags: HMW
HStem: -31 85.998 694.001 20G
VStem: 90.3732 98.6278 94.999 102.002 514.001 95.9971
LayerCount: 2
Fore
SplineSet
190.000976562 348 m 0xe8
 190.66796875 319.333007812 191.831054688 276.1640625 193.498046875 218.497070312 c 0
 195.165039062 160.830078125 196.333984375 117.330078125 197.000976562 87.9970703125 c 1
 224.333984375 75.9970703125 252.999023438 67.4970703125 282.999023438 62.4970703125 c 0
 312.999023438 57.4970703125 346.999023438 54.9970703125 384.999023438 54.9970703125 c 0
 403.666015625 54.9970703125 421.333007812 61.1640625 438 73.4970703125 c 0
 454.666992188 85.830078125 468.333984375 101.830078125 479.000976562 121.497070312 c 0
 489.66796875 141.1640625 498.16796875 162.831054688 504.500976562 186.498046875 c 0
 510.833984375 210.165039062 514.000976562 233.33203125 514.000976562 255.999023438 c 0
 514.000976562 381.33203125 462.66796875 476.999023438 360.000976562 542.999023438 c 0
 323.333984375 566.33203125 271.000976562 590.33203125 203.000976562 614.999023438 c 1
 202.000976562 615.999023438 l 1
 201.000976562 615.999023438 l 1
 200.000976562 615.999023438 l 1
 199.000976562 616.999023438 l 1
 198.000976562 616.999023438 l 1
 197.000976562 616.999023438 l 1
 197.000976562 617.999023438 l 1xd8
 196.000976562 617.999023438 l 1
 195.000976562 617.999023438 l 1
 194.000976562 618.999023438 l 1
 193.000976562 618.999023438 l 1
 192.000976562 618.999023438 l 1
 191.000976562 619.999023438 l 1
 190.000976562 619.999023438 l 1
 189.000976562 619.999023438 l 1
 189.000976562 620.999023438 l 1
 188.143554688 583.854492188 187.71484375 545.9140625 187.71484375 507.177734375 c 0
 187.71484375 455.533203125 188.4765625 402.473632812 190.000976562 348 c 0xe8
386 -31.0009765625 m 0
 352.666992188 -31.0009765625 320.16796875 -29.5 288.500976562 -26.5 c 0
 256.833984375 -23.5 231.666992188 -20 213 -16 c 0
 194.333007812 -12 178 -8.3330078125 164 -5 c 0
 150 -1.6669921875 141.666992188 0 139 0 c 0
 125.666992188 0 114.666992188 4.5 106 13.5 c 0
 98.48828125 21.2998046875 94.732421875 31.7294921875 94.732421875 44.7880859375 c 0
 94.732421875 46.796875 94.8212890625 48.8671875 94.9990234375 51 c 0xd8
 96.4990234375 74.9990234375 97.2490234375 112.965820312 97.2490234375 164.901367188 c 0
 97.2490234375 182.21484375 97.166015625 201.081054688 96.9990234375 221.5 c 0
 96.33203125 303.166992188 94.6650390625 391.666992188 91.998046875 487 c 0
 91.3310546875 524.333007812 90.8310546875 548.833007812 90.498046875 560.5 c 0
 90.4150390625 563.416015625 90.373046875 566.73828125 90.373046875 570.466796875 c 0xe8
 90.373046875 581.654296875 90.748046875 596.498046875 91.498046875 614.999023438 c 0
 92.498046875 639.666015625 92.998046875 654.666992188 92.998046875 660 c 0
 93.6650390625 678 98.6650390625 691.5 107.998046875 700.5 c 0
 117.331054688 709.5 128.998046875 714 142.998046875 714 c 0
 151.665039062 714 162.665039062 713.333007812 175.998046875 712 c 0
 189.331054688 710.666992188 206.498046875 708 227.498046875 704 c 0
 248.498046875 700 269.998046875 694.5 291.998046875 687.5 c 0
 313.998046875 680.5 337.831054688 670.666992188 363.498046875 658 c 0
 389.165039062 645.333007812 413.498046875 630.666015625 436.498046875 613.999023438 c 0
 459.498046875 597.33203125 481.665039062 576.499023438 502.998046875 551.499023438 c 0
 524.331054688 526.499023438 542.831054688 499.166015625 558.498046875 469.499023438 c 0
 574.165039062 439.83203125 586.665039062 404.499023438 595.998046875 363.499023438 c 0
 605.331054688 322.499023438 609.998046875 278.33203125 609.998046875 230.999023438 c 0
 609.998046875 207.666015625 606.831054688 183.999023438 600.498046875 159.999023438 c 0
 594.165039062 135.999023438 584.498046875 112.499023438 571.498046875 89.4990234375 c 0
 558.498046875 66.4990234375 543.331054688 45.9990234375 525.998046875 27.9990234375 c 0
 508.665039062 9.9990234375 487.83203125 -4.333984375 463.499023438 -15.0009765625 c 0
 439.166015625 -25.66796875 413.333007812 -31.0009765625 386 -31.0009765625 c 0
EndSplineSet
Validated: 1
EndChar

StartChar: E
Encoding: 69 69 37
Width: 700
GlyphClass: 2
Flags: HMW
HStem: -17.498 85.4132 -6.2352 90.7323 312.001 85.999 332.001 80.999 615.159 82.8417
VStem: 103.005 97.4971
LayerCount: 2
Fore
SplineSet
546 -6 m 0x4c
 543.815429688 -5.87890625 541.068359375 -5.818359375 537.7578125 -5.818359375 c 0
 522.880859375 -5.818359375 496.630859375 -7.044921875 459.002929688 -9.4990234375 c 0
 413.002929688 -12.4990234375 362.502929688 -15.166015625 307.502929688 -17.4990234375 c 0
 277.88671875 -18.7548828125 251.701171875 -19.3828125 228.947265625 -19.3828125 c 0
 209.4453125 -19.3828125 192.463867188 -18.9208984375 178.002929688 -17.998046875 c 0
 162.669921875 -17.3310546875 147.336914062 -9.8310546875 132.00390625 4.501953125 c 0
 116.670898438 18.8349609375 107.670898438 36.3349609375 105.00390625 57.001953125 c 0
 103.00390625 74.3349609375 102.00390625 105.501953125 102.00390625 150.501953125 c 0
 102.00390625 195.501953125 102.336914062 243.334960938 103.00390625 294.001953125 c 0
 103.2265625 310.899414062 103.337890625 328.500976562 103.337890625 346.806640625 c 0
 103.337890625 383.391601562 102.893554688 422.790039062 102.004882812 465.001953125 c 0
 101.337890625 505.001953125 100.837890625 531.501953125 100.504882812 544.501953125 c 0
 100.421875 547.750976562 100.379882812 551.385742188 100.379882812 555.405273438 c 0
 100.379882812 567.467773438 100.754882812 583 101.504882812 602.000976562 c 0
 102.504882812 627.333984375 103.004882812 643.000976562 103.004882812 649.000976562 c 0
 103.671875 667.000976562 108.671875 680.66796875 118.004882812 690.000976562 c 0
 127.337890625 699.333984375 139.004882812 704.000976562 153.004882812 704.000976562 c 0
 153.91796875 704.036132812 154.819335938 704.053710938 155.709960938 704.053710938 c 0
 171.731445312 704.053710938 184.163085938 698.369140625 193.004882812 687.000976562 c 1
 231.004882812 692.333984375 275.504882812 695.666992188 326.504882812 697 c 0
 352.004882812 697.666015625 376.046875 697.999023438 398.629882812 697.999023438 c 0
 421.212890625 697.999023438 442.337890625 697.666015625 462.00390625 697 c 0
 501.336914062 695.666992188 532.669921875 693.666992188 556.002929688 691 c 0
 572.002929688 689 583.002929688 685 589.002929688 679 c 0
 595.002929688 673 598.3359375 664.666992188 599.002929688 654 c 0
 599.002929688 648 598.3359375 642.333007812 597.002929688 637 c 0
 595.669921875 631.666992188 593.502929688 626.833984375 590.502929688 622.500976562 c 0
 587.502929688 618.16796875 583.002929688 614.66796875 577.002929688 612.000976562 c 0
 571.002929688 609.333984375 564.002929688 608.666992188 556.002929688 610 c 0
 509.829101562 613.438476562 463.383789062 615.158203125 416.666992188 615.158203125 c 0
 399.98046875 615.158203125 383.258789062 614.938476562 366.502929688 614.5 c 0
 302.8359375 612.833007812 248.3359375 608.666015625 203.002929688 601.999023438 c 1
 200.3359375 532.666015625 199.002929688 464.666015625 199.002929688 397.999023438 c 1xac
 247.669921875 397.999023438 314.002929688 400.499023438 398.002929688 405.499023438 c 0
 482.002929688 410.499023438 529.3359375 412.999023438 540.002929688 412.999023438 c 0
 555.3359375 412.999023438 566.168945312 409.666015625 572.501953125 402.999023438 c 0
 578.834960938 396.33203125 582.001953125 386.999023438 582.001953125 374.999023438 c 0
 582.001953125 346.318359375 568.6171875 331.977539062 541.848632812 331.977539062 c 0
 541.240234375 331.977539062 540.625 331.985351562 540.002929688 332 c 0x1c
 528.002929688 332 476.502929688 328.666992188 385.502929688 322 c 0
 294.502929688 315.333007812 232.669921875 312 200.002929688 312 c 1
 200.002929688 297.333007812 200.169921875 278.166015625 200.502929688 254.499023438 c 0
 200.8359375 230.83203125 201.168945312 210.499023438 201.501953125 193.499023438 c 0
 201.834960938 176.499023438 202.16796875 158.999023438 202.500976562 140.999023438 c 0
 202.833984375 122.999023438 203.500976562 108.166015625 204.500976562 96.4990234375 c 0
 205.500976562 84.83203125 207.000976562 76.6650390625 209.000976562 71.998046875 c 0
 219.112304688 69.275390625 241.079101562 67.9140625 274.900390625 67.9140625 c 0xac
 299.0546875 67.9140625 329.254882812 68.6083984375 365.500976562 69.9970703125 c 0
 452.500976562 73.330078125 508.333984375 77.6630859375 533.000976562 82.99609375 c 0
 542.333984375 84.3291015625 550.333984375 84.8291015625 557.000976562 84.49609375 c 0
 563.66796875 84.1630859375 569.500976562 82.830078125 574.500976562 80.4970703125 c 0
 579.500976562 78.1640625 583.500976562 75.6640625 586.500976562 72.9970703125 c 0
 589.500976562 70.330078125 591.833984375 66.830078125 593.500976562 62.4970703125 c 0
 595.16796875 58.1640625 596.500976562 54.3310546875 597.500976562 50.998046875 c 0
 598.500976562 47.6650390625 599.000976562 44.33203125 599.000976562 40.9990234375 c 0
 599.000976562 28.33203125 594.500976562 16.9990234375 585.500976562 6.9990234375 c 0
 577.559570312 -1.82421875 566.374023438 -6.2353515625 551.944335938 -6.2353515625 c 0
 550.020507812 -6.2353515625 548.0390625 -6.1572265625 546 -6 c 0x4c
EndSplineSet
Validated: 1
EndChar

StartChar: F
Encoding: 70 70 38
Width: 700
GlyphClass: 2
Flags: HMW
HStem: -21.0722 21G 322.534 84.6107 621.784 84.7164 694.192 20G
VStem: 104.738 103.262 107.255 93.745
LayerCount: 2
Fore
SplineSet
208 24 m 0xe8
 206.666992188 10 200.172851562 -1.166015625 188.505859375 -9.4990234375 c 0
 177.703125 -17.21484375 165.615234375 -21.072265625 152.241210938 -21.072265625 c 0
 151.170898438 -21.072265625 150.091796875 -21.0478515625 149.004882812 -20.998046875 c 0
 135.671875 -20.998046875 124.671875 -16.498046875 116.004882812 -7.498046875 c 0
 108.493164062 0.302734375 104.737304688 10.732421875 104.737304688 23.791015625 c 0xe8
 104.737304688 25.7998046875 104.826171875 27.8701171875 105.00390625 30.0029296875 c 0
 106.50390625 52.001953125 107.25390625 89.09375 107.25390625 141.279296875 c 0
 107.25390625 158.676757812 107.170898438 177.750976562 107.00390625 198.502929688 c 0
 106.336914062 281.502929688 104.669921875 367.002929688 102.002929688 455.002929688 c 0
 100.669921875 499.669921875 100.002929688 529.669921875 100.002929688 545.002929688 c 0
 100.002929688 560.3359375 100.502929688 581.002929688 101.502929688 607.002929688 c 0
 102.502929688 633.002929688 103.002929688 650.669921875 103.002929688 660.002929688 c 0
 103.669921875 678.002929688 108.669921875 691.502929688 118.002929688 700.502929688 c 0
 127.3359375 709.502929688 139.002929688 714.002929688 153.002929688 714.002929688 c 0
 154.716796875 714.129882812 156.391601562 714.193359375 158.02734375 714.193359375 c 0xd4
 173.56640625 714.193359375 185.55859375 708.462890625 194.002929688 697.001953125 c 1
 259.3359375 701.668945312 325.502929688 704.668945312 392.502929688 706.001953125 c 0
 409.251953125 706.334960938 425.241210938 706.501953125 440.469726562 706.501953125 c 0
 486.158203125 706.501953125 525.002929688 705.001953125 557.00390625 702.001953125 c 0
 572.336914062 700.668945312 583.169921875 696.8359375 589.502929688 690.502929688 c 0
 595.8359375 684.169921875 599.002929688 675.336914062 599.002929688 664.00390625 c 0
 599.002929688 651.336914062 595.3359375 640.669921875 588.002929688 632.002929688 c 0
 580.669921875 623.3359375 569.002929688 619.002929688 553.002929688 619.002929688 c 0
 515.669921875 620.857421875 477.20703125 621.78515625 437.615234375 621.78515625 c 0
 363.380859375 621.78515625 285.176757812 618.524414062 203.002929688 612.002929688 c 1
 203.002929688 600.669921875 202.669921875 582.502929688 202.002929688 557.502929688 c 0
 201.3359375 532.502929688 200.668945312 507.002929688 200.001953125 481.002929688 c 0
 199.66796875 468.002929688 199.500976562 454.919921875 199.500976562 441.752929688 c 0
 199.500976562 428.5859375 199.66796875 415.3359375 200.001953125 402.001953125 c 1
 230.286132812 405.430664062 263.508789062 407.145507812 299.669921875 407.145507812 c 0
 305.698242188 407.145507812 311.80859375 407.09765625 318.000976562 407.001953125 c 0
 361.333984375 406.334960938 400.666992188 404.501953125 436 401.501953125 c 0
 471.333007812 398.501953125 499 395.334960938 519 392.001953125 c 0
 535 389.334960938 546 385.001953125 552 379.001953125 c 0
 558 373.001953125 561.333007812 364.668945312 562 354.001953125 c 0
 562 348.001953125 561.5 342.501953125 560.5 337.501953125 c 0
 559.5 332.501953125 557.666992188 327.668945312 555 323.001953125 c 0
 552.333007812 318.334960938 548 314.834960938 542 312.501953125 c 0
 536 310.168945312 528.333007812 309.3359375 519 310.002929688 c 0
 498.333007812 313.3359375 470 316.168945312 434 318.501953125 c 0
 398 320.834960938 357.5 322.16796875 312.5 322.500976562 c 0
 309.502929688 322.5234375 306.541015625 322.534179688 303.61328125 322.534179688 c 0
 262.583984375 322.534179688 228.37890625 320.356445312 201 316 c 1xe4
 205 139.333007812 207.333007812 42 208 24 c 0xe8
EndSplineSet
Validated: 1
EndChar

StartChar: G
Encoding: 71 71 39
Width: 700
GlyphClass: 2
Flags: HMW
HStem: -31.0616 90.0616 278 81.8571 643.002 80.999
VStem: 90.9951 100.001
LayerCount: 2
Fore
SplineSet
579 244 m 0
 577.666992188 230 573.4921875 213.669921875 566.4921875 195.002929688 c 0
 559.4921875 176.3359375 550.825195312 156.502929688 540.4921875 135.502929688 c 0
 530.159179688 114.502929688 516.826171875 94.169921875 500.493164062 74.5029296875 c 0
 484.16015625 54.8359375 466.993164062 37.0029296875 448.993164062 21.0029296875 c 0
 430.993164062 5.0029296875 409.993164062 -7.830078125 385.993164062 -17.4970703125 c 0
 363.541992188 -26.5400390625 341.3828125 -31.0615234375 319.515625 -31.0615234375 c 0
 318.006835938 -31.0615234375 316.499023438 -31.0400390625 314.993164062 -30.9970703125 c 0
 287.66015625 -30.9970703125 261.827148438 -26.330078125 237.494140625 -16.9970703125 c 0
 213.161132812 -7.6640625 192.328125 4.6689453125 174.995117188 20.001953125 c 0
 157.662109375 35.3349609375 142.495117188 53.16796875 129.495117188 73.5009765625 c 0
 116.495117188 93.833984375 106.828125 115.500976562 100.495117188 138.500976562 c 0
 94.162109375 161.500976562 90.9951171875 184.66796875 90.9951171875 208.000976562 c 0
 90.9951171875 257.333984375 95.828125 305.333984375 105.495117188 352.000976562 c 0
 115.162109375 398.66796875 128.662109375 440.66796875 145.995117188 478.000976562 c 0
 163.328125 515.333984375 183.328125 549.500976562 205.995117188 580.500976562 c 0
 228.662109375 611.500976562 252.829101562 637.500976562 278.49609375 658.500976562 c 0
 304.163085938 679.500976562 330.330078125 695.66796875 356.997070312 707.000976562 c 0
 383.6640625 718.333984375 409.331054688 724.000976562 433.998046875 724.000976562 c 0
 461.998046875 724.000976562 493.165039062 717.500976562 527.498046875 704.500976562 c 0
 561.831054688 691.500976562 584.331054688 680.333984375 594.998046875 671.000976562 c 0
 604.776367188 661.22265625 609.665039062 649.518554688 609.665039062 635.888671875 c 0
 609.665039062 629.07421875 608.443359375 621.778320312 605.999023438 614.000976562 c 0
 603.33203125 605.333984375 596.999023438 599.000976562 586.999023438 595.000976562 c 0
 581.999023438 593.000976562 576.83203125 592.000976562 571.499023438 592.000976562 c 0
 566.166015625 592.000976562 560.666015625 593.000976562 555 595.000976562 c 0
 551 596.333984375 541.833007812 601.333984375 527.5 610.000976562 c 0
 513.166992188 618.66796875 498.5 626.334960938 483.5 633.001953125 c 0
 468.5 639.668945312 454.666992188 643.001953125 442 643.001953125 c 0
 421.333007812 643.001953125 399.166015625 636.168945312 375.499023438 622.501953125 c 0
 351.83203125 608.834960938 329.165039062 589.16796875 307.498046875 563.500976562 c 0
 285.831054688 537.833984375 266.1640625 508.666992188 248.497070312 476 c 0
 230.830078125 443.333007812 216.830078125 406.333007812 206.497070312 365 c 0
 196.1640625 323.666992188 190.997070312 282 190.997070312 240 c 0
 190.997070312 210.666992188 196.6640625 182 207.997070312 154 c 0
 219.330078125 126 235.497070312 103.166992188 256.497070312 85.5 c 0
 277.497070312 67.8330078125 300.6640625 59 325.997070312 59 c 0
 341.997070312 59 358.497070312 64.1669921875 375.497070312 74.5 c 0
 392.497070312 84.8330078125 407.6640625 98 420.997070312 114 c 0
 434.330078125 130 446.830078125 148 458.497070312 168 c 0
 470.1640625 188 480.1640625 207.333007812 488.497070312 226 c 0
 496.830078125 244.666992188 503.330078125 262 507.997070312 278 c 1
 465.997070312 276 424.830078125 272.333007812 384.497070312 267 c 0
 344.1640625 261.666992188 316.331054688 254.666992188 300.998046875 246 c 0
 295.629882812 243.158203125 290.374023438 241.737304688 285.23046875 241.737304688 c 0
 279.514648438 241.737304688 273.9375 243.491210938 268.499023438 247 c 0
 258.166015625 253.666992188 252.333007812 262.666992188 251 274 c 0
 250.509765625 277.1015625 250.264648438 280.118164062 250.264648438 283.05078125 c 0
 250.264648438 304.064453125 262.842773438 320.713867188 287.999023438 333 c 0
 306.666015625 342.333007812 347.499023438 349.5 410.499023438 354.5 c 0
 455.499023438 358.071289062 493.44140625 359.857421875 524.326171875 359.857421875 c 0
 536.6796875 359.857421875 547.904296875 359.571289062 557.999023438 359 c 0
 574.666015625 358.333007812 586.166015625 355.5 592.499023438 350.5 c 0
 598.83203125 345.5 603.33203125 337.666992188 605.999023438 327 c 0
 606.354492188 323.7109375 606.532226562 320.587890625 606.532226562 317.630859375 c 0
 606.532226562 298.41015625 599.021484375 286.200195312 584 281 c 0
 584 279 583.166992188 273.666992188 581.5 265 c 0
 579.833007812 256.333007812 579 249.333007812 579 244 c 0
EndSplineSet
Validated: 1
EndChar

StartChar: H
Encoding: 72 72 40
Width: 700
GlyphClass: 2
Flags: HMW
HStem: -21.0741 21G 311.999 86.001 694.074 20G
VStem: 117.997 98.002 489.09 99.5773
LayerCount: 2
Fore
SplineSet
582 24 m 0
 580.666992188 10 574.166015625 -1.169921875 562.499023438 -9.5029296875 c 0
 551.696289062 -17.21875 539.89453125 -21.076171875 527.091796875 -21.076171875 c 0
 526.067382812 -21.076171875 525.036132812 -21.0517578125 523.999023438 -21.001953125 c 0
 510.666015625 -21.001953125 499.666015625 -16.501953125 490.999023438 -7.501953125 c 0
 483.487304688 0.2978515625 479.731445312 10.7275390625 479.731445312 23.7861328125 c 0
 479.731445312 25.794921875 479.8203125 27.865234375 479.998046875 29.998046875 c 0
 486.05859375 114.237304688 489.088867188 207.841796875 489.088867188 310.811523438 c 0
 489.088867188 321.11328125 489.05859375 331.508789062 488.998046875 341.998046875 c 1
 477.665039062 341.331054688 436.83203125 336.1640625 366.499023438 326.497070312 c 0
 296.166015625 316.830078125 245.999023438 311.997070312 215.999023438 311.997070312 c 1
 215.999023438 309.997070312 215.83203125 306.497070312 215.499023438 301.497070312 c 0
 215.166015625 296.497070312 214.999023438 292.997070312 214.999023438 290.997070312 c 0
 212.999023438 257.997070312 211.999023438 219.247070312 211.999023438 174.747070312 c 0
 211.999023438 130.247070312 212.999023438 79.9970703125 214.999023438 23.9970703125 c 0
 213.666015625 9.9970703125 206.999023438 -1.169921875 194.999023438 -9.5029296875 c 0
 183.888671875 -17.21875 171.920898438 -21.076171875 159.095703125 -21.076171875 c 0
 158.069335938 -21.076171875 157.037109375 -21.0517578125 156 -21.001953125 c 0
 142.666992188 -21.001953125 131.666992188 -16.501953125 123 -7.501953125 c 0
 115.48828125 0.298828125 111.732421875 10.728515625 111.732421875 23.787109375 c 0
 111.732421875 25.7958984375 111.821289062 27.8662109375 111.999023438 29.9990234375 c 0
 112.666015625 39.33203125 113.166015625 54.33203125 113.499023438 74.9990234375 c 0
 113.83203125 95.666015625 113.999023438 123.333007812 113.999023438 158 c 0
 113.999023438 192.666992188 114.33203125 224 114.999023438 252 c 0
 114.999023438 274.666992188 115.666015625 307.166992188 116.999023438 349.5 c 0
 118.33203125 391.833007812 119.165039062 423.166015625 119.498046875 443.499023438 c 0
 119.609375 450.270507812 119.665039062 458.168945312 119.665039062 467.1953125 c 0
 119.665039062 485.2734375 119.442382812 507.875 118.997070312 535 c 0
 118.330078125 565 117.997070312 584.166992188 117.997070312 592.5 c 0
 117.997070312 600.833007812 118.330078125 612.333007812 118.997070312 627 c 0
 119.6640625 641.666992188 120.331054688 652.666992188 120.998046875 660 c 0
 121.665039062 678 126.498046875 691.5 135.498046875 700.5 c 0
 144.498046875 709.5 155.998046875 714 169.998046875 714 c 0
 171.084960938 714.049804688 172.158203125 714.07421875 173.217773438 714.07421875 c 0
 186.455078125 714.07421875 197.548828125 710.216796875 206.499023438 702.500976562 c 0
 216.166015625 694.16796875 220.999023438 681.000976562 220.999023438 663.000976562 c 0
 220.999023438 656.333984375 220.166015625 642.000976562 218.499023438 620.000976562 c 0
 216.83203125 598.000976562 215.999023438 577.66796875 215.999023438 559.000976562 c 0
 215.999023438 541.66796875 216.33203125 515.16796875 216.999023438 479.500976562 c 0
 217.666015625 443.833984375 217.999023438 416.666992188 217.999023438 398 c 1
 252.666015625 398 288.333007812 400 325 404 c 0
 361.666992188 408 395 412 425 416 c 0
 455 420 476 422.666992188 488 424 c 1
 488 428.666992188 487.666992188 435.5 487 444.5 c 0
 486.333007812 453.5 486 460.333007812 486 465 c 0
 485.333007812 506.333007812 485 533.666015625 485 546.999023438 c 0
 485 560.33203125 485.5 580.999023438 486.5 608.999023438 c 0
 487.5 636.999023438 488.333007812 653.999023438 489 659.999023438 c 0
 489 677.999023438 493.833007812 691.499023438 503.5 700.499023438 c 0
 513.166992188 709.499023438 524.666992188 713.999023438 538 713.999023438 c 0
 539.086914062 714.048828125 540.16015625 714.073242188 541.219726562 714.073242188 c 0
 554.45703125 714.073242188 565.55078125 710.215820312 574.500976562 702.5 c 0
 584.16796875 694.166992188 589.000976562 681 589.000976562 663 c 0
 589.000976562 650.333007812 588.66796875 624.333007812 588.000976562 585 c 0
 587.333984375 545.666992188 586.833984375 511.166992188 586.500976562 481.5 c 0
 586.434570312 475.5703125 586.401367188 469.114257812 586.401367188 462.131835938 c 0
 586.401367188 434.18359375 586.934570312 397.806640625 588.000976562 353 c 0
 588.4453125 337.448242188 588.666992188 320.267578125 588.666992188 301.458007812 c 0
 588.666992188 263.825195312 587.778320312 219.672851562 586 169 c 0
 583.333007812 93 582 44.6669921875 582 24 c 0
EndSplineSet
Validated: 1
EndChar

StartChar: I
Encoding: 73 73 41
Width: 700
GlyphClass: 2
Flags: HMW
HStem: -13.998 80.001 -6.39919 77.8992 612.001 89.001 625.002 85.3327
VStem: 295.007 101.995 303.073 100.596
LayerCount: 2
Fore
SplineSet
558 -11 m 0x68
 540.666992188 -8.3330078125 512.177734375 -6.8310546875 472.510742188 -6.498046875 c 0
 464.58203125 -6.431640625 456.70703125 -6.3984375 448.884765625 -6.3984375 c 0x68
 417.573242188 -6.3984375 387.115234375 -6.931640625 357.510742188 -7.998046875 c 0
 320.510742188 -9.3310546875 280.84375 -10.6640625 238.510742188 -11.9970703125 c 0
 196.177734375 -13.330078125 166.677734375 -13.9970703125 150.010742188 -13.9970703125 c 0
 132.677734375 -13.9970703125 120.010742188 -10.6640625 112.010742188 -3.9970703125 c 0
 100.213867188 5.833984375 99.927734375 17.4921875 99.927734375 24.966796875 c 0
 99.927734375 35.6865234375 103.288085938 44.865234375 110.009765625 52.50390625 c 0
 117.342773438 60.8369140625 129.67578125 65.3369140625 147.008789062 66.00390625 c 0
 175.008789062 67.3369140625 224.341796875 69.00390625 295.008789062 71.00390625 c 1x88
 300.385742188 154.600585938 303.07421875 241.782226562 303.07421875 332.547851562 c 0
 303.07421875 365.559570312 302.71875 399.044921875 302.0078125 433.004882812 c 0
 301.340820312 457.004882812 300.840820312 479.671875 300.5078125 501.004882812 c 0
 300.174804688 522.337890625 300.0078125 537.670898438 300.0078125 547.00390625 c 0
 300.0078125 556.336914062 300.674804688 570.836914062 302.0078125 590.50390625 c 0
 303.340820312 610.170898438 304.0078125 621.670898438 304.0078125 625.00390625 c 0
 273.673828125 625.669921875 246.33984375 626.002929688 222.005859375 626.002929688 c 0
 197.671875 626.002929688 176.337890625 625.669921875 158.004882812 625.002929688 c 0
 141.337890625 625.002929688 128.504882812 628.669921875 119.504882812 636.002929688 c 0
 106.23046875 646.818359375 105.930664062 659.26953125 105.930664062 666.641601562 c 0
 105.930664062 677.5234375 109.788085938 686.9765625 117.50390625 695.000976562 c 0
 125.836914062 703.66796875 139.00390625 708.000976562 157.00390625 708.000976562 c 0
 212.563476562 709.556640625 264.270507812 710.334960938 312.125 710.334960938 c 0x94
 407.82421875 710.334960938 488.1171875 707.223632812 553.00390625 701.001953125 c 0
 582.336914062 698.334960938 597.669921875 684.66796875 599.002929688 660.000976562 c 0
 599.002929688 654.000976562 598.169921875 648.16796875 596.502929688 642.500976562 c 0
 594.8359375 636.833984375 592.002929688 631.333984375 588.002929688 626.000976562 c 0
 584.002929688 620.66796875 578.669921875 616.500976562 572.002929688 613.500976562 c 0
 565.3359375 610.500976562 558.3359375 610.000976562 551.002929688 612.000976562 c 0
 531.002929688 615.333984375 482.002929688 619.000976562 404.002929688 623.000976562 c 1
 404.002929688 617.66796875 403.669921875 602.66796875 403.002929688 578.000976562 c 0
 402.3359375 553.333984375 402.002929688 533.666992188 402.002929688 519 c 2
 402.002929688 456 l 2
 402.002929688 428.666992188 402.3359375 401.666992188 403.002929688 375 c 0
 403.447265625 359.2265625 403.668945312 342.157226562 403.668945312 323.791992188 c 0x24
 403.668945312 287.047851562 402.780273438 245.1171875 401.001953125 198 c 0
 398.334960938 127.333007812 397.001953125 85.3330078125 397.001953125 72 c 1
 425.668945312 72 459.001953125 71.8330078125 497.001953125 71.5 c 0
 535.001953125 71.1669921875 555.334960938 71 558.001953125 71 c 0
 573.334960938 71 584.16796875 67.5 590.500976562 60.5 c 0
 596.833984375 53.5 600.000976562 44.3330078125 600.000976562 33 c 0
 600.000976562 27 599.66796875 21.5 599.000976562 16.5 c 0
 598.333984375 11.5 596.333984375 6.5 593.000976562 1.5 c 0
 589.66796875 -3.5 585.16796875 -7.1669921875 579.500976562 -9.5 c 0
 573.833984375 -11.8330078125 566.666992188 -12.3330078125 558 -11 c 0x68
EndSplineSet
Validated: 1
EndChar

StartChar: J
Encoding: 74 74 42
Width: 700
GlyphClass: 2
Flags: HMW
HStem: -35.001 101.001 625 82.999
VStem: 97.0039 89 360.003 93.9971
LayerCount: 2
Fore
SplineSet
451 215 m 0
 445.666992188 155 437.66796875 106.33203125 427.000976562 68.9990234375 c 0
 416.333984375 31.666015625 403.333984375 4.9990234375 388.000976562 -11.0009765625 c 0
 372.66796875 -27.0009765625 354.66796875 -35.0009765625 334.000976562 -35.0009765625 c 0
 311.333984375 -35.0009765625 289.000976562 -31.0009765625 267.000976562 -23.0009765625 c 0
 245.000976562 -15.0009765625 225.833984375 -4.333984375 209.500976562 8.9990234375 c 0
 193.16796875 22.33203125 178.000976562 36.83203125 164.000976562 52.4990234375 c 0
 150.000976562 68.166015625 138.333984375 83.8330078125 129.000976562 99.5 c 0
 119.66796875 115.166992188 112.334960938 129.166992188 107.001953125 141.5 c 0
 101.668945312 153.833007812 98.6689453125 163.666015625 98.001953125 170.999023438 c 0
 96.6689453125 176.999023438 96.3359375 184.166015625 97.0029296875 192.499023438 c 0
 97.669921875 200.83203125 99.169921875 208.665039062 101.502929688 215.998046875 c 0
 103.8359375 223.331054688 107.8359375 229.831054688 113.502929688 235.498046875 c 0
 119.169921875 241.165039062 127.002929688 244.665039062 137.002929688 245.998046875 c 0
 140.55859375 246.64453125 143.948242188 246.967773438 147.170898438 246.967773438 c 0
 157.241210938 246.967773438 165.684570312 243.811523438 172.502929688 237.499023438 c 0
 181.502929688 229.166015625 186.002929688 218.666015625 186.002929688 205.999023438 c 0
 186.002929688 198.666015625 187.3359375 189.833007812 190.002929688 179.5 c 0
 192.669921875 169.166992188 197.169921875 157.166992188 203.502929688 143.5 c 0
 209.8359375 129.833007812 217.668945312 117.333007812 227.001953125 106 c 0
 236.334960938 94.6669921875 249.501953125 85.1669921875 266.501953125 77.5 c 0
 283.501953125 69.8330078125 301.668945312 66 321.001953125 66 c 0
 345.001953125 66 358.668945312 124 362.001953125 240 c 0
 362.001953125 254.666992188 361.334960938 301.666992188 360.001953125 381 c 0
 359.3359375 420.666015625 359.002929688 460.749023438 359.002929688 501.249023438 c 0
 359.002929688 541.749023438 359.3359375 582.666015625 360.001953125 624 c 1
 315.203125 625.200195312 273.5234375 625.799804688 234.963867188 625.799804688 c 0
 209.256835938 625.799804688 184.936523438 625.533203125 162.002929688 625 c 0
 145.3359375 625 132.668945312 628.666992188 124.001953125 636 c 0
 111.2734375 646.76953125 110.927734375 659.155273438 110.927734375 666.639648438 c 0
 110.927734375 677.521484375 114.78515625 686.974609375 122.500976562 694.999023438 c 0
 130.833984375 703.666015625 143.666992188 707.999023438 161 707.999023438 c 0
 216.559570312 709.5546875 268.229492188 710.333007812 316.009765625 710.333007812 c 0
 411.561523438 710.333007812 491.55859375 707.221679688 556.000976562 701 c 0
 585.333984375 698.333007812 601.000976562 684.666015625 603.000976562 659.999023438 c 0
 603.000976562 653.999023438 602.000976562 648.166015625 600.000976562 642.499023438 c 0
 598.000976562 636.83203125 595.333984375 631.33203125 592.000976562 625.999023438 c 0
 588.66796875 620.666015625 583.66796875 616.499023438 577.000976562 613.499023438 c 0
 570.333984375 610.499023438 562.666992188 609.999023438 554 611.999023438 c 0
 530.666992188 615.33203125 495 618.33203125 447 620.999023438 c 1
 447 601.666015625 447.666992188 572.333007812 449 533 c 0
 450.333007812 493.666992188 451.5 457.833984375 452.5 425.500976562 c 0
 453.5 393.16796875 454 357.16796875 454 317.500976562 c 0
 454 277.833984375 453 243.666992188 451 215 c 0
EndSplineSet
Validated: 1
EndChar

StartChar: K
Encoding: 75 75 43
Width: 700
GlyphClass: 2
Flags: HMW
HStem: -21.0751 21G 694.072 20G
VStem: 106.735 95.2646
LayerCount: 2
Fore
SplineSet
210 24 m 0
 208.666992188 10 202.171875 -1.16796875 190.504882812 -9.5009765625 c 0
 179.702148438 -17.216796875 167.614257812 -21.07421875 154.240234375 -21.07421875 c 0
 153.169921875 -21.07421875 152.090820312 -21.0498046875 151.00390625 -21 c 0
 137.670898438 -21 126.670898438 -16.5 118.00390625 -7.5 c 0
 110.4921875 0.30078125 106.736328125 10.73046875 106.736328125 23.7890625 c 0
 106.736328125 25.7978515625 106.825195312 27.8681640625 107.002929688 30.0009765625 c 0
 108.502929688 52 109.252929688 89.091796875 109.252929688 141.276367188 c 0
 109.252929688 158.673828125 109.169921875 177.748046875 109.002929688 198.5 c 0
 108.3359375 281.5 106.668945312 367 104.001953125 455 c 0
 102.668945312 497.666992188 102.001953125 526.5 102.001953125 541.5 c 0
 102.001953125 556.5 102.501953125 578.166992188 103.501953125 606.5 c 0
 104.501953125 634.833007812 105.001953125 652.666015625 105.001953125 659.999023438 c 0
 105.668945312 677.999023438 110.668945312 691.499023438 120.001953125 700.499023438 c 0
 129.334960938 709.499023438 141.001953125 713.999023438 155.001953125 713.999023438 c 0
 156.088867188 714.048828125 157.162109375 714.073242188 158.221679688 714.073242188 c 0
 171.458984375 714.073242188 182.552734375 710.215820312 191.502929688 702.5 c 0
 201.169921875 694.166992188 206.002929688 681 206.002929688 663 c 0
 206.002929688 647 205.3359375 612 204.002929688 558 c 0
 202.669921875 504 202.002929688 459.333007812 202.002929688 424 c 1
 226.002929688 447.333007812 262.002929688 482.666015625 310.002929688 529.999023438 c 0
 358.002929688 577.33203125 396.3359375 614.83203125 425.002929688 642.499023438 c 0
 453.669921875 670.166015625 472.002929688 687.333007812 480.002929688 694 c 0
 489.3359375 702.666992188 498.3359375 708.5 507.002929688 711.5 c 0
 515.669921875 714.5 523.169921875 715.166992188 529.502929688 713.5 c 0
 535.8359375 711.833007812 541.668945312 708.333007812 547.001953125 703 c 0
 554.512695312 694.911132812 558.268554688 685.946289062 558.268554688 676.10546875 c 0
 558.268554688 663.235351562 551.845703125 648.8671875 539.000976562 633 c 0
 529.000976562 621 493.66796875 584.5 433.000976562 523.5 c 0
 372.333984375 462.5 318.333984375 409.333007812 271.000976562 364 c 1
 293.66796875 340 332.16796875 302.5 386.500976562 251.5 c 0
 440.833984375 200.5 488.000976562 155.666992188 528.000976562 117 c 0
 568.000976562 78.3330078125 590.333984375 54 595.000976562 44 c 0
 597.000976562 37.666015625 598.000976562 31.666015625 598.000976562 25.9990234375 c 0
 598.000976562 20.33203125 597.000976562 14.9990234375 595.000976562 9.9990234375 c 0
 591.000976562 -0.0009765625 585.000976562 -7.66796875 577.000976562 -13.0009765625 c 0
 568.725585938 -18.5986328125 560.495117188 -21.3974609375 552.30859375 -21.3974609375 c 0
 538.071289062 -21.3974609375 523.96875 -12.931640625 510 4 c 0
 503.333007812 12.6669921875 479.5 35.6669921875 438.5 73 c 0
 397.5 110.333007812 353.333007812 151.5 306 196.5 c 0
 258.666992188 241.5 224 277.333007812 202 304 c 1
 202 284 l 2
 202 272.666992188 204.666992188 186 210 24 c 0
EndSplineSet
Validated: 1
EndChar

StartChar: L
Encoding: 76 76 44
Width: 700
GlyphClass: 2
Flags: HMW
HStem: -15.0049 86.9159
VStem: 101.998 103.002 131.798 91.7021
LayerCount: 2
Fore
SplineSet
555 10 m 0xc0
 509.666992188 1.3330078125 440.999023438 -5.005859375 348.999023438 -9.005859375 c 0
 256.999023438 -13.005859375 189.33203125 -15.005859375 145.999023438 -15.005859375 c 0
 132.666015625 -15.005859375 121.666015625 -10.505859375 112.999023438 -1.505859375 c 0
 105.487304688 6.294921875 101.731445312 16.724609375 101.731445312 29.783203125 c 0
 101.731445312 31.7919921875 101.8203125 33.8623046875 101.998046875 35.9951171875 c 0xc0
 101.998046875 41.328125 105.831054688 79.4951171875 113.498046875 150.495117188 c 0
 121.165039062 221.495117188 126.665039062 289.995117188 129.998046875 355.995117188 c 0
 131.198242188 373.995117188 131.797851562 400.994140625 131.797851562 436.993164062 c 0
 131.797851562 460.993164062 131.53125 488.994140625 130.998046875 520.995117188 c 0
 129.665039062 600.995117188 128.998046875 644.328125 128.998046875 650.995117188 c 0
 129.665039062 668.995117188 134.83203125 682.662109375 144.499023438 691.995117188 c 0
 154.166015625 701.328125 165.666015625 705.995117188 178.999023438 705.995117188 c 0
 180.0859375 706.044921875 181.159179688 706.069335938 182.21875 706.069335938 c 0
 195.456054688 706.069335938 206.549804688 702.211914062 215.5 694.49609375 c 0
 225.166992188 686.163085938 230 672.99609375 230 654.99609375 c 0
 230 635.663085938 229.333007812 609.330078125 228 575.997070312 c 0
 226.666992188 542.6640625 225.166992188 500.6640625 223.5 449.997070312 c 0xa0
 221.833007812 399.330078125 220.333007812 355.330078125 219 317.997070312 c 0
 218.333007812 289.997070312 215.833007812 249.330078125 211.5 195.997070312 c 0
 207.166992188 142.6640625 205 101.331054688 205 71.998046875 c 1
 209.87109375 71.9404296875 214.811523438 71.9111328125 219.821289062 71.9111328125 c 0
 272.40625 71.9111328125 332.6328125 75.107421875 400.5 81.498046875 c 0
 474.833007812 88.498046875 524.333007812 95.3310546875 549 101.998046875 c 0
 557 103.998046875 564.166992188 103.665039062 570.5 100.998046875 c 0
 576.833007812 98.3310546875 581.833007812 94.3310546875 585.5 88.998046875 c 0
 589.166992188 83.6650390625 592.166992188 77.83203125 594.5 71.4990234375 c 0
 596.833007812 65.166015625 598 59.3330078125 598 54 c 0
 598 42 595 32.3330078125 589 25 c 0
 583 17.6669921875 571.666992188 12.6669921875 555 10 c 0xc0
EndSplineSet
Validated: 1
EndChar

StartChar: M
Encoding: 77 77 45
Width: 700
GlyphClass: 2
Flags: HMW
HStem: -9.99414 21G<120.001 126.667>
VStem: 83.999 83.001 296.001 104.999
LayerCount: 2
Fore
SplineSet
167 59 m 0
 167.044921875 57.578125 167.068359375 56.17578125 167.068359375 54.7939453125 c 0
 167.068359375 35.443359375 162.7109375 20.0166015625 154 8.505859375 c 0
 144.666992188 -3.8271484375 133.333984375 -9.994140625 120.000976562 -9.994140625 c 0
 96.0009765625 -9.3271484375 84.0009765625 15.33984375 84.0009765625 64.0068359375 c 0
 84.0009765625 72.0068359375 85.0009765625 85.673828125 87.0009765625 105.006835938 c 0
 89.0009765625 124.33984375 91.5009765625 149.672851562 94.5009765625 181.005859375 c 0
 97.5009765625 212.338867188 100.000976562 239.671875 102.000976562 263.004882812 c 0
 102.66796875 271.004882812 103.66796875 283.337890625 105.000976562 300.004882812 c 0
 109.000976562 349.337890625 112.16796875 387.837890625 114.500976562 415.504882812 c 0
 116.833984375 443.171875 120.333984375 477.671875 125.000976562 519.004882812 c 0
 129.66796875 560.337890625 133.834960938 592.837890625 137.501953125 616.504882812 c 0
 141.168945312 640.171875 145.668945312 656.671875 151.001953125 666.004882812 c 0
 157.668945312 680.004882812 167.8359375 690.171875 181.502929688 696.504882812 c 0
 192.79296875 701.736328125 203.7421875 704.352539062 214.350585938 704.352539062 c 0
 216.583007812 704.352539062 218.80078125 704.236328125 221.002929688 704.004882812 c 0
 251.002929688 704.004882812 269.669921875 691.671875 277.002929688 667.004882812 c 0
 285.002929688 637.671875 293.669921875 589.171875 303.002929688 521.504882812 c 0
 312.3359375 453.837890625 321.8359375 376.670898438 331.502929688 290.00390625 c 0
 341.169921875 203.336914062 348.002929688 146.00390625 352.002929688 118.00390625 c 1
 358.669921875 212.00390625 366.336914062 296.670898438 375.00390625 372.00390625 c 0
 381.00390625 427.336914062 389.170898438 483.00390625 399.50390625 539.00390625 c 0
 409.836914062 595.00390625 419.00390625 637.670898438 427.00390625 667.00390625 c 0
 429.670898438 677.00390625 435.170898438 685.170898438 443.50390625 691.50390625 c 0
 451.836914062 697.836914062 460.669921875 701.669921875 470.002929688 703.002929688 c 0
 476.223632812 703.891601562 482 704.3359375 487.33203125 704.3359375 c 0
 490 704.3359375 492.556640625 704.224609375 495.001953125 704.001953125 c 2
 499.001953125 704.001953125 l 1
 512.501953125 704.001953125 l 2
 516.168945312 704.001953125 521.168945312 703.168945312 527.501953125 701.501953125 c 0
 533.834960938 699.834960938 539.001953125 697.66796875 543.001953125 695.000976562 c 0
 547.001953125 692.333984375 550.668945312 688.166992188 554.001953125 682.5 c 0
 557.334960938 676.833007812 559.66796875 670 561.000976562 662 c 0
 563.66796875 642 571.334960938 544.333007812 584.001953125 369 c 0
 596.668945312 193.666992188 606.001953125 94.6669921875 612.001953125 72 c 0
 614.668945312 60.5712890625 616.001953125 50.33984375 616.001953125 41.3056640625 c 0
 616.001953125 18.720703125 607.668945312 3.6181640625 591.001953125 -4.0009765625 c 0
 585.2109375 -6.4384765625 579.419921875 -7.6572265625 573.62890625 -7.6572265625 c 2
 553 -2.5 l 2
 540.333007812 3.8330078125 531 17.666015625 525 38.9990234375 c 0
 511 83.666015625 498.666992188 278.333007812 488 623 c 1
 468.666992188 526.333007812 456 438.333007812 450 359 c 0
 444 283 435.833007812 210.833007812 425.5 142.5 c 0
 415.166992188 74.1669921875 407 32.333984375 401 17.0009765625 c 0
 393.666992188 1.0009765625 375 -6.9990234375 345 -6.9990234375 c 0
 343.333007812 -7.08203125 341.705078125 -7.1240234375 340.116210938 -7.1240234375 c 0
 328.997070312 -7.1240234375 319.791992188 -5.08203125 312.500976562 -0.9990234375 c 0
 304.16796875 3.66796875 298.66796875 10.3349609375 296.000976562 19.001953125 c 0
 288.000976562 51.001953125 274.66796875 124.501953125 256.000976562 239.501953125 c 0
 237.333984375 354.501953125 220.333984375 464.668945312 205.000976562 570.001953125 c 1
 203.000976562 548.668945312 201.16796875 524.668945312 199.500976562 498.001953125 c 0
 197.833984375 471.334960938 196.333984375 448.16796875 195.000976562 428.500976562 c 0
 193.66796875 408.833984375 191.500976562 379.666992188 188.500976562 341 c 0
 185.500976562 302.333007812 183.333984375 273 182.000976562 253 c 0
 180.66796875 225 178.66796875 196.166992188 176.000976562 166.5 c 0
 173.333984375 136.833007812 171.166992188 113.5 169.5 96.5 c 0
 167.833007812 79.5 167 67 167 59 c 0
EndSplineSet
Validated: 1
EndChar

StartChar: N
Encoding: 78 78 46
Width: 700
GlyphClass: 2
Flags: HMW
HStem: -14.1178 21G
VStem: 104.001 82.7479 503.421 92.5787 513.002 83.18
LayerCount: 2
Fore
SplineSet
522 -14 m 0xd0
 520.5078125 -14.078125 519.045898438 -14.1181640625 517.614257812 -14.1181640625 c 0
 506.888671875 -14.1181640625 497.848632812 -11.9140625 490.497070312 -7.5029296875 c 0
 482.1640625 -2.5029296875 476.331054688 4.330078125 472.998046875 12.9970703125 c 0
 466.998046875 26.330078125 450.998046875 55.6630859375 424.998046875 100.99609375 c 0
 398.998046875 146.329101562 372.165039062 193.49609375 344.498046875 242.49609375 c 0
 316.831054688 291.49609375 287.831054688 346.329101562 257.498046875 406.99609375 c 0
 227.165039062 467.663085938 204.33203125 519.330078125 188.999023438 561.997070312 c 1
 192.19921875 503.86328125 193.798828125 448.9296875 193.798828125 397.196289062 c 0
 193.798828125 384.262695312 193.69921875 371.529296875 193.499023438 358.99609375 c 0
 192.499023438 296.329101562 190.999023438 232.49609375 188.999023438 167.49609375 c 0
 187.499023438 118.748046875 186.749023438 84.3427734375 186.749023438 64.2802734375 c 0
 186.749023438 55.919921875 187.065429688 44.9990234375 187.065429688 44.8046875 c 0
 187.065429688 25.599609375 182.709960938 11.330078125 173.999023438 1.9970703125 c 0
 165.25 -7.3779296875 154.743164062 -12.0654296875 142.478515625 -12.0654296875 c 0
 141.66015625 -12.0654296875 140.833984375 -12.044921875 140 -12.0029296875 c 0
 126 -12.0029296875 116.5 -6.3359375 111.5 4.9970703125 c 0
 106.5 16.330078125 104 32.9970703125 104 54.9970703125 c 0
 104 68.330078125 105 119.997070312 107 209.997070312 c 0
 109 299.997070312 110.333007812 378.6640625 111 445.997070312 c 0
 111.166992188 462.83203125 111.25 479.5 111.25 496.001953125 c 0
 111.25 545.5 110.5 593.499023438 109 639.998046875 c 0
 108.904296875 641.903320312 108.856445312 643.767578125 108.856445312 645.590820312 c 0
 108.856445312 656.528320312 110.571289062 665.997070312 114 673.99609375 c 0
 118 683.329101562 123.666992188 690.162109375 131 694.495117188 c 0
 138.333007812 698.828125 146 701.828125 154 703.495117188 c 0
 162 705.162109375 170.666992188 705.329101562 180 703.99609375 c 0
 208.666992188 703.99609375 226.666992188 691.663085938 234 666.99609375 c 0
 248 622.99609375 286.666992188 541.99609375 350 423.99609375 c 0
 413.333007812 305.99609375 467 210.663085938 511 137.99609375 c 1
 512.778320312 179.779296875 513.666992188 234.232421875 513.666992188 301.35546875 c 0
 513.666992188 334.904296875 513.4453125 371.618164062 513.000976562 411.497070312 c 0xd0
 511.66796875 531.1640625 508.66796875 609.997070312 504.000976562 647.997070312 c 0
 503.614257812 651.09375 503.420898438 654.096679688 503.420898438 657.005859375 c 0
 503.420898438 669.12890625 506.78125 679.625976562 513.501953125 688.497070312 c 0
 521.834960938 699.497070312 532.66796875 704.997070312 546.000976562 704.997070312 c 0
 553.333984375 704.997070312 559.666992188 704.1640625 565 702.497070312 c 0
 570.333007812 700.830078125 574.5 698.830078125 577.5 696.497070312 c 0
 580.5 694.1640625 583 690.331054688 585 684.998046875 c 0
 587 679.665039062 588.5 674.83203125 589.5 670.499023438 c 0
 590.5 666.166015625 591.666992188 659.333007812 593 650 c 0
 594.333007812 639.333007812 595.333007812 585.833007812 596 489.5 c 0xe0
 596.12109375 471.981445312 596.181640625 454.34765625 596.181640625 436.59765625 c 0
 596.181640625 356.741210938 594.954101562 274.541992188 592.5 190 c 0
 589.5 86.6669921875 584.333007812 27 577 11 c 0
 570.333007812 -5.6669921875 552 -14 522 -14 c 0xd0
EndSplineSet
Validated: 1
EndChar

StartChar: O
Encoding: 79 79 47
Width: 700
GlyphClass: 2
Flags: HMW
HStem: -24 83.998 636.997 81.001
VStem: 104.999 96.3855 498.499 96.0643
LayerCount: 2
Fore
SplineSet
317 -24 m 0
 275.666992188 -23.3330078125 238.666992188 -10.8369140625 206 13.49609375 c 0
 173.333007812 37.8291015625 148.166015625 70.49609375 130.499023438 111.49609375 c 0
 113.474609375 151.004882812 104.962890625 194.072265625 104.962890625 240.700195312 c 0
 104.962890625 242.4609375 104.974609375 244.2265625 104.999023438 245.997070312 c 2
 104.999023438 262.997070312 l 2
 104.999023438 292.997070312 105.166015625 316.997070312 105.499023438 334.997070312 c 0
 105.83203125 352.997070312 107.165039062 376.997070312 109.498046875 406.997070312 c 0
 111.831054688 436.997070312 115.831054688 465.497070312 121.498046875 492.497070312 c 0
 127.165039062 519.497070312 134.33203125 544.997070312 142.999023438 568.997070312 c 0
 159.666015625 612.330078125 189.333007812 647.997070312 232 675.997070312 c 0
 274.666992188 703.997070312 322 717.997070312 374 717.997070312 c 0
 400.666992188 717.997070312 426.333984375 712.830078125 451.000976562 702.497070312 c 0
 475.66796875 692.1640625 497.66796875 677.331054688 517.000976562 657.998046875 c 0
 536.333984375 638.665039062 552.500976562 613.998046875 565.500976562 583.998046875 c 0
 578.500976562 553.998046875 586.66796875 520.331054688 590.000976562 482.998046875 c 0
 592.66796875 449.665039062 594.16796875 413.998046875 594.500976562 375.998046875 c 0
 594.54296875 371.251953125 594.563476562 366.498046875 594.563476562 361.736328125 c 0
 594.563476562 328.374023438 593.54296875 294.627929688 591.500976562 260.499023438 c 0
 589.16796875 221.499023438 584.66796875 190.666015625 578.000976562 167.999023438 c 0
 569.333984375 136.666015625 558.666992188 109.666015625 546 86.9990234375 c 0
 533.333007812 64.33203125 519.333007812 45.83203125 504 31.4990234375 c 0
 488.666992188 17.166015625 471 5.8330078125 451 -2.5 c 0
 431 -10.8330078125 410.5 -16.5 389.5 -19.5 c 0
 368.5 -22.5 344.333007812 -24 317 -24 c 0
317 59.99609375 m 0
 335 59.99609375 351.997070312 62.1640625 367.997070312 66.4970703125 c 0
 383.997070312 70.830078125 399.6640625 77.830078125 414.997070312 87.4970703125 c 0
 430.330078125 97.1640625 443.997070312 109.997070312 455.997070312 125.997070312 c 0
 467.997070312 141.997070312 477.330078125 160.6640625 483.997070312 181.997070312 c 0
 486.6640625 190.6640625 489.331054688 210.6640625 491.998046875 241.997070312 c 0
 494.665039062 273.330078125 496.83203125 310.663085938 498.499023438 353.99609375 c 0
 498.989257812 366.741210938 499.234375 379.428710938 499.234375 392.05859375 c 0
 499.234375 422.370117188 497.822265625 452.349609375 494.999023438 481.99609375 c 0
 490.999023438 525.99609375 476.83203125 562.829101562 452.499023438 592.49609375 c 0
 428.166015625 622.163085938 398.333007812 636.99609375 363 636.99609375 c 0
 327 636.99609375 296.833007812 623.829101562 272.5 597.49609375 c 0
 248.166992188 571.163085938 230.666992188 534.330078125 220 486.997070312 c 0
 207.58984375 433.408203125 201.384765625 371.466796875 201.384765625 301.171875 c 0
 201.384765625 288.389648438 201.58984375 275.331054688 202 261.99609375 c 0
 202.666992188 240.663085938 204.5 220.99609375 207.5 202.99609375 c 0
 210.5 184.99609375 214.666992188 166.99609375 220 148.99609375 c 0
 225.333007812 130.99609375 232.333007812 115.49609375 241 102.49609375 c 0
 249.666992188 89.49609375 260.5 79.1630859375 273.5 71.49609375 c 0
 286.5 63.8291015625 301 59.99609375 317 59.99609375 c 0
EndSplineSet
Validated: 1
EndChar

StartChar: P
Encoding: 80 80 48
Width: 700
GlyphClass: 2
Flags: HMW
HStem: -19.0771 21G 230.001 81.9374 630.003 80.998
VStem: 124.664 94.3366 129.74 102.314 493.997 92.0029
LayerCount: 2
Fore
SplineSet
232.053710938 21.7568359375 m 0xec
 232.053710938 8.837890625 226.53515625 -1.2421875 215.499023438 -8.4951171875 c 0
 204.765625 -15.548828125 192.762695312 -19.0751953125 179.490234375 -19.0751953125 c 0
 178.3359375 -19.0751953125 177.171875 -19.048828125 175.998046875 -18.9951171875 c 0
 161.998046875 -18.9951171875 150.498046875 -14.828125 141.498046875 -6.4951171875 c 0
 133.659179688 0.7626953125 129.740234375 10.9287109375 129.740234375 24.0029296875 c 0xec
 129.740234375 25.939453125 129.826171875 27.939453125 129.998046875 30.00390625 c 0
 130.665039062 40.6708984375 130.998046875 56.50390625 130.998046875 77.50390625 c 0
 130.998046875 98.50390625 130.831054688 124.50390625 130.498046875 155.50390625 c 0
 130.165039062 186.50390625 129.665039062 216.50390625 128.998046875 245.50390625 c 0
 128.331054688 274.50390625 127.498046875 310.00390625 126.498046875 352.00390625 c 0
 125.498046875 394.00390625 124.998046875 429.00390625 124.998046875 457.00390625 c 0
 124.775390625 471.455078125 124.6640625 487.463867188 124.6640625 505.029296875 c 0xf4
 124.6640625 540.134765625 125.108398438 581.458984375 125.997070312 629.002929688 c 0
 122.6640625 632.3359375 120.6640625 634.002929688 119.997070312 634.002929688 c 0
 114.6640625 642.002929688 112.831054688 650.169921875 114.498046875 658.502929688 c 0
 116.165039062 666.8359375 119.83203125 674.3359375 125.499023438 681.002929688 c 0
 131.166015625 687.669921875 137.333007812 691.669921875 144 693.002929688 c 0
 168 698.3359375 203.166992188 702.668945312 249.5 706.001953125 c 0
 295.833007812 709.334960938 328.333007812 711.001953125 347 711.001953125 c 0
 392.333007812 711.001953125 432.833007812 703.001953125 468.5 687.001953125 c 0
 504.166992188 671.001953125 532.5 646.834960938 553.5 614.501953125 c 0
 574.5 582.168945312 585.333007812 543.668945312 586 499.001953125 c 0
 586 461.668945312 579.833007812 426.501953125 567.5 393.501953125 c 0
 555.166992188 360.501953125 538.5 332.001953125 517.5 308.001953125 c 0
 496.5 284.001953125 470.666992188 265.001953125 440 251.001953125 c 0
 409.333007812 237.001953125 376 230.001953125 340 230.001953125 c 0
 288 230.001953125 247 233.668945312 217 241.001953125 c 1
 218.333007812 213.001953125 220 186.168945312 222 160.501953125 c 0
 224 134.834960938 226 108.16796875 228 80.5009765625 c 0
 230.264648438 49.16796875 232.053710938 24.41796875 232.053710938 21.7568359375 c 0xec
346.999023438 630.005859375 m 0
 323.666015625 630.005859375 281.66796875 627.336914062 221.000976562 622.00390625 c 1
 221.000976562 608.670898438 220.333984375 584.00390625 219.000976562 548.00390625 c 0xf4
 217.66796875 512.00390625 216.66796875 475.00390625 216.000976562 437.00390625 c 0
 215.333984375 399.00390625 215.000976562 362.00390625 215.000976562 326.00390625 c 1
 240.625 316.62890625 270.350585938 311.94140625 304.177734375 311.94140625 c 0
 306.43359375 311.94140625 308.708007812 311.961914062 311.000976562 312.00390625 c 0
 330.333984375 312.00390625 347.833984375 313.336914062 363.500976562 316.00390625 c 0
 379.16796875 318.670898438 392.834960938 322.337890625 404.501953125 327.004882812 c 0
 416.168945312 331.671875 426.668945312 337.838867188 436.001953125 345.505859375 c 0
 445.334960938 353.172851562 453.16796875 360.83984375 459.500976562 368.506835938 c 0
 465.833984375 376.173828125 471.166992188 385.173828125 475.5 395.506835938 c 0
 479.833007812 405.83984375 483.166015625 415.172851562 485.499023438 423.505859375 c 0
 487.83203125 431.838867188 489.665039062 441.505859375 490.998046875 452.505859375 c 0
 492.331054688 463.505859375 493.1640625 472.505859375 493.497070312 479.505859375 c 0
 493.830078125 486.505859375 493.997070312 495.005859375 493.997070312 505.005859375 c 0
 493.997070312 523.672851562 490.497070312 540.505859375 483.497070312 555.505859375 c 0
 476.497070312 570.505859375 467.830078125 582.505859375 457.497070312 591.505859375 c 0
 447.1640625 600.505859375 435.331054688 608.005859375 421.998046875 614.005859375 c 0
 408.665039062 620.005859375 395.83203125 624.172851562 383.499023438 626.505859375 c 0
 371.166015625 628.838867188 358.999023438 630.005859375 346.999023438 630.005859375 c 0
EndSplineSet
Validated: 1
EndChar

StartChar: Q
Encoding: 81 81 49
Width: 700
GlyphClass: 2
Flags: HMW
HStem: -24.1963 84.2021 637.005 80.9971
VStem: 101.07 95.6075 305.858 73.1323 499.101 93.3379
LayerCount: 2
Fore
SplineSet
576 -206 m 0
 568.890625 -210.443359375 561.481445312 -212.6640625 553.77734375 -212.6640625 c 0
 549.921875 -212.6640625 545.993164062 -212.108398438 541.991210938 -210.997070312 c 0
 529.991210938 -207.6640625 519.32421875 -199.997070312 509.991210938 -187.997070312 c 0
 500.658203125 -175.997070312 484.658203125 -153.6640625 461.991210938 -120.997070312 c 0
 439.32421875 -88.330078125 417.32421875 -54.9970703125 395.991210938 -20.9970703125 c 1
 382.125976562 -23.130859375 367.194335938 -24.197265625 351.1953125 -24.197265625 c 0
 347.194335938 -24.197265625 343.125976562 -24.130859375 338.991210938 -23.9970703125 c 0
 309.658203125 -23.9970703125 282.325195312 -19.330078125 256.9921875 -9.9970703125 c 0
 231.659179688 -0.6640625 209.826171875 12.3359375 191.493164062 29.0029296875 c 0
 173.16015625 45.669921875 157.327148438 65.5029296875 143.994140625 88.5029296875 c 0
 130.661132812 111.502929688 120.661132812 136.169921875 113.994140625 162.502929688 c 0
 107.327148438 188.8359375 103.327148438 216.668945312 101.994140625 246.001953125 c 0
 101.377929688 263.084960938 101.069335938 279.766601562 101.069335938 296.046875 c 0
 101.069335938 403.024414062 114.377929688 492.67578125 140.994140625 565.001953125 c 0
 158.327148438 609.001953125 187.994140625 645.501953125 229.994140625 674.501953125 c 0
 271.994140625 703.501953125 318.994140625 718.001953125 370.994140625 718.001953125 c 0
 398.327148438 718.001953125 423.827148438 713.334960938 447.494140625 704.001953125 c 0
 471.161132812 694.668945312 492.661132812 681.001953125 511.994140625 663.001953125 c 0
 531.327148438 645.001953125 547.494140625 620.668945312 560.494140625 590.001953125 c 0
 573.494140625 559.334960938 582.327148438 523.66796875 586.994140625 483.000976562 c 0
 590.624023438 447.220703125 592.439453125 405.2890625 592.439453125 357.20703125 c 0
 592.439453125 343.473632812 592.291015625 329.23828125 591.995117188 314.500976562 c 0
 590.662109375 248.16796875 586.329101562 197.66796875 578.99609375 163.000976562 c 0
 564.99609375 91.0009765625 532.329101562 39.66796875 480.99609375 9.0009765625 c 1
 494.329101562 -10.33203125 508.49609375 -29.9990234375 523.49609375 -49.9990234375 c 0
 538.49609375 -69.9990234375 552.829101562 -88.666015625 566.49609375 -105.999023438 c 0
 580.163085938 -123.33203125 589.330078125 -134.999023438 593.997070312 -140.999023438 c 0
 598.6640625 -148.33203125 600.331054688 -156.33203125 598.998046875 -164.999023438 c 0
 597.665039062 -173.666015625 594.83203125 -181.833007812 590.499023438 -189.5 c 0
 586.166015625 -197.166992188 581.333007812 -202.666992188 576 -206 c 0
198.991210938 262.004882812 m 0
 200.991210938 224.004882812 208.157226562 189.837890625 220.490234375 159.504882812 c 0
 232.823242188 129.171875 249.323242188 105.004882812 269.990234375 87.0048828125 c 0
 290.657226562 69.0048828125 313.657226562 60.0048828125 338.990234375 60.0048828125 c 2
 348.990234375 60.0048828125 l 1
 332.990234375 90.0048828125 321.657226562 113.337890625 314.990234375 130.004882812 c 0
 308.90234375 146.33203125 305.858398438 160.706054688 305.858398438 173.127929688 c 0
 305.858398438 190.630859375 311.90234375 204.256835938 323.990234375 214.005859375 c 0
 329.990234375 218.672851562 336.490234375 221.505859375 343.490234375 222.505859375 c 0
 350.490234375 223.505859375 357.157226562 221.505859375 363.490234375 216.505859375 c 0
 369.823242188 211.505859375 374.990234375 204.005859375 378.990234375 194.005859375 c 0
 390.990234375 160.672851562 408.323242188 124.33984375 430.990234375 85.0068359375 c 1
 459.657226562 104.33984375 478.657226562 135.33984375 487.990234375 178.006835938 c 0
 489.990234375 188.006835938 492.157226562 208.173828125 494.490234375 238.506835938 c 0
 496.823242188 268.83984375 498.323242188 306.672851562 498.990234375 352.005859375 c 0
 499.064453125 357.044921875 499.1015625 362.059570312 499.1015625 367.049804688 c 0
 499.1015625 406.948242188 496.731445312 445.266601562 491.991210938 482.004882812 c 0
 486.658203125 529.337890625 472.158203125 567.004882812 448.491210938 595.004882812 c 0
 424.82421875 623.004882812 395.32421875 637.004882812 359.991210938 637.004882812 c 0
 323.32421875 637.004882812 292.82421875 624.004882812 268.491210938 598.004882812 c 0
 244.158203125 572.004882812 226.658203125 535.671875 215.991210938 489.004882812 c 0
 203.115234375 437.5 196.676757812 382.5 196.676757812 324.004882812 c 0
 196.676757812 303.756835938 197.448242188 283.08984375 198.991210938 262.004882812 c 0
EndSplineSet
Validated: 1
EndChar

StartChar: R
Encoding: 82 82 50
Width: 700
GlyphClass: 2
Flags: HMW
HStem: -19.0801 21G 694.06 20G
VStem: 106.002 95 110.457 102.598 110.502 93.498 114.002 81 491.002 92
LayerCount: 2
Fore
SplineSet
213.053710938 21.755859375 m 0xd2
 213.053710938 8.8369140625 207.5390625 -1.248046875 196.502929688 -8.5 c 0
 185.76953125 -15.5537109375 173.485351562 -19.080078125 159.649414062 -19.080078125 c 0
 158.4453125 -19.080078125 157.229492188 -19.0537109375 156.001953125 -19 c 0
 142.001953125 -19 130.501953125 -14.8330078125 121.501953125 -6.5 c 0
 114.138671875 0.318359375 110.45703125 9.703125 110.45703125 21.6533203125 c 0xd2
 110.45703125 24.30859375 110.638671875 27.0908203125 111.001953125 30 c 0
 113.668945312 64.6669921875 115.001953125 94.1669921875 115.001953125 118.5 c 0
 115.001953125 142.833007812 114.668945312 202.666015625 114.001953125 297.999023438 c 0xc6
 114.001953125 310.666015625 114.668945312 337.833007812 116.001953125 379.5 c 0
 116.66796875 400.333984375 117.000976562 420.625976562 117.000976562 440.375976562 c 0
 117.000976562 460.125976562 116.66796875 479.333984375 116.001953125 498 c 0
 115.334960938 520.666992188 113.501953125 551.333984375 110.501953125 590.000976562 c 0xca
 107.501953125 628.66796875 106.001953125 652.000976562 106.001953125 660.000976562 c 2
 106.001953125 666.000976562 l 2xe2
 105.95703125 666.845703125 105.934570312 667.68359375 105.934570312 668.513671875 c 0
 105.934570312 680.127929688 110.290039062 690.290039062 119.000976562 699.000976562 c 0
 127.158203125 709.040039062 138.267578125 714.059570312 152.329101562 714.059570312 c 0
 153.208007812 714.059570312 154.098632812 714.040039062 155.000976562 714.000976562 c 0
 168.333984375 714.000976562 179.000976562 711.333984375 187.000976562 706.000976562 c 1
 242.333984375 703.333984375 292.500976562 696.166992188 337.500976562 684.5 c 0
 382.500976562 672.833007812 420.000976562 658.333007812 450.000976562 641 c 0
 480.000976562 623.666992188 505.333984375 604 526.000976562 582 c 0
 546.66796875 560 561.334960938 538 570.001953125 516 c 0
 578.668945312 494 583.001953125 471.666992188 583.001953125 449 c 0
 583.001953125 432.333007812 580.834960938 417 576.501953125 403 c 0
 572.168945312 389 566.001953125 376.833007812 558.001953125 366.5 c 0
 550.001953125 356.166992188 539.668945312 347 527.001953125 339 c 0
 514.334960938 331 500.834960938 324.166992188 486.501953125 318.5 c 0
 472.168945312 312.833007812 455.168945312 307.833007812 435.501953125 303.5 c 0
 415.834960938 299.166992188 396.334960938 295.833984375 377.001953125 293.500976562 c 0
 357.668945312 291.16796875 336.001953125 289.000976562 312.001953125 287.000976562 c 1
 379.334960938 252.333984375 438.66796875 211.833984375 490.000976562 165.500976562 c 0
 541.333984375 119.16796875 575.000976562 79.66796875 591.000976562 47.0009765625 c 0
 593.000976562 41.0009765625 594.000976562 35.2509765625 594.000976562 29.7509765625 c 0
 594.000976562 24.2509765625 593.000976562 19.0009765625 591.000976562 14.0009765625 c 0
 587.000976562 4.0009765625 580.66796875 -3.9990234375 572.000976562 -9.9990234375 c 0
 564.66796875 -15.3759765625 556.88671875 -18.064453125 548.657226562 -18.064453125 c 0
 545.6640625 -18.064453125 542.611328125 -17.708984375 539.5 -16.998046875 c 0
 527.833007812 -14.3310546875 517 -6.3310546875 507 7.001953125 c 0
 496.333007812 21.001953125 481.166015625 38.1689453125 461.499023438 58.501953125 c 0
 441.83203125 78.8349609375 418.165039062 101.501953125 390.498046875 126.501953125 c 0
 362.831054688 151.501953125 331.331054688 176.168945312 295.998046875 200.501953125 c 0
 260.665039062 224.834960938 226.33203125 244.334960938 192.999023438 259.001953125 c 1
 194.999023438 220.334960938 198.666015625 174.66796875 203.999023438 122.000976562 c 0xca
 206.875 93.6025390625 213.053710938 31.578125 213.053710938 21.755859375 c 0xd2
206.00390625 498 m 0
 206.00390625 490.666992188 205.505859375 480.833984375 204.505859375 468.500976562 c 0
 203.505859375 456.16796875 202.672851562 445.16796875 202.005859375 435.500976562 c 0
 201.338867188 425.833984375 200.171875 412.500976562 198.504882812 395.500976562 c 0
 196.837890625 378.500976562 195.670898438 366.333984375 195.00390625 359.000976562 c 1xc6
 203.00390625 357.4765625 213.2890625 356.71484375 225.859375 356.71484375 c 0
 235.288085938 356.71484375 246.002929688 357.143554688 258.00390625 358.000976562 c 0
 285.336914062 359.333984375 308.336914062 360.833984375 327.00390625 362.500976562 c 0
 345.670898438 364.16796875 364.50390625 366.500976562 383.50390625 369.500976562 c 0
 402.50390625 372.500976562 418.00390625 376.000976562 430.00390625 380.000976562 c 0
 442.00390625 384.000976562 453.00390625 389.000976562 463.00390625 395.000976562 c 0
 473.00390625 401.000976562 480.170898438 408.16796875 484.50390625 416.500976562 c 0
 488.836914062 424.833984375 491.00390625 434.333984375 491.00390625 445.000976562 c 0
 491.00390625 463.66796875 484.170898438 481.66796875 470.50390625 499.000976562 c 0
 456.836914062 516.333984375 439.50390625 531.666992188 418.50390625 545 c 0
 397.50390625 558.333007812 373.670898438 570.5 347.00390625 581.5 c 0
 320.336914062 592.5 294.836914062 601.333007812 270.50390625 608 c 0
 246.170898438 614.666992188 223.00390625 620 201.00390625 624 c 1xe2
 203.00390625 575.333007812 204.670898438 533.333007812 206.00390625 498 c 0
EndSplineSet
Validated: 1
EndChar

StartChar: S
Encoding: 83 83 51
Width: 700
GlyphClass: 2
Flags: HMW
HStem: -29 85<298.663 319.996 298.663 323.333> 645.001 79.001
VStem: 129.998 100.001 501.996 99.0029
LayerCount: 2
Fore
SplineSet
109 66 m 0
 102.560546875 79.3740234375 99.3388671875 90.9111328125 99.3388671875 100.60546875 c 0
 99.3388671875 103.958984375 99.724609375 107.091796875 100.495117188 110.00390625 c 0
 103.495117188 121.336914062 110.662109375 130.00390625 121.995117188 136.00390625 c 0
 129.995117188 139.336914062 136.328125 141.669921875 140.995117188 143.002929688 c 0
 145.662109375 144.3359375 150.829101562 144.668945312 156.49609375 144.001953125 c 0
 162.163085938 143.334960938 167.663085938 140.66796875 172.99609375 136.000976562 c 0
 178.329101562 131.333984375 184.329101562 124.666992188 190.99609375 116 c 0
 202.99609375 98 219.49609375 83.5 240.49609375 72.5 c 0
 261.49609375 61.5 285.329101562 56 311.99609375 56 c 0
 327.99609375 56 344.663085938 58.1669921875 361.99609375 62.5 c 0
 379.329101562 66.8330078125 396.329101562 73.5 412.99609375 82.5 c 0
 429.663085938 91.5 444.663085938 102 457.99609375 114 c 0
 471.329101562 126 481.99609375 140.166992188 489.99609375 156.5 c 0
 497.99609375 172.833007812 501.99609375 190 501.99609375 208 c 0
 501.99609375 218 501.329101562 227 499.99609375 235 c 0
 498.663085938 243 496.163085938 251.666992188 492.49609375 261 c 0
 488.829101562 270.333007812 483.829101562 278.833007812 477.49609375 286.5 c 0
 471.163085938 294.166992188 462.330078125 301.833984375 450.997070312 309.500976562 c 0
 439.6640625 317.16796875 426.331054688 324.000976562 410.998046875 330.000976562 c 0
 395.665039062 336.000976562 376.998046875 341.500976562 354.998046875 346.500976562 c 0
 332.998046875 351.500976562 308.331054688 355.333984375 280.998046875 358.000976562 c 0
 256.998046875 360.66796875 235.165039062 367.000976562 215.498046875 377.000976562 c 0
 195.831054688 387.000976562 179.998046875 399.16796875 167.998046875 413.500976562 c 0
 155.998046875 427.833984375 146.665039062 442.833984375 139.998046875 458.500976562 c 0
 133.331054688 474.16796875 129.998046875 490.000976562 129.998046875 506.000976562 c 0
 129.998046875 528.66796875 133.831054688 550.500976562 141.498046875 571.500976562 c 0
 149.165039062 592.500976562 160.998046875 612.333984375 176.998046875 631.000976562 c 0
 192.998046875 649.66796875 212.331054688 665.834960938 234.998046875 679.501953125 c 0
 257.665039062 693.168945312 284.83203125 704.001953125 316.499023438 712.001953125 c 0
 348.166015625 720.001953125 381.999023438 724.001953125 417.999023438 724.001953125 c 0
 435.999023438 724.001953125 460.666015625 722.501953125 491.999023438 719.501953125 c 0
 523.33203125 716.501953125 544.665039062 712.668945312 555.998046875 708.001953125 c 0
 568.665039062 703.334960938 577.83203125 696.001953125 583.499023438 686.001953125 c 0
 588.086914062 677.90625 590.380859375 669.373046875 590.380859375 660.403320312 c 0
 590.380859375 658.293945312 590.25390625 656.16015625 590 654.001953125 c 0
 589.333007812 646.001953125 586.666015625 639.668945312 581.999023438 635.001953125 c 0
 577.33203125 630.334960938 571.665039062 627.66796875 564.998046875 627.000976562 c 0
 558.331054688 626.333984375 552.331054688 626.166992188 546.998046875 626.5 c 0
 541.665039062 626.833007812 535.998046875 628 529.998046875 630 c 0
 528.665039062 630 526.665039062 630.666992188 523.998046875 632 c 0
 511.998046875 634.666992188 502.498046875 636.833984375 495.498046875 638.500976562 c 0
 488.498046875 640.16796875 477.331054688 641.66796875 461.998046875 643.000976562 c 0
 446.665039062 644.333984375 429.33203125 645.000976562 409.999023438 645.000976562 c 0
 379.33203125 645.000976562 350.499023438 640.500976562 323.499023438 631.500976562 c 0
 296.499023438 622.500976562 274.166015625 609.000976562 256.499023438 591.000976562 c 0
 238.83203125 573.000976562 229.999023438 553.000976562 229.999023438 531.000976562 c 0
 229.999023438 505.000976562 241.33203125 483.000976562 263.999023438 465.000976562 c 0
 286.666015625 447.000976562 318.666015625 437.333984375 359.999023438 436.000976562 c 0
 397.33203125 434.000976562 430.33203125 428.16796875 458.999023438 418.500976562 c 0
 487.666015625 408.833984375 510.666015625 397.166992188 527.999023438 383.5 c 0
 545.33203125 369.833007812 559.83203125 353.833007812 571.499023438 335.5 c 0
 583.166015625 317.166992188 590.999023438 299 594.999023438 281 c 0
 598.999023438 263 600.999023438 244.333007812 600.999023438 225 c 0
 600.999023438 194.333007812 595.83203125 165.5 585.499023438 138.5 c 0
 575.166015625 111.5 560.833007812 87.8330078125 542.5 67.5 c 0
 524.166992188 47.1669921875 502.666992188 29.6669921875 478 15 c 0
 453.333007812 0.3330078125 426.5 -10.6669921875 397.5 -18 c 0
 368.5 -25.3330078125 338.666992188 -29 308 -29 c 0
 261.333007812 -29 220 -19.8330078125 184 -1.5 c 0
 148 16.8330078125 123 39.3330078125 109 66 c 0
EndSplineSet
Validated: 1
EndChar

StartChar: T
Encoding: 84 84 52
Width: 700
GlyphClass: 2
Flags: HMW
HStem: -13.0725 21G 621 80
VStem: 301.865 100.135 310.731 103.269
LayerCount: 2
Fore
SplineSet
414 33 m 0xd0
 412.666992188 19 405.997070312 7.6630859375 393.997070312 -1.00390625 c 0
 382.854492188 -9.0517578125 370.849609375 -13.0751953125 357.982421875 -13.0751953125 c 0
 356.9921875 -13.0751953125 355.997070312 -13.0517578125 354.997070312 -13.00390625 c 0
 341.6640625 -13.00390625 330.6640625 -8.50390625 321.997070312 0.49609375 c 0
 314.485351562 8.296875 310.729492188 18.9765625 310.729492188 32.5361328125 c 0xd0
 310.729492188 34.6220703125 310.818359375 36.775390625 310.99609375 38.9970703125 c 0
 311.627929688 48.470703125 311.943359375 64.208984375 311.943359375 86.212890625 c 0
 311.943359375 133.891601562 310.4609375 210.986328125 307.49609375 317.498046875 c 0
 303.741210938 452.399414062 301.86328125 546.37109375 301.86328125 599.413085938 c 0
 301.86328125 607.578125 301.908203125 614.7734375 301.997070312 620.999023438 c 1
 214.6640625 624.999023438 164.331054688 627.999023438 150.998046875 629.999023438 c 0
 101.641601562 637.741210938 98.9267578125 659.939453125 98.9267578125 671.694335938 c 0
 98.9267578125 683.279296875 102.950195312 693.713867188 110.998046875 702.999023438 c 0
 117.498046875 710.499023438 126.435546875 714.249023438 137.810546875 714.249023438 c 0
 141.602539062 714.249023438 145.665039062 713.83203125 149.998046875 712.999023438 c 0
 186.665039062 706.999023438 321.998046875 702.999023438 555.998046875 700.999023438 c 0
 571.998046875 700.999023438 583.331054688 696.999023438 589.998046875 688.999023438 c 0
 596.665039062 680.999023438 600.33203125 671.33203125 600.999023438 659.999023438 c 0
 600.999023438 646.666015625 597.166015625 634.999023438 589.499023438 624.999023438 c 0
 582.734375 616.17578125 572.725585938 611.764648438 559.47265625 611.764648438 c 0
 557.706054688 611.764648438 555.881835938 611.842773438 554 612 c 0
 548.666992188 612 498 613.666992188 402 617 c 1xe0
 402.666992188 481 406.666992188 286.333007812 414 33 c 0xd0
EndSplineSet
Validated: 1
EndChar

